M48
; DRILL file {KiCad (7.0.0-0)} date Wednesday, 01. March 2023 at 12:50:51
; FORMAT={-:-/ absolute / metric / decimal}
; #@! TF.CreationDate,2023-03-01T12:50:51+00:00
; #@! TF.GenerationSoftware,Kicad,Pcbnew,(7.0.0-0)
; #@! TF.FileFunction,Plated,1,2,PTH
FMAT,2
METRIC
; #@! TA.AperFunction,Plated,PTH,ViaDrill
T1C0.400
; #@! TA.AperFunction,Plated,PTH,ViaDrill
T2C0.450
; #@! TA.AperFunction,Plated,PTH,ComponentDrill
T3C0.450
; #@! TA.AperFunction,Plated,PTH,ComponentDrill
T4C0.600
; #@! TA.AperFunction,Plated,PTH,ComponentDrill
T5C1.000
%
G90
G05
T1
X108.5Y-109.75
X108.5Y-114.0
X108.5Y-117.75
X108.75Y-92.5
X108.75Y-95.75
X108.75Y-98.5
X110.75Y-106.5
X111.0Y-113.25
X112.5Y-108.5
X113.0Y-114.5
X113.0Y-116.5
X114.5Y-110.0
X116.25Y-94.75
X118.75Y-107.5
X119.0Y-96.25
X120.25Y-113.25
X120.5Y-110.75
X120.5Y-126.0
X120.75Y-124.0
X122.75Y-124.0
X122.75Y-126.0
X123.5Y-110.75
X125.75Y-111.0
X127.25Y-115.5
X130.75Y-111.5
X130.75Y-113.25
X132.75Y-105.75
X134.0Y-111.25
X135.25Y-123.75
X135.25Y-125.5
X136.5Y-117.0
X138.5Y-111.25
X139.0Y-124.0
X139.0Y-125.75
X140.75Y-111.75
X142.75Y-106.5
X142.75Y-111.5
X143.75Y-113.0
X144.0Y-117.25
X145.5Y-115.0
X148.35Y-115.61
X148.5Y-121.0
X149.0Y-118.5
X150.25Y-93.75
X151.5Y-115.25
X152.5Y-112.5
X152.5Y-120.75
X153.25Y-118.0
X154.0Y-94.5
X155.375Y-115.875
X155.5Y-96.25
X155.5Y-119.25
X156.25Y-94.5
X158.25Y-94.5
X158.25Y-97.25
X158.25Y-99.25
X161.25Y-94.5
X161.25Y-97.0
X161.25Y-99.25
T2
X116.75Y-113.536
X117.024Y-108.726
X117.129Y-118.379
X117.379Y-119.879
X121.629Y-117.629
X122.859Y-116.379
X123.879Y-92.879
X127.25Y-113.75
X129.879Y-103.879
X132.879Y-103.879
X134.123Y-102.634
X134.879Y-93.379
X134.879Y-105.879
X136.379Y-100.379
X136.379Y-101.879
X137.379Y-96.879
X137.379Y-104.379
X137.879Y-91.879
X138.379Y-109.75
X140.879Y-106.879
X141.879Y-104.879
X144.379Y-101.078
X144.379Y-104.879
X145.879Y-93.379
X146.379Y-98.879
X146.379Y-103.879
X146.379Y-112.379
X146.379Y-113.629
X148.379Y-96.879
X150.379Y-104.0
X152.379Y-105.75
X154.379Y-104.879
X157.379Y-109.879
T3
X128.032Y-99.491
X128.07Y-96.886
X129.25Y-98.21
X130.472Y-99.478
X130.497Y-96.912
T5
X110.879Y-102.879
X111.514Y-91.854
X114.054Y-91.854
X119.474Y-120.636
X122.014Y-120.636
X124.554Y-120.636
X127.094Y-120.636
X129.634Y-120.636
X132.174Y-120.636
X134.714Y-120.636
X137.254Y-120.636
X142.051Y-120.717
X144.591Y-120.717
X162.879Y-102.879
T4
X110.584Y-111.666G85X109.984Y-111.666
G05
X110.584Y-120.306G85X109.984Y-120.306
G05
X115.014Y-111.666G85X113.914Y-111.666
G05
X115.014Y-120.306G85X113.914Y-120.306
G05
T0
M30
