%TF.GenerationSoftware,KiCad,Pcbnew,(7.0.0-0)*%
%TF.CreationDate,2023-03-01T12:51:13+00:00*%
%TF.ProjectId,winch-link,77696e63-682d-46c6-996e-6b2e6b696361,rev?*%
%TF.SameCoordinates,Original*%
%TF.FileFunction,Drillmap*%
%TF.FilePolarity,Positive*%
%FSLAX45Y45*%
G04 Gerber Fmt 4.5, Leading zero omitted, Abs format (unit mm)*
G04 Created by KiCad (PCBNEW (7.0.0-0)) date 2023-03-01 12:51:13*
%MOMM*%
%LPD*%
G01*
G04 APERTURE LIST*
%ADD10C,0.100000*%
%ADD11C,0.200000*%
%ADD12C,0.065000*%
%ADD13C,0.220000*%
G04 APERTURE END LIST*
D10*
X13987861Y-8919589D02*
G75*
G03*
X14087189Y-8820060I-111J99439D01*
G01*
X10737868Y-8537868D02*
X10737868Y-12437868D01*
X14087835Y-8337049D02*
X14087189Y-8820060D01*
X11037868Y-8237868D02*
X11925073Y-8238324D01*
X12024602Y-8337647D02*
X12026201Y-8819446D01*
X12024606Y-8337647D02*
G75*
G03*
X11925073Y-8238324I-99426J-103D01*
G01*
X18737868Y-8537872D02*
G75*
G03*
X18437864Y-8237872I-299998J2D01*
G01*
X18437868Y-12737868D02*
G75*
G03*
X18737868Y-12437868I2J299998D01*
G01*
X14187871Y-8237064D02*
X18437864Y-8237872D01*
X18737864Y-8537872D02*
X18737868Y-12437868D01*
X11037868Y-8237868D02*
G75*
G03*
X10737868Y-8537868I2J-300002D01*
G01*
X12026201Y-8819446D02*
G75*
G03*
X12125729Y-8918769I99429J106D01*
G01*
X14187871Y-8237065D02*
G75*
G03*
X14087835Y-8337049I-361J-99675D01*
G01*
X10737872Y-12437868D02*
G75*
G03*
X11037868Y-12737868I299998J-2D01*
G01*
X12125729Y-8918769D02*
X13987861Y-8919589D01*
X18437868Y-12737868D02*
X11037868Y-12737868D01*
D11*
D12*
X11360868Y-11277052D02*
X11425868Y-11342052D01*
X11425868Y-11277052D02*
X11360868Y-11342052D01*
X11360868Y-11855052D02*
X11425868Y-11920052D01*
X11425868Y-11855052D02*
X11360868Y-11920052D01*
D13*
X11147868Y-8537868D02*
G75*
G03*
X11147868Y-8537868I-110000J0D01*
G01*
X11147868Y-12437868D02*
G75*
G03*
X11147868Y-12437868I-110000J0D01*
G01*
X15147868Y-12437868D02*
G75*
G03*
X15147868Y-12437868I-110000J0D01*
G01*
X15947868Y-8537868D02*
G75*
G03*
X15947868Y-8537868I-110000J0D01*
G01*
D11*
X10980487Y-13036344D02*
X10980487Y-12836344D01*
X10980487Y-12836344D02*
X11028106Y-12836344D01*
X11028106Y-12836344D02*
X11056678Y-12845868D01*
X11056678Y-12845868D02*
X11075725Y-12864916D01*
X11075725Y-12864916D02*
X11085249Y-12883963D01*
X11085249Y-12883963D02*
X11094773Y-12922058D01*
X11094773Y-12922058D02*
X11094773Y-12950630D01*
X11094773Y-12950630D02*
X11085249Y-12988725D01*
X11085249Y-12988725D02*
X11075725Y-13007773D01*
X11075725Y-13007773D02*
X11056678Y-13026820D01*
X11056678Y-13026820D02*
X11028106Y-13036344D01*
X11028106Y-13036344D02*
X10980487Y-13036344D01*
X11180487Y-13036344D02*
X11180487Y-12903011D01*
X11180487Y-12941106D02*
X11190011Y-12922058D01*
X11190011Y-12922058D02*
X11199535Y-12912535D01*
X11199535Y-12912535D02*
X11218582Y-12903011D01*
X11218582Y-12903011D02*
X11237630Y-12903011D01*
X11304296Y-13036344D02*
X11304296Y-12903011D01*
X11304296Y-12836344D02*
X11294773Y-12845868D01*
X11294773Y-12845868D02*
X11304296Y-12855392D01*
X11304296Y-12855392D02*
X11313820Y-12845868D01*
X11313820Y-12845868D02*
X11304296Y-12836344D01*
X11304296Y-12836344D02*
X11304296Y-12855392D01*
X11428106Y-13036344D02*
X11409058Y-13026820D01*
X11409058Y-13026820D02*
X11399535Y-13007773D01*
X11399535Y-13007773D02*
X11399535Y-12836344D01*
X11532868Y-13036344D02*
X11513820Y-13026820D01*
X11513820Y-13026820D02*
X11504296Y-13007773D01*
X11504296Y-13007773D02*
X11504296Y-12836344D01*
X11729058Y-13036344D02*
X11729058Y-12836344D01*
X11729058Y-12836344D02*
X11795725Y-12979201D01*
X11795725Y-12979201D02*
X11862392Y-12836344D01*
X11862392Y-12836344D02*
X11862392Y-13036344D01*
X12043344Y-13036344D02*
X12043344Y-12931582D01*
X12043344Y-12931582D02*
X12033820Y-12912535D01*
X12033820Y-12912535D02*
X12014773Y-12903011D01*
X12014773Y-12903011D02*
X11976677Y-12903011D01*
X11976677Y-12903011D02*
X11957630Y-12912535D01*
X12043344Y-13026820D02*
X12024296Y-13036344D01*
X12024296Y-13036344D02*
X11976677Y-13036344D01*
X11976677Y-13036344D02*
X11957630Y-13026820D01*
X11957630Y-13026820D02*
X11948106Y-13007773D01*
X11948106Y-13007773D02*
X11948106Y-12988725D01*
X11948106Y-12988725D02*
X11957630Y-12969677D01*
X11957630Y-12969677D02*
X11976677Y-12960154D01*
X11976677Y-12960154D02*
X12024296Y-12960154D01*
X12024296Y-12960154D02*
X12043344Y-12950630D01*
X12138582Y-12903011D02*
X12138582Y-13103011D01*
X12138582Y-12912535D02*
X12157630Y-12903011D01*
X12157630Y-12903011D02*
X12195725Y-12903011D01*
X12195725Y-12903011D02*
X12214773Y-12912535D01*
X12214773Y-12912535D02*
X12224296Y-12922058D01*
X12224296Y-12922058D02*
X12233820Y-12941106D01*
X12233820Y-12941106D02*
X12233820Y-12998249D01*
X12233820Y-12998249D02*
X12224296Y-13017296D01*
X12224296Y-13017296D02*
X12214773Y-13026820D01*
X12214773Y-13026820D02*
X12195725Y-13036344D01*
X12195725Y-13036344D02*
X12157630Y-13036344D01*
X12157630Y-13036344D02*
X12138582Y-13026820D01*
X12319535Y-13017296D02*
X12329058Y-13026820D01*
X12329058Y-13026820D02*
X12319535Y-13036344D01*
X12319535Y-13036344D02*
X12310011Y-13026820D01*
X12310011Y-13026820D02*
X12319535Y-13017296D01*
X12319535Y-13017296D02*
X12319535Y-13036344D01*
X12319535Y-12912535D02*
X12329058Y-12922058D01*
X12329058Y-12922058D02*
X12319535Y-12931582D01*
X12319535Y-12931582D02*
X12310011Y-12922058D01*
X12310011Y-12922058D02*
X12319535Y-12912535D01*
X12319535Y-12912535D02*
X12319535Y-12931582D01*
D12*
X10667868Y-13350368D02*
X10732868Y-13415368D01*
X10732868Y-13350368D02*
X10667868Y-13415368D01*
D11*
X11018582Y-13256344D02*
X11037630Y-13256344D01*
X11037630Y-13256344D02*
X11056678Y-13265868D01*
X11056678Y-13265868D02*
X11066201Y-13275392D01*
X11066201Y-13275392D02*
X11075725Y-13294439D01*
X11075725Y-13294439D02*
X11085249Y-13332535D01*
X11085249Y-13332535D02*
X11085249Y-13380154D01*
X11085249Y-13380154D02*
X11075725Y-13418249D01*
X11075725Y-13418249D02*
X11066201Y-13437296D01*
X11066201Y-13437296D02*
X11056678Y-13446820D01*
X11056678Y-13446820D02*
X11037630Y-13456344D01*
X11037630Y-13456344D02*
X11018582Y-13456344D01*
X11018582Y-13456344D02*
X10999535Y-13446820D01*
X10999535Y-13446820D02*
X10990011Y-13437296D01*
X10990011Y-13437296D02*
X10980487Y-13418249D01*
X10980487Y-13418249D02*
X10970963Y-13380154D01*
X10970963Y-13380154D02*
X10970963Y-13332535D01*
X10970963Y-13332535D02*
X10980487Y-13294439D01*
X10980487Y-13294439D02*
X10990011Y-13275392D01*
X10990011Y-13275392D02*
X10999535Y-13265868D01*
X10999535Y-13265868D02*
X11018582Y-13256344D01*
X11170963Y-13437296D02*
X11180487Y-13446820D01*
X11180487Y-13446820D02*
X11170963Y-13456344D01*
X11170963Y-13456344D02*
X11161439Y-13446820D01*
X11161439Y-13446820D02*
X11170963Y-13437296D01*
X11170963Y-13437296D02*
X11170963Y-13456344D01*
X11351916Y-13256344D02*
X11313820Y-13256344D01*
X11313820Y-13256344D02*
X11294773Y-13265868D01*
X11294773Y-13265868D02*
X11285249Y-13275392D01*
X11285249Y-13275392D02*
X11266201Y-13303963D01*
X11266201Y-13303963D02*
X11256677Y-13342058D01*
X11256677Y-13342058D02*
X11256677Y-13418249D01*
X11256677Y-13418249D02*
X11266201Y-13437296D01*
X11266201Y-13437296D02*
X11275725Y-13446820D01*
X11275725Y-13446820D02*
X11294773Y-13456344D01*
X11294773Y-13456344D02*
X11332868Y-13456344D01*
X11332868Y-13456344D02*
X11351916Y-13446820D01*
X11351916Y-13446820D02*
X11361439Y-13437296D01*
X11361439Y-13437296D02*
X11370963Y-13418249D01*
X11370963Y-13418249D02*
X11370963Y-13370630D01*
X11370963Y-13370630D02*
X11361439Y-13351582D01*
X11361439Y-13351582D02*
X11351916Y-13342058D01*
X11351916Y-13342058D02*
X11332868Y-13332535D01*
X11332868Y-13332535D02*
X11294773Y-13332535D01*
X11294773Y-13332535D02*
X11275725Y-13342058D01*
X11275725Y-13342058D02*
X11266201Y-13351582D01*
X11266201Y-13351582D02*
X11256677Y-13370630D01*
X11551916Y-13256344D02*
X11456677Y-13256344D01*
X11456677Y-13256344D02*
X11447154Y-13351582D01*
X11447154Y-13351582D02*
X11456677Y-13342058D01*
X11456677Y-13342058D02*
X11475725Y-13332535D01*
X11475725Y-13332535D02*
X11523344Y-13332535D01*
X11523344Y-13332535D02*
X11542392Y-13342058D01*
X11542392Y-13342058D02*
X11551916Y-13351582D01*
X11551916Y-13351582D02*
X11561439Y-13370630D01*
X11561439Y-13370630D02*
X11561439Y-13418249D01*
X11561439Y-13418249D02*
X11551916Y-13437296D01*
X11551916Y-13437296D02*
X11542392Y-13446820D01*
X11542392Y-13446820D02*
X11523344Y-13456344D01*
X11523344Y-13456344D02*
X11475725Y-13456344D01*
X11475725Y-13456344D02*
X11456677Y-13446820D01*
X11456677Y-13446820D02*
X11447154Y-13437296D01*
X11685249Y-13256344D02*
X11704297Y-13256344D01*
X11704297Y-13256344D02*
X11723344Y-13265868D01*
X11723344Y-13265868D02*
X11732868Y-13275392D01*
X11732868Y-13275392D02*
X11742392Y-13294439D01*
X11742392Y-13294439D02*
X11751916Y-13332535D01*
X11751916Y-13332535D02*
X11751916Y-13380154D01*
X11751916Y-13380154D02*
X11742392Y-13418249D01*
X11742392Y-13418249D02*
X11732868Y-13437296D01*
X11732868Y-13437296D02*
X11723344Y-13446820D01*
X11723344Y-13446820D02*
X11704297Y-13456344D01*
X11704297Y-13456344D02*
X11685249Y-13456344D01*
X11685249Y-13456344D02*
X11666201Y-13446820D01*
X11666201Y-13446820D02*
X11656677Y-13437296D01*
X11656677Y-13437296D02*
X11647154Y-13418249D01*
X11647154Y-13418249D02*
X11637630Y-13380154D01*
X11637630Y-13380154D02*
X11637630Y-13332535D01*
X11637630Y-13332535D02*
X11647154Y-13294439D01*
X11647154Y-13294439D02*
X11656677Y-13275392D01*
X11656677Y-13275392D02*
X11666201Y-13265868D01*
X11666201Y-13265868D02*
X11685249Y-13256344D01*
X11837630Y-13456344D02*
X11837630Y-13323011D01*
X11837630Y-13342058D02*
X11847154Y-13332535D01*
X11847154Y-13332535D02*
X11866201Y-13323011D01*
X11866201Y-13323011D02*
X11894773Y-13323011D01*
X11894773Y-13323011D02*
X11913820Y-13332535D01*
X11913820Y-13332535D02*
X11923344Y-13351582D01*
X11923344Y-13351582D02*
X11923344Y-13456344D01*
X11923344Y-13351582D02*
X11932868Y-13332535D01*
X11932868Y-13332535D02*
X11951916Y-13323011D01*
X11951916Y-13323011D02*
X11980487Y-13323011D01*
X11980487Y-13323011D02*
X11999535Y-13332535D01*
X11999535Y-13332535D02*
X12009058Y-13351582D01*
X12009058Y-13351582D02*
X12009058Y-13456344D01*
X12104297Y-13456344D02*
X12104297Y-13323011D01*
X12104297Y-13342058D02*
X12113820Y-13332535D01*
X12113820Y-13332535D02*
X12132868Y-13323011D01*
X12132868Y-13323011D02*
X12161439Y-13323011D01*
X12161439Y-13323011D02*
X12180487Y-13332535D01*
X12180487Y-13332535D02*
X12190011Y-13351582D01*
X12190011Y-13351582D02*
X12190011Y-13456344D01*
X12190011Y-13351582D02*
X12199535Y-13332535D01*
X12199535Y-13332535D02*
X12218582Y-13323011D01*
X12218582Y-13323011D02*
X12247154Y-13323011D01*
X12247154Y-13323011D02*
X12266201Y-13332535D01*
X12266201Y-13332535D02*
X12275725Y-13351582D01*
X12275725Y-13351582D02*
X12275725Y-13456344D01*
X12633820Y-13246820D02*
X12462392Y-13503963D01*
X12858582Y-13256344D02*
X12877630Y-13256344D01*
X12877630Y-13256344D02*
X12896678Y-13265868D01*
X12896678Y-13265868D02*
X12906201Y-13275392D01*
X12906201Y-13275392D02*
X12915725Y-13294439D01*
X12915725Y-13294439D02*
X12925249Y-13332535D01*
X12925249Y-13332535D02*
X12925249Y-13380154D01*
X12925249Y-13380154D02*
X12915725Y-13418249D01*
X12915725Y-13418249D02*
X12906201Y-13437296D01*
X12906201Y-13437296D02*
X12896678Y-13446820D01*
X12896678Y-13446820D02*
X12877630Y-13456344D01*
X12877630Y-13456344D02*
X12858582Y-13456344D01*
X12858582Y-13456344D02*
X12839535Y-13446820D01*
X12839535Y-13446820D02*
X12830011Y-13437296D01*
X12830011Y-13437296D02*
X12820487Y-13418249D01*
X12820487Y-13418249D02*
X12810963Y-13380154D01*
X12810963Y-13380154D02*
X12810963Y-13332535D01*
X12810963Y-13332535D02*
X12820487Y-13294439D01*
X12820487Y-13294439D02*
X12830011Y-13275392D01*
X12830011Y-13275392D02*
X12839535Y-13265868D01*
X12839535Y-13265868D02*
X12858582Y-13256344D01*
X13010963Y-13437296D02*
X13020487Y-13446820D01*
X13020487Y-13446820D02*
X13010963Y-13456344D01*
X13010963Y-13456344D02*
X13001439Y-13446820D01*
X13001439Y-13446820D02*
X13010963Y-13437296D01*
X13010963Y-13437296D02*
X13010963Y-13456344D01*
X13144297Y-13256344D02*
X13163344Y-13256344D01*
X13163344Y-13256344D02*
X13182392Y-13265868D01*
X13182392Y-13265868D02*
X13191916Y-13275392D01*
X13191916Y-13275392D02*
X13201439Y-13294439D01*
X13201439Y-13294439D02*
X13210963Y-13332535D01*
X13210963Y-13332535D02*
X13210963Y-13380154D01*
X13210963Y-13380154D02*
X13201439Y-13418249D01*
X13201439Y-13418249D02*
X13191916Y-13437296D01*
X13191916Y-13437296D02*
X13182392Y-13446820D01*
X13182392Y-13446820D02*
X13163344Y-13456344D01*
X13163344Y-13456344D02*
X13144297Y-13456344D01*
X13144297Y-13456344D02*
X13125249Y-13446820D01*
X13125249Y-13446820D02*
X13115725Y-13437296D01*
X13115725Y-13437296D02*
X13106201Y-13418249D01*
X13106201Y-13418249D02*
X13096678Y-13380154D01*
X13096678Y-13380154D02*
X13096678Y-13332535D01*
X13096678Y-13332535D02*
X13106201Y-13294439D01*
X13106201Y-13294439D02*
X13115725Y-13275392D01*
X13115725Y-13275392D02*
X13125249Y-13265868D01*
X13125249Y-13265868D02*
X13144297Y-13256344D01*
X13287154Y-13275392D02*
X13296678Y-13265868D01*
X13296678Y-13265868D02*
X13315725Y-13256344D01*
X13315725Y-13256344D02*
X13363344Y-13256344D01*
X13363344Y-13256344D02*
X13382392Y-13265868D01*
X13382392Y-13265868D02*
X13391916Y-13275392D01*
X13391916Y-13275392D02*
X13401439Y-13294439D01*
X13401439Y-13294439D02*
X13401439Y-13313487D01*
X13401439Y-13313487D02*
X13391916Y-13342058D01*
X13391916Y-13342058D02*
X13277630Y-13456344D01*
X13277630Y-13456344D02*
X13401439Y-13456344D01*
X13582392Y-13256344D02*
X13487154Y-13256344D01*
X13487154Y-13256344D02*
X13477630Y-13351582D01*
X13477630Y-13351582D02*
X13487154Y-13342058D01*
X13487154Y-13342058D02*
X13506201Y-13332535D01*
X13506201Y-13332535D02*
X13553820Y-13332535D01*
X13553820Y-13332535D02*
X13572868Y-13342058D01*
X13572868Y-13342058D02*
X13582392Y-13351582D01*
X13582392Y-13351582D02*
X13591916Y-13370630D01*
X13591916Y-13370630D02*
X13591916Y-13418249D01*
X13591916Y-13418249D02*
X13582392Y-13437296D01*
X13582392Y-13437296D02*
X13572868Y-13446820D01*
X13572868Y-13446820D02*
X13553820Y-13456344D01*
X13553820Y-13456344D02*
X13506201Y-13456344D01*
X13506201Y-13456344D02*
X13487154Y-13446820D01*
X13487154Y-13446820D02*
X13477630Y-13437296D01*
X13763344Y-13256344D02*
X13725249Y-13256344D01*
X13725249Y-13256344D02*
X13706201Y-13265868D01*
X13706201Y-13265868D02*
X13696678Y-13275392D01*
X13696678Y-13275392D02*
X13677630Y-13303963D01*
X13677630Y-13303963D02*
X13668106Y-13342058D01*
X13668106Y-13342058D02*
X13668106Y-13418249D01*
X13668106Y-13418249D02*
X13677630Y-13437296D01*
X13677630Y-13437296D02*
X13687154Y-13446820D01*
X13687154Y-13446820D02*
X13706201Y-13456344D01*
X13706201Y-13456344D02*
X13744297Y-13456344D01*
X13744297Y-13456344D02*
X13763344Y-13446820D01*
X13763344Y-13446820D02*
X13772868Y-13437296D01*
X13772868Y-13437296D02*
X13782392Y-13418249D01*
X13782392Y-13418249D02*
X13782392Y-13370630D01*
X13782392Y-13370630D02*
X13772868Y-13351582D01*
X13772868Y-13351582D02*
X13763344Y-13342058D01*
X13763344Y-13342058D02*
X13744297Y-13332535D01*
X13744297Y-13332535D02*
X13706201Y-13332535D01*
X13706201Y-13332535D02*
X13687154Y-13342058D01*
X13687154Y-13342058D02*
X13677630Y-13351582D01*
X13677630Y-13351582D02*
X13668106Y-13370630D01*
X13858582Y-13256344D02*
X13858582Y-13294439D01*
X13934773Y-13256344D02*
X13934773Y-13294439D01*
X14197630Y-13532535D02*
X14188106Y-13523011D01*
X14188106Y-13523011D02*
X14169059Y-13494439D01*
X14169059Y-13494439D02*
X14159535Y-13475392D01*
X14159535Y-13475392D02*
X14150011Y-13446820D01*
X14150011Y-13446820D02*
X14140487Y-13399201D01*
X14140487Y-13399201D02*
X14140487Y-13361106D01*
X14140487Y-13361106D02*
X14150011Y-13313487D01*
X14150011Y-13313487D02*
X14159535Y-13284916D01*
X14159535Y-13284916D02*
X14169059Y-13265868D01*
X14169059Y-13265868D02*
X14188106Y-13237296D01*
X14188106Y-13237296D02*
X14197630Y-13227773D01*
X14264297Y-13275392D02*
X14273820Y-13265868D01*
X14273820Y-13265868D02*
X14292868Y-13256344D01*
X14292868Y-13256344D02*
X14340487Y-13256344D01*
X14340487Y-13256344D02*
X14359535Y-13265868D01*
X14359535Y-13265868D02*
X14369059Y-13275392D01*
X14369059Y-13275392D02*
X14378582Y-13294439D01*
X14378582Y-13294439D02*
X14378582Y-13313487D01*
X14378582Y-13313487D02*
X14369059Y-13342058D01*
X14369059Y-13342058D02*
X14254773Y-13456344D01*
X14254773Y-13456344D02*
X14378582Y-13456344D01*
X14584297Y-13456344D02*
X14584297Y-13256344D01*
X14670011Y-13456344D02*
X14670011Y-13351582D01*
X14670011Y-13351582D02*
X14660487Y-13332535D01*
X14660487Y-13332535D02*
X14641440Y-13323011D01*
X14641440Y-13323011D02*
X14612868Y-13323011D01*
X14612868Y-13323011D02*
X14593820Y-13332535D01*
X14593820Y-13332535D02*
X14584297Y-13342058D01*
X14793820Y-13456344D02*
X14774773Y-13446820D01*
X14774773Y-13446820D02*
X14765249Y-13437296D01*
X14765249Y-13437296D02*
X14755725Y-13418249D01*
X14755725Y-13418249D02*
X14755725Y-13361106D01*
X14755725Y-13361106D02*
X14765249Y-13342058D01*
X14765249Y-13342058D02*
X14774773Y-13332535D01*
X14774773Y-13332535D02*
X14793820Y-13323011D01*
X14793820Y-13323011D02*
X14822392Y-13323011D01*
X14822392Y-13323011D02*
X14841440Y-13332535D01*
X14841440Y-13332535D02*
X14850963Y-13342058D01*
X14850963Y-13342058D02*
X14860487Y-13361106D01*
X14860487Y-13361106D02*
X14860487Y-13418249D01*
X14860487Y-13418249D02*
X14850963Y-13437296D01*
X14850963Y-13437296D02*
X14841440Y-13446820D01*
X14841440Y-13446820D02*
X14822392Y-13456344D01*
X14822392Y-13456344D02*
X14793820Y-13456344D01*
X14974773Y-13456344D02*
X14955725Y-13446820D01*
X14955725Y-13446820D02*
X14946201Y-13427773D01*
X14946201Y-13427773D02*
X14946201Y-13256344D01*
X15127154Y-13446820D02*
X15108106Y-13456344D01*
X15108106Y-13456344D02*
X15070011Y-13456344D01*
X15070011Y-13456344D02*
X15050963Y-13446820D01*
X15050963Y-13446820D02*
X15041440Y-13427773D01*
X15041440Y-13427773D02*
X15041440Y-13351582D01*
X15041440Y-13351582D02*
X15050963Y-13332535D01*
X15050963Y-13332535D02*
X15070011Y-13323011D01*
X15070011Y-13323011D02*
X15108106Y-13323011D01*
X15108106Y-13323011D02*
X15127154Y-13332535D01*
X15127154Y-13332535D02*
X15136678Y-13351582D01*
X15136678Y-13351582D02*
X15136678Y-13370630D01*
X15136678Y-13370630D02*
X15041440Y-13389677D01*
X15212868Y-13446820D02*
X15231916Y-13456344D01*
X15231916Y-13456344D02*
X15270011Y-13456344D01*
X15270011Y-13456344D02*
X15289059Y-13446820D01*
X15289059Y-13446820D02*
X15298582Y-13427773D01*
X15298582Y-13427773D02*
X15298582Y-13418249D01*
X15298582Y-13418249D02*
X15289059Y-13399201D01*
X15289059Y-13399201D02*
X15270011Y-13389677D01*
X15270011Y-13389677D02*
X15241440Y-13389677D01*
X15241440Y-13389677D02*
X15222392Y-13380154D01*
X15222392Y-13380154D02*
X15212868Y-13361106D01*
X15212868Y-13361106D02*
X15212868Y-13351582D01*
X15212868Y-13351582D02*
X15222392Y-13332535D01*
X15222392Y-13332535D02*
X15241440Y-13323011D01*
X15241440Y-13323011D02*
X15270011Y-13323011D01*
X15270011Y-13323011D02*
X15289059Y-13332535D01*
X15365249Y-13532535D02*
X15374773Y-13523011D01*
X15374773Y-13523011D02*
X15393821Y-13494439D01*
X15393821Y-13494439D02*
X15403344Y-13475392D01*
X15403344Y-13475392D02*
X15412868Y-13446820D01*
X15412868Y-13446820D02*
X15422392Y-13399201D01*
X15422392Y-13399201D02*
X15422392Y-13361106D01*
X15422392Y-13361106D02*
X15412868Y-13313487D01*
X15412868Y-13313487D02*
X15403344Y-13284916D01*
X15403344Y-13284916D02*
X15393821Y-13265868D01*
X15393821Y-13265868D02*
X15374773Y-13237296D01*
X15374773Y-13237296D02*
X15365249Y-13227773D01*
X15694773Y-13532535D02*
X15685249Y-13523011D01*
X15685249Y-13523011D02*
X15666201Y-13494439D01*
X15666201Y-13494439D02*
X15656678Y-13475392D01*
X15656678Y-13475392D02*
X15647154Y-13446820D01*
X15647154Y-13446820D02*
X15637630Y-13399201D01*
X15637630Y-13399201D02*
X15637630Y-13361106D01*
X15637630Y-13361106D02*
X15647154Y-13313487D01*
X15647154Y-13313487D02*
X15656678Y-13284916D01*
X15656678Y-13284916D02*
X15666201Y-13265868D01*
X15666201Y-13265868D02*
X15685249Y-13237296D01*
X15685249Y-13237296D02*
X15694773Y-13227773D01*
X15770963Y-13323011D02*
X15770963Y-13456344D01*
X15770963Y-13342058D02*
X15780487Y-13332535D01*
X15780487Y-13332535D02*
X15799535Y-13323011D01*
X15799535Y-13323011D02*
X15828106Y-13323011D01*
X15828106Y-13323011D02*
X15847154Y-13332535D01*
X15847154Y-13332535D02*
X15856678Y-13351582D01*
X15856678Y-13351582D02*
X15856678Y-13456344D01*
X15980487Y-13456344D02*
X15961440Y-13446820D01*
X15961440Y-13446820D02*
X15951916Y-13437296D01*
X15951916Y-13437296D02*
X15942392Y-13418249D01*
X15942392Y-13418249D02*
X15942392Y-13361106D01*
X15942392Y-13361106D02*
X15951916Y-13342058D01*
X15951916Y-13342058D02*
X15961440Y-13332535D01*
X15961440Y-13332535D02*
X15980487Y-13323011D01*
X15980487Y-13323011D02*
X16009059Y-13323011D01*
X16009059Y-13323011D02*
X16028106Y-13332535D01*
X16028106Y-13332535D02*
X16037630Y-13342058D01*
X16037630Y-13342058D02*
X16047154Y-13361106D01*
X16047154Y-13361106D02*
X16047154Y-13418249D01*
X16047154Y-13418249D02*
X16037630Y-13437296D01*
X16037630Y-13437296D02*
X16028106Y-13446820D01*
X16028106Y-13446820D02*
X16009059Y-13456344D01*
X16009059Y-13456344D02*
X15980487Y-13456344D01*
X16104297Y-13323011D02*
X16180487Y-13323011D01*
X16132868Y-13256344D02*
X16132868Y-13427773D01*
X16132868Y-13427773D02*
X16142392Y-13446820D01*
X16142392Y-13446820D02*
X16161440Y-13456344D01*
X16161440Y-13456344D02*
X16180487Y-13456344D01*
X16367154Y-13323011D02*
X16367154Y-13523011D01*
X16367154Y-13332535D02*
X16386201Y-13323011D01*
X16386201Y-13323011D02*
X16424297Y-13323011D01*
X16424297Y-13323011D02*
X16443344Y-13332535D01*
X16443344Y-13332535D02*
X16452868Y-13342058D01*
X16452868Y-13342058D02*
X16462392Y-13361106D01*
X16462392Y-13361106D02*
X16462392Y-13418249D01*
X16462392Y-13418249D02*
X16452868Y-13437296D01*
X16452868Y-13437296D02*
X16443344Y-13446820D01*
X16443344Y-13446820D02*
X16424297Y-13456344D01*
X16424297Y-13456344D02*
X16386201Y-13456344D01*
X16386201Y-13456344D02*
X16367154Y-13446820D01*
X16576678Y-13456344D02*
X16557630Y-13446820D01*
X16557630Y-13446820D02*
X16548106Y-13427773D01*
X16548106Y-13427773D02*
X16548106Y-13256344D01*
X16738582Y-13456344D02*
X16738582Y-13351582D01*
X16738582Y-13351582D02*
X16729059Y-13332535D01*
X16729059Y-13332535D02*
X16710011Y-13323011D01*
X16710011Y-13323011D02*
X16671916Y-13323011D01*
X16671916Y-13323011D02*
X16652868Y-13332535D01*
X16738582Y-13446820D02*
X16719535Y-13456344D01*
X16719535Y-13456344D02*
X16671916Y-13456344D01*
X16671916Y-13456344D02*
X16652868Y-13446820D01*
X16652868Y-13446820D02*
X16643344Y-13427773D01*
X16643344Y-13427773D02*
X16643344Y-13408725D01*
X16643344Y-13408725D02*
X16652868Y-13389677D01*
X16652868Y-13389677D02*
X16671916Y-13380154D01*
X16671916Y-13380154D02*
X16719535Y-13380154D01*
X16719535Y-13380154D02*
X16738582Y-13370630D01*
X16805249Y-13323011D02*
X16881440Y-13323011D01*
X16833821Y-13256344D02*
X16833821Y-13427773D01*
X16833821Y-13427773D02*
X16843344Y-13446820D01*
X16843344Y-13446820D02*
X16862392Y-13456344D01*
X16862392Y-13456344D02*
X16881440Y-13456344D01*
X17024297Y-13446820D02*
X17005249Y-13456344D01*
X17005249Y-13456344D02*
X16967154Y-13456344D01*
X16967154Y-13456344D02*
X16948106Y-13446820D01*
X16948106Y-13446820D02*
X16938583Y-13427773D01*
X16938583Y-13427773D02*
X16938583Y-13351582D01*
X16938583Y-13351582D02*
X16948106Y-13332535D01*
X16948106Y-13332535D02*
X16967154Y-13323011D01*
X16967154Y-13323011D02*
X17005249Y-13323011D01*
X17005249Y-13323011D02*
X17024297Y-13332535D01*
X17024297Y-13332535D02*
X17033821Y-13351582D01*
X17033821Y-13351582D02*
X17033821Y-13370630D01*
X17033821Y-13370630D02*
X16938583Y-13389677D01*
X17205249Y-13456344D02*
X17205249Y-13256344D01*
X17205249Y-13446820D02*
X17186202Y-13456344D01*
X17186202Y-13456344D02*
X17148106Y-13456344D01*
X17148106Y-13456344D02*
X17129059Y-13446820D01*
X17129059Y-13446820D02*
X17119535Y-13437296D01*
X17119535Y-13437296D02*
X17110011Y-13418249D01*
X17110011Y-13418249D02*
X17110011Y-13361106D01*
X17110011Y-13361106D02*
X17119535Y-13342058D01*
X17119535Y-13342058D02*
X17129059Y-13332535D01*
X17129059Y-13332535D02*
X17148106Y-13323011D01*
X17148106Y-13323011D02*
X17186202Y-13323011D01*
X17186202Y-13323011D02*
X17205249Y-13332535D01*
X17281440Y-13532535D02*
X17290964Y-13523011D01*
X17290964Y-13523011D02*
X17310011Y-13494439D01*
X17310011Y-13494439D02*
X17319535Y-13475392D01*
X17319535Y-13475392D02*
X17329059Y-13446820D01*
X17329059Y-13446820D02*
X17338583Y-13399201D01*
X17338583Y-13399201D02*
X17338583Y-13361106D01*
X17338583Y-13361106D02*
X17329059Y-13313487D01*
X17329059Y-13313487D02*
X17319535Y-13284916D01*
X17319535Y-13284916D02*
X17310011Y-13265868D01*
X17310011Y-13265868D02*
X17290964Y-13237296D01*
X17290964Y-13237296D02*
X17281440Y-13227773D01*
X10732868Y-13646868D02*
G75*
G03*
X10732868Y-13646868I-100000J0D01*
G01*
X10970963Y-13539392D02*
X10980487Y-13529868D01*
X10980487Y-13529868D02*
X10999535Y-13520344D01*
X10999535Y-13520344D02*
X11047154Y-13520344D01*
X11047154Y-13520344D02*
X11066201Y-13529868D01*
X11066201Y-13529868D02*
X11075725Y-13539392D01*
X11075725Y-13539392D02*
X11085249Y-13558439D01*
X11085249Y-13558439D02*
X11085249Y-13577487D01*
X11085249Y-13577487D02*
X11075725Y-13606058D01*
X11075725Y-13606058D02*
X10961439Y-13720344D01*
X10961439Y-13720344D02*
X11085249Y-13720344D01*
X11170963Y-13701296D02*
X11180487Y-13710820D01*
X11180487Y-13710820D02*
X11170963Y-13720344D01*
X11170963Y-13720344D02*
X11161439Y-13710820D01*
X11161439Y-13710820D02*
X11170963Y-13701296D01*
X11170963Y-13701296D02*
X11170963Y-13720344D01*
X11256677Y-13539392D02*
X11266201Y-13529868D01*
X11266201Y-13529868D02*
X11285249Y-13520344D01*
X11285249Y-13520344D02*
X11332868Y-13520344D01*
X11332868Y-13520344D02*
X11351916Y-13529868D01*
X11351916Y-13529868D02*
X11361439Y-13539392D01*
X11361439Y-13539392D02*
X11370963Y-13558439D01*
X11370963Y-13558439D02*
X11370963Y-13577487D01*
X11370963Y-13577487D02*
X11361439Y-13606058D01*
X11361439Y-13606058D02*
X11247154Y-13720344D01*
X11247154Y-13720344D02*
X11370963Y-13720344D01*
X11494773Y-13520344D02*
X11513820Y-13520344D01*
X11513820Y-13520344D02*
X11532868Y-13529868D01*
X11532868Y-13529868D02*
X11542392Y-13539392D01*
X11542392Y-13539392D02*
X11551916Y-13558439D01*
X11551916Y-13558439D02*
X11561439Y-13596535D01*
X11561439Y-13596535D02*
X11561439Y-13644154D01*
X11561439Y-13644154D02*
X11551916Y-13682249D01*
X11551916Y-13682249D02*
X11542392Y-13701296D01*
X11542392Y-13701296D02*
X11532868Y-13710820D01*
X11532868Y-13710820D02*
X11513820Y-13720344D01*
X11513820Y-13720344D02*
X11494773Y-13720344D01*
X11494773Y-13720344D02*
X11475725Y-13710820D01*
X11475725Y-13710820D02*
X11466201Y-13701296D01*
X11466201Y-13701296D02*
X11456677Y-13682249D01*
X11456677Y-13682249D02*
X11447154Y-13644154D01*
X11447154Y-13644154D02*
X11447154Y-13596535D01*
X11447154Y-13596535D02*
X11456677Y-13558439D01*
X11456677Y-13558439D02*
X11466201Y-13539392D01*
X11466201Y-13539392D02*
X11475725Y-13529868D01*
X11475725Y-13529868D02*
X11494773Y-13520344D01*
X11685249Y-13520344D02*
X11704297Y-13520344D01*
X11704297Y-13520344D02*
X11723344Y-13529868D01*
X11723344Y-13529868D02*
X11732868Y-13539392D01*
X11732868Y-13539392D02*
X11742392Y-13558439D01*
X11742392Y-13558439D02*
X11751916Y-13596535D01*
X11751916Y-13596535D02*
X11751916Y-13644154D01*
X11751916Y-13644154D02*
X11742392Y-13682249D01*
X11742392Y-13682249D02*
X11732868Y-13701296D01*
X11732868Y-13701296D02*
X11723344Y-13710820D01*
X11723344Y-13710820D02*
X11704297Y-13720344D01*
X11704297Y-13720344D02*
X11685249Y-13720344D01*
X11685249Y-13720344D02*
X11666201Y-13710820D01*
X11666201Y-13710820D02*
X11656677Y-13701296D01*
X11656677Y-13701296D02*
X11647154Y-13682249D01*
X11647154Y-13682249D02*
X11637630Y-13644154D01*
X11637630Y-13644154D02*
X11637630Y-13596535D01*
X11637630Y-13596535D02*
X11647154Y-13558439D01*
X11647154Y-13558439D02*
X11656677Y-13539392D01*
X11656677Y-13539392D02*
X11666201Y-13529868D01*
X11666201Y-13529868D02*
X11685249Y-13520344D01*
X11837630Y-13720344D02*
X11837630Y-13587011D01*
X11837630Y-13606058D02*
X11847154Y-13596535D01*
X11847154Y-13596535D02*
X11866201Y-13587011D01*
X11866201Y-13587011D02*
X11894773Y-13587011D01*
X11894773Y-13587011D02*
X11913820Y-13596535D01*
X11913820Y-13596535D02*
X11923344Y-13615582D01*
X11923344Y-13615582D02*
X11923344Y-13720344D01*
X11923344Y-13615582D02*
X11932868Y-13596535D01*
X11932868Y-13596535D02*
X11951916Y-13587011D01*
X11951916Y-13587011D02*
X11980487Y-13587011D01*
X11980487Y-13587011D02*
X11999535Y-13596535D01*
X11999535Y-13596535D02*
X12009058Y-13615582D01*
X12009058Y-13615582D02*
X12009058Y-13720344D01*
X12104297Y-13720344D02*
X12104297Y-13587011D01*
X12104297Y-13606058D02*
X12113820Y-13596535D01*
X12113820Y-13596535D02*
X12132868Y-13587011D01*
X12132868Y-13587011D02*
X12161439Y-13587011D01*
X12161439Y-13587011D02*
X12180487Y-13596535D01*
X12180487Y-13596535D02*
X12190011Y-13615582D01*
X12190011Y-13615582D02*
X12190011Y-13720344D01*
X12190011Y-13615582D02*
X12199535Y-13596535D01*
X12199535Y-13596535D02*
X12218582Y-13587011D01*
X12218582Y-13587011D02*
X12247154Y-13587011D01*
X12247154Y-13587011D02*
X12266201Y-13596535D01*
X12266201Y-13596535D02*
X12275725Y-13615582D01*
X12275725Y-13615582D02*
X12275725Y-13720344D01*
X12633820Y-13510820D02*
X12462392Y-13767963D01*
X12858582Y-13520344D02*
X12877630Y-13520344D01*
X12877630Y-13520344D02*
X12896678Y-13529868D01*
X12896678Y-13529868D02*
X12906201Y-13539392D01*
X12906201Y-13539392D02*
X12915725Y-13558439D01*
X12915725Y-13558439D02*
X12925249Y-13596535D01*
X12925249Y-13596535D02*
X12925249Y-13644154D01*
X12925249Y-13644154D02*
X12915725Y-13682249D01*
X12915725Y-13682249D02*
X12906201Y-13701296D01*
X12906201Y-13701296D02*
X12896678Y-13710820D01*
X12896678Y-13710820D02*
X12877630Y-13720344D01*
X12877630Y-13720344D02*
X12858582Y-13720344D01*
X12858582Y-13720344D02*
X12839535Y-13710820D01*
X12839535Y-13710820D02*
X12830011Y-13701296D01*
X12830011Y-13701296D02*
X12820487Y-13682249D01*
X12820487Y-13682249D02*
X12810963Y-13644154D01*
X12810963Y-13644154D02*
X12810963Y-13596535D01*
X12810963Y-13596535D02*
X12820487Y-13558439D01*
X12820487Y-13558439D02*
X12830011Y-13539392D01*
X12830011Y-13539392D02*
X12839535Y-13529868D01*
X12839535Y-13529868D02*
X12858582Y-13520344D01*
X13010963Y-13701296D02*
X13020487Y-13710820D01*
X13020487Y-13710820D02*
X13010963Y-13720344D01*
X13010963Y-13720344D02*
X13001439Y-13710820D01*
X13001439Y-13710820D02*
X13010963Y-13701296D01*
X13010963Y-13701296D02*
X13010963Y-13720344D01*
X13144297Y-13520344D02*
X13163344Y-13520344D01*
X13163344Y-13520344D02*
X13182392Y-13529868D01*
X13182392Y-13529868D02*
X13191916Y-13539392D01*
X13191916Y-13539392D02*
X13201439Y-13558439D01*
X13201439Y-13558439D02*
X13210963Y-13596535D01*
X13210963Y-13596535D02*
X13210963Y-13644154D01*
X13210963Y-13644154D02*
X13201439Y-13682249D01*
X13201439Y-13682249D02*
X13191916Y-13701296D01*
X13191916Y-13701296D02*
X13182392Y-13710820D01*
X13182392Y-13710820D02*
X13163344Y-13720344D01*
X13163344Y-13720344D02*
X13144297Y-13720344D01*
X13144297Y-13720344D02*
X13125249Y-13710820D01*
X13125249Y-13710820D02*
X13115725Y-13701296D01*
X13115725Y-13701296D02*
X13106201Y-13682249D01*
X13106201Y-13682249D02*
X13096678Y-13644154D01*
X13096678Y-13644154D02*
X13096678Y-13596535D01*
X13096678Y-13596535D02*
X13106201Y-13558439D01*
X13106201Y-13558439D02*
X13115725Y-13539392D01*
X13115725Y-13539392D02*
X13125249Y-13529868D01*
X13125249Y-13529868D02*
X13144297Y-13520344D01*
X13325249Y-13606058D02*
X13306201Y-13596535D01*
X13306201Y-13596535D02*
X13296678Y-13587011D01*
X13296678Y-13587011D02*
X13287154Y-13567963D01*
X13287154Y-13567963D02*
X13287154Y-13558439D01*
X13287154Y-13558439D02*
X13296678Y-13539392D01*
X13296678Y-13539392D02*
X13306201Y-13529868D01*
X13306201Y-13529868D02*
X13325249Y-13520344D01*
X13325249Y-13520344D02*
X13363344Y-13520344D01*
X13363344Y-13520344D02*
X13382392Y-13529868D01*
X13382392Y-13529868D02*
X13391916Y-13539392D01*
X13391916Y-13539392D02*
X13401439Y-13558439D01*
X13401439Y-13558439D02*
X13401439Y-13567963D01*
X13401439Y-13567963D02*
X13391916Y-13587011D01*
X13391916Y-13587011D02*
X13382392Y-13596535D01*
X13382392Y-13596535D02*
X13363344Y-13606058D01*
X13363344Y-13606058D02*
X13325249Y-13606058D01*
X13325249Y-13606058D02*
X13306201Y-13615582D01*
X13306201Y-13615582D02*
X13296678Y-13625106D01*
X13296678Y-13625106D02*
X13287154Y-13644154D01*
X13287154Y-13644154D02*
X13287154Y-13682249D01*
X13287154Y-13682249D02*
X13296678Y-13701296D01*
X13296678Y-13701296D02*
X13306201Y-13710820D01*
X13306201Y-13710820D02*
X13325249Y-13720344D01*
X13325249Y-13720344D02*
X13363344Y-13720344D01*
X13363344Y-13720344D02*
X13382392Y-13710820D01*
X13382392Y-13710820D02*
X13391916Y-13701296D01*
X13391916Y-13701296D02*
X13401439Y-13682249D01*
X13401439Y-13682249D02*
X13401439Y-13644154D01*
X13401439Y-13644154D02*
X13391916Y-13625106D01*
X13391916Y-13625106D02*
X13382392Y-13615582D01*
X13382392Y-13615582D02*
X13363344Y-13606058D01*
X13572868Y-13520344D02*
X13534773Y-13520344D01*
X13534773Y-13520344D02*
X13515725Y-13529868D01*
X13515725Y-13529868D02*
X13506201Y-13539392D01*
X13506201Y-13539392D02*
X13487154Y-13567963D01*
X13487154Y-13567963D02*
X13477630Y-13606058D01*
X13477630Y-13606058D02*
X13477630Y-13682249D01*
X13477630Y-13682249D02*
X13487154Y-13701296D01*
X13487154Y-13701296D02*
X13496678Y-13710820D01*
X13496678Y-13710820D02*
X13515725Y-13720344D01*
X13515725Y-13720344D02*
X13553820Y-13720344D01*
X13553820Y-13720344D02*
X13572868Y-13710820D01*
X13572868Y-13710820D02*
X13582392Y-13701296D01*
X13582392Y-13701296D02*
X13591916Y-13682249D01*
X13591916Y-13682249D02*
X13591916Y-13634630D01*
X13591916Y-13634630D02*
X13582392Y-13615582D01*
X13582392Y-13615582D02*
X13572868Y-13606058D01*
X13572868Y-13606058D02*
X13553820Y-13596535D01*
X13553820Y-13596535D02*
X13515725Y-13596535D01*
X13515725Y-13596535D02*
X13496678Y-13606058D01*
X13496678Y-13606058D02*
X13487154Y-13615582D01*
X13487154Y-13615582D02*
X13477630Y-13634630D01*
X13763344Y-13520344D02*
X13725249Y-13520344D01*
X13725249Y-13520344D02*
X13706201Y-13529868D01*
X13706201Y-13529868D02*
X13696678Y-13539392D01*
X13696678Y-13539392D02*
X13677630Y-13567963D01*
X13677630Y-13567963D02*
X13668106Y-13606058D01*
X13668106Y-13606058D02*
X13668106Y-13682249D01*
X13668106Y-13682249D02*
X13677630Y-13701296D01*
X13677630Y-13701296D02*
X13687154Y-13710820D01*
X13687154Y-13710820D02*
X13706201Y-13720344D01*
X13706201Y-13720344D02*
X13744297Y-13720344D01*
X13744297Y-13720344D02*
X13763344Y-13710820D01*
X13763344Y-13710820D02*
X13772868Y-13701296D01*
X13772868Y-13701296D02*
X13782392Y-13682249D01*
X13782392Y-13682249D02*
X13782392Y-13634630D01*
X13782392Y-13634630D02*
X13772868Y-13615582D01*
X13772868Y-13615582D02*
X13763344Y-13606058D01*
X13763344Y-13606058D02*
X13744297Y-13596535D01*
X13744297Y-13596535D02*
X13706201Y-13596535D01*
X13706201Y-13596535D02*
X13687154Y-13606058D01*
X13687154Y-13606058D02*
X13677630Y-13615582D01*
X13677630Y-13615582D02*
X13668106Y-13634630D01*
X13858582Y-13520344D02*
X13858582Y-13558439D01*
X13934773Y-13520344D02*
X13934773Y-13558439D01*
X14197630Y-13796535D02*
X14188106Y-13787011D01*
X14188106Y-13787011D02*
X14169059Y-13758439D01*
X14169059Y-13758439D02*
X14159535Y-13739392D01*
X14159535Y-13739392D02*
X14150011Y-13710820D01*
X14150011Y-13710820D02*
X14140487Y-13663201D01*
X14140487Y-13663201D02*
X14140487Y-13625106D01*
X14140487Y-13625106D02*
X14150011Y-13577487D01*
X14150011Y-13577487D02*
X14159535Y-13548916D01*
X14159535Y-13548916D02*
X14169059Y-13529868D01*
X14169059Y-13529868D02*
X14188106Y-13501296D01*
X14188106Y-13501296D02*
X14197630Y-13491773D01*
X14359535Y-13587011D02*
X14359535Y-13720344D01*
X14311916Y-13510820D02*
X14264297Y-13653677D01*
X14264297Y-13653677D02*
X14388106Y-13653677D01*
X14584297Y-13720344D02*
X14584297Y-13520344D01*
X14670011Y-13720344D02*
X14670011Y-13615582D01*
X14670011Y-13615582D02*
X14660487Y-13596535D01*
X14660487Y-13596535D02*
X14641440Y-13587011D01*
X14641440Y-13587011D02*
X14612868Y-13587011D01*
X14612868Y-13587011D02*
X14593820Y-13596535D01*
X14593820Y-13596535D02*
X14584297Y-13606058D01*
X14793820Y-13720344D02*
X14774773Y-13710820D01*
X14774773Y-13710820D02*
X14765249Y-13701296D01*
X14765249Y-13701296D02*
X14755725Y-13682249D01*
X14755725Y-13682249D02*
X14755725Y-13625106D01*
X14755725Y-13625106D02*
X14765249Y-13606058D01*
X14765249Y-13606058D02*
X14774773Y-13596535D01*
X14774773Y-13596535D02*
X14793820Y-13587011D01*
X14793820Y-13587011D02*
X14822392Y-13587011D01*
X14822392Y-13587011D02*
X14841440Y-13596535D01*
X14841440Y-13596535D02*
X14850963Y-13606058D01*
X14850963Y-13606058D02*
X14860487Y-13625106D01*
X14860487Y-13625106D02*
X14860487Y-13682249D01*
X14860487Y-13682249D02*
X14850963Y-13701296D01*
X14850963Y-13701296D02*
X14841440Y-13710820D01*
X14841440Y-13710820D02*
X14822392Y-13720344D01*
X14822392Y-13720344D02*
X14793820Y-13720344D01*
X14974773Y-13720344D02*
X14955725Y-13710820D01*
X14955725Y-13710820D02*
X14946201Y-13691773D01*
X14946201Y-13691773D02*
X14946201Y-13520344D01*
X15127154Y-13710820D02*
X15108106Y-13720344D01*
X15108106Y-13720344D02*
X15070011Y-13720344D01*
X15070011Y-13720344D02*
X15050963Y-13710820D01*
X15050963Y-13710820D02*
X15041440Y-13691773D01*
X15041440Y-13691773D02*
X15041440Y-13615582D01*
X15041440Y-13615582D02*
X15050963Y-13596535D01*
X15050963Y-13596535D02*
X15070011Y-13587011D01*
X15070011Y-13587011D02*
X15108106Y-13587011D01*
X15108106Y-13587011D02*
X15127154Y-13596535D01*
X15127154Y-13596535D02*
X15136678Y-13615582D01*
X15136678Y-13615582D02*
X15136678Y-13634630D01*
X15136678Y-13634630D02*
X15041440Y-13653677D01*
X15212868Y-13710820D02*
X15231916Y-13720344D01*
X15231916Y-13720344D02*
X15270011Y-13720344D01*
X15270011Y-13720344D02*
X15289059Y-13710820D01*
X15289059Y-13710820D02*
X15298582Y-13691773D01*
X15298582Y-13691773D02*
X15298582Y-13682249D01*
X15298582Y-13682249D02*
X15289059Y-13663201D01*
X15289059Y-13663201D02*
X15270011Y-13653677D01*
X15270011Y-13653677D02*
X15241440Y-13653677D01*
X15241440Y-13653677D02*
X15222392Y-13644154D01*
X15222392Y-13644154D02*
X15212868Y-13625106D01*
X15212868Y-13625106D02*
X15212868Y-13615582D01*
X15212868Y-13615582D02*
X15222392Y-13596535D01*
X15222392Y-13596535D02*
X15241440Y-13587011D01*
X15241440Y-13587011D02*
X15270011Y-13587011D01*
X15270011Y-13587011D02*
X15289059Y-13596535D01*
X15365249Y-13796535D02*
X15374773Y-13787011D01*
X15374773Y-13787011D02*
X15393821Y-13758439D01*
X15393821Y-13758439D02*
X15403344Y-13739392D01*
X15403344Y-13739392D02*
X15412868Y-13710820D01*
X15412868Y-13710820D02*
X15422392Y-13663201D01*
X15422392Y-13663201D02*
X15422392Y-13625106D01*
X15422392Y-13625106D02*
X15412868Y-13577487D01*
X15412868Y-13577487D02*
X15403344Y-13548916D01*
X15403344Y-13548916D02*
X15393821Y-13529868D01*
X15393821Y-13529868D02*
X15374773Y-13501296D01*
X15374773Y-13501296D02*
X15365249Y-13491773D01*
X15694773Y-13796535D02*
X15685249Y-13787011D01*
X15685249Y-13787011D02*
X15666201Y-13758439D01*
X15666201Y-13758439D02*
X15656678Y-13739392D01*
X15656678Y-13739392D02*
X15647154Y-13710820D01*
X15647154Y-13710820D02*
X15637630Y-13663201D01*
X15637630Y-13663201D02*
X15637630Y-13625106D01*
X15637630Y-13625106D02*
X15647154Y-13577487D01*
X15647154Y-13577487D02*
X15656678Y-13548916D01*
X15656678Y-13548916D02*
X15666201Y-13529868D01*
X15666201Y-13529868D02*
X15685249Y-13501296D01*
X15685249Y-13501296D02*
X15694773Y-13491773D01*
X15770963Y-13587011D02*
X15770963Y-13720344D01*
X15770963Y-13606058D02*
X15780487Y-13596535D01*
X15780487Y-13596535D02*
X15799535Y-13587011D01*
X15799535Y-13587011D02*
X15828106Y-13587011D01*
X15828106Y-13587011D02*
X15847154Y-13596535D01*
X15847154Y-13596535D02*
X15856678Y-13615582D01*
X15856678Y-13615582D02*
X15856678Y-13720344D01*
X15980487Y-13720344D02*
X15961440Y-13710820D01*
X15961440Y-13710820D02*
X15951916Y-13701296D01*
X15951916Y-13701296D02*
X15942392Y-13682249D01*
X15942392Y-13682249D02*
X15942392Y-13625106D01*
X15942392Y-13625106D02*
X15951916Y-13606058D01*
X15951916Y-13606058D02*
X15961440Y-13596535D01*
X15961440Y-13596535D02*
X15980487Y-13587011D01*
X15980487Y-13587011D02*
X16009059Y-13587011D01*
X16009059Y-13587011D02*
X16028106Y-13596535D01*
X16028106Y-13596535D02*
X16037630Y-13606058D01*
X16037630Y-13606058D02*
X16047154Y-13625106D01*
X16047154Y-13625106D02*
X16047154Y-13682249D01*
X16047154Y-13682249D02*
X16037630Y-13701296D01*
X16037630Y-13701296D02*
X16028106Y-13710820D01*
X16028106Y-13710820D02*
X16009059Y-13720344D01*
X16009059Y-13720344D02*
X15980487Y-13720344D01*
X16104297Y-13587011D02*
X16180487Y-13587011D01*
X16132868Y-13520344D02*
X16132868Y-13691773D01*
X16132868Y-13691773D02*
X16142392Y-13710820D01*
X16142392Y-13710820D02*
X16161440Y-13720344D01*
X16161440Y-13720344D02*
X16180487Y-13720344D01*
X16367154Y-13587011D02*
X16367154Y-13787011D01*
X16367154Y-13596535D02*
X16386201Y-13587011D01*
X16386201Y-13587011D02*
X16424297Y-13587011D01*
X16424297Y-13587011D02*
X16443344Y-13596535D01*
X16443344Y-13596535D02*
X16452868Y-13606058D01*
X16452868Y-13606058D02*
X16462392Y-13625106D01*
X16462392Y-13625106D02*
X16462392Y-13682249D01*
X16462392Y-13682249D02*
X16452868Y-13701296D01*
X16452868Y-13701296D02*
X16443344Y-13710820D01*
X16443344Y-13710820D02*
X16424297Y-13720344D01*
X16424297Y-13720344D02*
X16386201Y-13720344D01*
X16386201Y-13720344D02*
X16367154Y-13710820D01*
X16576678Y-13720344D02*
X16557630Y-13710820D01*
X16557630Y-13710820D02*
X16548106Y-13691773D01*
X16548106Y-13691773D02*
X16548106Y-13520344D01*
X16738582Y-13720344D02*
X16738582Y-13615582D01*
X16738582Y-13615582D02*
X16729059Y-13596535D01*
X16729059Y-13596535D02*
X16710011Y-13587011D01*
X16710011Y-13587011D02*
X16671916Y-13587011D01*
X16671916Y-13587011D02*
X16652868Y-13596535D01*
X16738582Y-13710820D02*
X16719535Y-13720344D01*
X16719535Y-13720344D02*
X16671916Y-13720344D01*
X16671916Y-13720344D02*
X16652868Y-13710820D01*
X16652868Y-13710820D02*
X16643344Y-13691773D01*
X16643344Y-13691773D02*
X16643344Y-13672725D01*
X16643344Y-13672725D02*
X16652868Y-13653677D01*
X16652868Y-13653677D02*
X16671916Y-13644154D01*
X16671916Y-13644154D02*
X16719535Y-13644154D01*
X16719535Y-13644154D02*
X16738582Y-13634630D01*
X16805249Y-13587011D02*
X16881440Y-13587011D01*
X16833821Y-13520344D02*
X16833821Y-13691773D01*
X16833821Y-13691773D02*
X16843344Y-13710820D01*
X16843344Y-13710820D02*
X16862392Y-13720344D01*
X16862392Y-13720344D02*
X16881440Y-13720344D01*
X17024297Y-13710820D02*
X17005249Y-13720344D01*
X17005249Y-13720344D02*
X16967154Y-13720344D01*
X16967154Y-13720344D02*
X16948106Y-13710820D01*
X16948106Y-13710820D02*
X16938583Y-13691773D01*
X16938583Y-13691773D02*
X16938583Y-13615582D01*
X16938583Y-13615582D02*
X16948106Y-13596535D01*
X16948106Y-13596535D02*
X16967154Y-13587011D01*
X16967154Y-13587011D02*
X17005249Y-13587011D01*
X17005249Y-13587011D02*
X17024297Y-13596535D01*
X17024297Y-13596535D02*
X17033821Y-13615582D01*
X17033821Y-13615582D02*
X17033821Y-13634630D01*
X17033821Y-13634630D02*
X16938583Y-13653677D01*
X17205249Y-13720344D02*
X17205249Y-13520344D01*
X17205249Y-13710820D02*
X17186202Y-13720344D01*
X17186202Y-13720344D02*
X17148106Y-13720344D01*
X17148106Y-13720344D02*
X17129059Y-13710820D01*
X17129059Y-13710820D02*
X17119535Y-13701296D01*
X17119535Y-13701296D02*
X17110011Y-13682249D01*
X17110011Y-13682249D02*
X17110011Y-13625106D01*
X17110011Y-13625106D02*
X17119535Y-13606058D01*
X17119535Y-13606058D02*
X17129059Y-13596535D01*
X17129059Y-13596535D02*
X17148106Y-13587011D01*
X17148106Y-13587011D02*
X17186202Y-13587011D01*
X17186202Y-13587011D02*
X17205249Y-13596535D01*
X17281440Y-13796535D02*
X17290964Y-13787011D01*
X17290964Y-13787011D02*
X17310011Y-13758439D01*
X17310011Y-13758439D02*
X17319535Y-13739392D01*
X17319535Y-13739392D02*
X17329059Y-13710820D01*
X17329059Y-13710820D02*
X17338583Y-13663201D01*
X17338583Y-13663201D02*
X17338583Y-13625106D01*
X17338583Y-13625106D02*
X17329059Y-13577487D01*
X17329059Y-13577487D02*
X17319535Y-13548916D01*
X17319535Y-13548916D02*
X17310011Y-13529868D01*
X17310011Y-13529868D02*
X17290964Y-13501296D01*
X17290964Y-13501296D02*
X17281440Y-13491773D01*
M02*
