%TF.GenerationSoftware,KiCad,Pcbnew,(7.0.0-0)*%
%TF.CreationDate,2023-03-01T12:51:13+00:00*%
%TF.ProjectId,winch-link,77696e63-682d-46c6-996e-6b2e6b696361,rev?*%
%TF.SameCoordinates,Original*%
%TF.FileFunction,Drillmap*%
%TF.FilePolarity,Positive*%
%FSLAX45Y45*%
G04 Gerber Fmt 4.5, Leading zero omitted, Abs format (unit mm)*
G04 Created by KiCad (PCBNEW (7.0.0-0)) date 2023-03-01 12:51:13*
%MOMM*%
%LPD*%
G01*
G04 APERTURE LIST*
%ADD10C,0.100000*%
%ADD11C,0.200000*%
%ADD12C,0.040000*%
%ADD13C,0.045000*%
%ADD14C,0.060000*%
G04 APERTURE END LIST*
D10*
X13987861Y-8919589D02*
G75*
G03*
X14087189Y-8820060I-111J99439D01*
G01*
X10737868Y-8537868D02*
X10737868Y-12437868D01*
X14087835Y-8337049D02*
X14087189Y-8820060D01*
X11037868Y-8237868D02*
X11925073Y-8238324D01*
X12024602Y-8337647D02*
X12026201Y-8819446D01*
X12024606Y-8337647D02*
G75*
G03*
X11925073Y-8238324I-99426J-103D01*
G01*
X18737868Y-8537872D02*
G75*
G03*
X18437864Y-8237872I-299998J2D01*
G01*
X18437868Y-12737868D02*
G75*
G03*
X18737868Y-12437868I2J299998D01*
G01*
X14187871Y-8237064D02*
X18437864Y-8237872D01*
X18737864Y-8537872D02*
X18737868Y-12437868D01*
X11037868Y-8237868D02*
G75*
G03*
X10737868Y-8537868I2J-300002D01*
G01*
X12026201Y-8819446D02*
G75*
G03*
X12125729Y-8918769I99429J106D01*
G01*
X14187871Y-8237065D02*
G75*
G03*
X14087835Y-8337049I-361J-99675D01*
G01*
X10737872Y-12437868D02*
G75*
G03*
X11037868Y-12737868I299998J-2D01*
G01*
X12125729Y-8918769D02*
X13987861Y-8919589D01*
X18437868Y-12737868D02*
X11037868Y-12737868D01*
D11*
D12*
X10830000Y-10955000D02*
X10870000Y-10995000D01*
X10870000Y-10955000D02*
X10830000Y-10995000D01*
X10830000Y-11380000D02*
X10870000Y-11420000D01*
X10870000Y-11380000D02*
X10830000Y-11420000D01*
X10830000Y-11755000D02*
X10870000Y-11795000D01*
X10870000Y-11755000D02*
X10830000Y-11795000D01*
X10855000Y-9230000D02*
X10895000Y-9270000D01*
X10895000Y-9230000D02*
X10855000Y-9270000D01*
X10855000Y-9555000D02*
X10895000Y-9595000D01*
X10895000Y-9555000D02*
X10855000Y-9595000D01*
X10855000Y-9830000D02*
X10895000Y-9870000D01*
X10895000Y-9830000D02*
X10855000Y-9870000D01*
X11055000Y-10630000D02*
X11095000Y-10670000D01*
X11095000Y-10630000D02*
X11055000Y-10670000D01*
X11080000Y-11305000D02*
X11120000Y-11345000D01*
X11120000Y-11305000D02*
X11080000Y-11345000D01*
X11230000Y-10830000D02*
X11270000Y-10870000D01*
X11270000Y-10830000D02*
X11230000Y-10870000D01*
X11280000Y-11430000D02*
X11320000Y-11470000D01*
X11320000Y-11430000D02*
X11280000Y-11470000D01*
X11280000Y-11630000D02*
X11320000Y-11670000D01*
X11320000Y-11630000D02*
X11280000Y-11670000D01*
X11430000Y-10980000D02*
X11470000Y-11020000D01*
X11470000Y-10980000D02*
X11430000Y-11020000D01*
X11605000Y-9455000D02*
X11645000Y-9495000D01*
X11645000Y-9455000D02*
X11605000Y-9495000D01*
X11855000Y-10730000D02*
X11895000Y-10770000D01*
X11895000Y-10730000D02*
X11855000Y-10770000D01*
X11880000Y-9605000D02*
X11920000Y-9645000D01*
X11920000Y-9605000D02*
X11880000Y-9645000D01*
X12005000Y-11305000D02*
X12045000Y-11345000D01*
X12045000Y-11305000D02*
X12005000Y-11345000D01*
X12030000Y-11055000D02*
X12070000Y-11095000D01*
X12070000Y-11055000D02*
X12030000Y-11095000D01*
X12030000Y-12580000D02*
X12070000Y-12620000D01*
X12070000Y-12580000D02*
X12030000Y-12620000D01*
X12055000Y-12380000D02*
X12095000Y-12420000D01*
X12095000Y-12380000D02*
X12055000Y-12420000D01*
X12255000Y-12380000D02*
X12295000Y-12420000D01*
X12295000Y-12380000D02*
X12255000Y-12420000D01*
X12255000Y-12580000D02*
X12295000Y-12620000D01*
X12295000Y-12580000D02*
X12255000Y-12620000D01*
X12330000Y-11055000D02*
X12370000Y-11095000D01*
X12370000Y-11055000D02*
X12330000Y-11095000D01*
X12555000Y-11080000D02*
X12595000Y-11120000D01*
X12595000Y-11080000D02*
X12555000Y-11120000D01*
X12705000Y-11530000D02*
X12745000Y-11570000D01*
X12745000Y-11530000D02*
X12705000Y-11570000D01*
X13055000Y-11130000D02*
X13095000Y-11170000D01*
X13095000Y-11130000D02*
X13055000Y-11170000D01*
X13055000Y-11305000D02*
X13095000Y-11345000D01*
X13095000Y-11305000D02*
X13055000Y-11345000D01*
X13255000Y-10555000D02*
X13295000Y-10595000D01*
X13295000Y-10555000D02*
X13255000Y-10595000D01*
X13380000Y-11105000D02*
X13420000Y-11145000D01*
X13420000Y-11105000D02*
X13380000Y-11145000D01*
X13505000Y-12355000D02*
X13545000Y-12395000D01*
X13545000Y-12355000D02*
X13505000Y-12395000D01*
X13505000Y-12530000D02*
X13545000Y-12570000D01*
X13545000Y-12530000D02*
X13505000Y-12570000D01*
X13630000Y-11680000D02*
X13670000Y-11720000D01*
X13670000Y-11680000D02*
X13630000Y-11720000D01*
X13830000Y-11105000D02*
X13870000Y-11145000D01*
X13870000Y-11105000D02*
X13830000Y-11145000D01*
X13880000Y-12380000D02*
X13920000Y-12420000D01*
X13920000Y-12380000D02*
X13880000Y-12420000D01*
X13880000Y-12555000D02*
X13920000Y-12595000D01*
X13920000Y-12555000D02*
X13880000Y-12595000D01*
X14055000Y-11155000D02*
X14095000Y-11195000D01*
X14095000Y-11155000D02*
X14055000Y-11195000D01*
X14255000Y-10630000D02*
X14295000Y-10670000D01*
X14295000Y-10630000D02*
X14255000Y-10670000D01*
X14255000Y-11130000D02*
X14295000Y-11170000D01*
X14295000Y-11130000D02*
X14255000Y-11170000D01*
X14355000Y-11280000D02*
X14395000Y-11320000D01*
X14395000Y-11280000D02*
X14355000Y-11320000D01*
X14380000Y-11705000D02*
X14420000Y-11745000D01*
X14420000Y-11705000D02*
X14380000Y-11745000D01*
X14530000Y-11480000D02*
X14570000Y-11520000D01*
X14570000Y-11480000D02*
X14530000Y-11520000D01*
X14815001Y-11540968D02*
X14855001Y-11580968D01*
X14855001Y-11540968D02*
X14815001Y-11580968D01*
X14830000Y-12080000D02*
X14870000Y-12120000D01*
X14870000Y-12080000D02*
X14830000Y-12120000D01*
X14880000Y-11830000D02*
X14920000Y-11870000D01*
X14920000Y-11830000D02*
X14880000Y-11870000D01*
X15005000Y-9355000D02*
X15045000Y-9395000D01*
X15045000Y-9355000D02*
X15005000Y-9395000D01*
X15130000Y-11505000D02*
X15170000Y-11545000D01*
X15170000Y-11505000D02*
X15130000Y-11545000D01*
X15230000Y-11230000D02*
X15270000Y-11270000D01*
X15270000Y-11230000D02*
X15230000Y-11270000D01*
X15230000Y-12055000D02*
X15270000Y-12095000D01*
X15270000Y-12055000D02*
X15230000Y-12095000D01*
X15305000Y-11780000D02*
X15345000Y-11820000D01*
X15345000Y-11780000D02*
X15305000Y-11820000D01*
X15380000Y-9430000D02*
X15420000Y-9470000D01*
X15420000Y-9430000D02*
X15380000Y-9470000D01*
X15517500Y-11567500D02*
X15557500Y-11607500D01*
X15557500Y-11567500D02*
X15517500Y-11607500D01*
X15530000Y-9605000D02*
X15570000Y-9645000D01*
X15570000Y-9605000D02*
X15530000Y-9645000D01*
X15530000Y-11905000D02*
X15570000Y-11945000D01*
X15570000Y-11905000D02*
X15530000Y-11945000D01*
X15605000Y-9430000D02*
X15645000Y-9470000D01*
X15645000Y-9430000D02*
X15605000Y-9470000D01*
X15805000Y-9430000D02*
X15845000Y-9470000D01*
X15845000Y-9430000D02*
X15805000Y-9470000D01*
X15805000Y-9705000D02*
X15845000Y-9745000D01*
X15845000Y-9705000D02*
X15805000Y-9745000D01*
X15805000Y-9905000D02*
X15845000Y-9945000D01*
X15845000Y-9905000D02*
X15805000Y-9945000D01*
X16105000Y-9430000D02*
X16145000Y-9470000D01*
X16145000Y-9430000D02*
X16105000Y-9470000D01*
X16105000Y-9680000D02*
X16145000Y-9720000D01*
X16145000Y-9680000D02*
X16105000Y-9720000D01*
X16105000Y-9905000D02*
X16145000Y-9945000D01*
X16145000Y-9905000D02*
X16105000Y-9945000D01*
D13*
X11697500Y-11353552D02*
G75*
G03*
X11697500Y-11353552I-22500J0D01*
G01*
X11724931Y-10872569D02*
G75*
G03*
X11724931Y-10872569I-22500J0D01*
G01*
X11735368Y-11837868D02*
G75*
G03*
X11735368Y-11837868I-22500J0D01*
G01*
X11760368Y-11987868D02*
G75*
G03*
X11760368Y-11987868I-22500J0D01*
G01*
X12185368Y-11762868D02*
G75*
G03*
X12185368Y-11762868I-22500J0D01*
G01*
X12308368Y-11637868D02*
G75*
G03*
X12308368Y-11637868I-22500J0D01*
G01*
X12410368Y-9287868D02*
G75*
G03*
X12410368Y-9287868I-22500J0D01*
G01*
X12747500Y-11375000D02*
G75*
G03*
X12747500Y-11375000I-22500J0D01*
G01*
X13010368Y-10387868D02*
G75*
G03*
X13010368Y-10387868I-22500J0D01*
G01*
X13310368Y-10387868D02*
G75*
G03*
X13310368Y-10387868I-22500J0D01*
G01*
X13434830Y-10263406D02*
G75*
G03*
X13434830Y-10263406I-22500J0D01*
G01*
X13510368Y-9337868D02*
G75*
G03*
X13510368Y-9337868I-22500J0D01*
G01*
X13510368Y-10587868D02*
G75*
G03*
X13510368Y-10587868I-22500J0D01*
G01*
X13660368Y-10037868D02*
G75*
G03*
X13660368Y-10037868I-22500J0D01*
G01*
X13660368Y-10187868D02*
G75*
G03*
X13660368Y-10187868I-22500J0D01*
G01*
X13760368Y-9687868D02*
G75*
G03*
X13760368Y-9687868I-22500J0D01*
G01*
X13760368Y-10437868D02*
G75*
G03*
X13760368Y-10437868I-22500J0D01*
G01*
X13810368Y-9187868D02*
G75*
G03*
X13810368Y-9187868I-22500J0D01*
G01*
X13860368Y-10975000D02*
G75*
G03*
X13860368Y-10975000I-22500J0D01*
G01*
X14110368Y-10687868D02*
G75*
G03*
X14110368Y-10687868I-22500J0D01*
G01*
X14210368Y-10487918D02*
G75*
G03*
X14210368Y-10487918I-22500J0D01*
G01*
X14460368Y-10107818D02*
G75*
G03*
X14460368Y-10107818I-22500J0D01*
G01*
X14460368Y-10487868D02*
G75*
G03*
X14460368Y-10487868I-22500J0D01*
G01*
X14610368Y-9337868D02*
G75*
G03*
X14610368Y-9337868I-22500J0D01*
G01*
X14660368Y-9887868D02*
G75*
G03*
X14660368Y-9887868I-22500J0D01*
G01*
X14660368Y-10387868D02*
G75*
G03*
X14660368Y-10387868I-22500J0D01*
G01*
X14660368Y-11237868D02*
G75*
G03*
X14660368Y-11237868I-22500J0D01*
G01*
X14660368Y-11362868D02*
G75*
G03*
X14660368Y-11362868I-22500J0D01*
G01*
X14860368Y-9687868D02*
G75*
G03*
X14860368Y-9687868I-22500J0D01*
G01*
X15060368Y-10400000D02*
G75*
G03*
X15060368Y-10400000I-22500J0D01*
G01*
X15260368Y-10575000D02*
G75*
G03*
X15260368Y-10575000I-22500J0D01*
G01*
X15460368Y-10487868D02*
G75*
G03*
X15460368Y-10487868I-22500J0D01*
G01*
X15760368Y-10987868D02*
G75*
G03*
X15760368Y-10987868I-22500J0D01*
G01*
X12803212Y-9926586D02*
X12803212Y-9971586D01*
X12780712Y-9949086D02*
X12825712Y-9949086D01*
X12807040Y-9666145D02*
X12807040Y-9711145D01*
X12784540Y-9688645D02*
X12829540Y-9688645D01*
X12925000Y-9798500D02*
X12925000Y-9843500D01*
X12902500Y-9821000D02*
X12947500Y-9821000D01*
X13047167Y-9925316D02*
X13047167Y-9970316D01*
X13024667Y-9947816D02*
X13069667Y-9947816D01*
X13049709Y-9668654D02*
X13049709Y-9713654D01*
X13027209Y-9691154D02*
X13072209Y-9691154D01*
D14*
X11049581Y-11187765D02*
X11049581Y-11145338D01*
X11007155Y-11145338D01*
X11007155Y-11187765D01*
X11049581Y-11187765D01*
D11*
X11058368Y-11136552D02*
X10998368Y-11136552D01*
X10998368Y-11136552D02*
G75*
G03*
X10998368Y-11196552I0J-30000D01*
G01*
X10998368Y-11196552D02*
X11058368Y-11196552D01*
X11058368Y-11196552D02*
G75*
G03*
X11058368Y-11136552I0J30000D01*
G01*
D14*
X11049581Y-12051765D02*
X11049581Y-12009338D01*
X11007155Y-12009338D01*
X11007155Y-12051765D01*
X11049581Y-12051765D01*
D11*
X11058368Y-12000552D02*
X10998368Y-12000552D01*
X10998368Y-12000552D02*
G75*
G03*
X10998368Y-12060552I0J-30000D01*
G01*
X10998368Y-12060552D02*
X11058368Y-12060552D01*
X11058368Y-12060552D02*
G75*
G03*
X11058368Y-12000552I0J30000D01*
G01*
D14*
X11467581Y-11187765D02*
X11467581Y-11145338D01*
X11425155Y-11145338D01*
X11425155Y-11187765D01*
X11467581Y-11187765D01*
D11*
X11501368Y-11136552D02*
X11391368Y-11136552D01*
X11391368Y-11136552D02*
G75*
G03*
X11391368Y-11196552I0J-30000D01*
G01*
X11391368Y-11196552D02*
X11501368Y-11196552D01*
X11501368Y-11196552D02*
G75*
G03*
X11501368Y-11136552I0J30000D01*
G01*
D14*
X11467581Y-12051765D02*
X11467581Y-12009338D01*
X11425155Y-12009338D01*
X11425155Y-12051765D01*
X11467581Y-12051765D01*
D11*
X11501368Y-12000552D02*
X11391368Y-12000552D01*
X11391368Y-12000552D02*
G75*
G03*
X11391368Y-12060552I0J-30000D01*
G01*
X11391368Y-12060552D02*
X11501368Y-12060552D01*
X11501368Y-12060552D02*
G75*
G03*
X11501368Y-12000552I0J30000D01*
G01*
D10*
X11087868Y-10337868D02*
X11137868Y-10287868D01*
X11087868Y-10237868D01*
X11037868Y-10287868D01*
X11087868Y-10337868D01*
X11151429Y-9235368D02*
X11201428Y-9185368D01*
X11151429Y-9135368D01*
X11101429Y-9185368D01*
X11151429Y-9235368D01*
X11405428Y-9235368D02*
X11455428Y-9185368D01*
X11405428Y-9135368D01*
X11355428Y-9185368D01*
X11405428Y-9235368D01*
X11947368Y-12113605D02*
X11997368Y-12063605D01*
X11947368Y-12013605D01*
X11897368Y-12063605D01*
X11947368Y-12113605D01*
X12201368Y-12113605D02*
X12251368Y-12063605D01*
X12201368Y-12013605D01*
X12151368Y-12063605D01*
X12201368Y-12113605D01*
X12455368Y-12113605D02*
X12505368Y-12063605D01*
X12455368Y-12013605D01*
X12405368Y-12063605D01*
X12455368Y-12113605D01*
X12709368Y-12113605D02*
X12759368Y-12063605D01*
X12709368Y-12013605D01*
X12659368Y-12063605D01*
X12709368Y-12113605D01*
X12963368Y-12113605D02*
X13013368Y-12063605D01*
X12963368Y-12013605D01*
X12913368Y-12063605D01*
X12963368Y-12113605D01*
X13217368Y-12113605D02*
X13267368Y-12063605D01*
X13217368Y-12013605D01*
X13167368Y-12063605D01*
X13217368Y-12113605D01*
X13471368Y-12113605D02*
X13521368Y-12063605D01*
X13471368Y-12013605D01*
X13421368Y-12063605D01*
X13471368Y-12113605D01*
X13725368Y-12113605D02*
X13775368Y-12063605D01*
X13725368Y-12013605D01*
X13675368Y-12063605D01*
X13725368Y-12113605D01*
X14205071Y-12121692D02*
X14255071Y-12071692D01*
X14205071Y-12021692D01*
X14155071Y-12071692D01*
X14205071Y-12121692D01*
X14459071Y-12121692D02*
X14509071Y-12071692D01*
X14459071Y-12021692D01*
X14409071Y-12071692D01*
X14459071Y-12121692D01*
X16287868Y-10337868D02*
X16337868Y-10287868D01*
X16287868Y-10237868D01*
X16237868Y-10287868D01*
X16287868Y-10337868D01*
D11*
X10980487Y-13036344D02*
X10980487Y-12836344D01*
X10980487Y-12836344D02*
X11028106Y-12836344D01*
X11028106Y-12836344D02*
X11056678Y-12845868D01*
X11056678Y-12845868D02*
X11075725Y-12864916D01*
X11075725Y-12864916D02*
X11085249Y-12883963D01*
X11085249Y-12883963D02*
X11094773Y-12922058D01*
X11094773Y-12922058D02*
X11094773Y-12950630D01*
X11094773Y-12950630D02*
X11085249Y-12988725D01*
X11085249Y-12988725D02*
X11075725Y-13007773D01*
X11075725Y-13007773D02*
X11056678Y-13026820D01*
X11056678Y-13026820D02*
X11028106Y-13036344D01*
X11028106Y-13036344D02*
X10980487Y-13036344D01*
X11180487Y-13036344D02*
X11180487Y-12903011D01*
X11180487Y-12941106D02*
X11190011Y-12922058D01*
X11190011Y-12922058D02*
X11199535Y-12912535D01*
X11199535Y-12912535D02*
X11218582Y-12903011D01*
X11218582Y-12903011D02*
X11237630Y-12903011D01*
X11304296Y-13036344D02*
X11304296Y-12903011D01*
X11304296Y-12836344D02*
X11294773Y-12845868D01*
X11294773Y-12845868D02*
X11304296Y-12855392D01*
X11304296Y-12855392D02*
X11313820Y-12845868D01*
X11313820Y-12845868D02*
X11304296Y-12836344D01*
X11304296Y-12836344D02*
X11304296Y-12855392D01*
X11428106Y-13036344D02*
X11409058Y-13026820D01*
X11409058Y-13026820D02*
X11399535Y-13007773D01*
X11399535Y-13007773D02*
X11399535Y-12836344D01*
X11532868Y-13036344D02*
X11513820Y-13026820D01*
X11513820Y-13026820D02*
X11504296Y-13007773D01*
X11504296Y-13007773D02*
X11504296Y-12836344D01*
X11729058Y-13036344D02*
X11729058Y-12836344D01*
X11729058Y-12836344D02*
X11795725Y-12979201D01*
X11795725Y-12979201D02*
X11862392Y-12836344D01*
X11862392Y-12836344D02*
X11862392Y-13036344D01*
X12043344Y-13036344D02*
X12043344Y-12931582D01*
X12043344Y-12931582D02*
X12033820Y-12912535D01*
X12033820Y-12912535D02*
X12014773Y-12903011D01*
X12014773Y-12903011D02*
X11976677Y-12903011D01*
X11976677Y-12903011D02*
X11957630Y-12912535D01*
X12043344Y-13026820D02*
X12024296Y-13036344D01*
X12024296Y-13036344D02*
X11976677Y-13036344D01*
X11976677Y-13036344D02*
X11957630Y-13026820D01*
X11957630Y-13026820D02*
X11948106Y-13007773D01*
X11948106Y-13007773D02*
X11948106Y-12988725D01*
X11948106Y-12988725D02*
X11957630Y-12969677D01*
X11957630Y-12969677D02*
X11976677Y-12960154D01*
X11976677Y-12960154D02*
X12024296Y-12960154D01*
X12024296Y-12960154D02*
X12043344Y-12950630D01*
X12138582Y-12903011D02*
X12138582Y-13103011D01*
X12138582Y-12912535D02*
X12157630Y-12903011D01*
X12157630Y-12903011D02*
X12195725Y-12903011D01*
X12195725Y-12903011D02*
X12214773Y-12912535D01*
X12214773Y-12912535D02*
X12224296Y-12922058D01*
X12224296Y-12922058D02*
X12233820Y-12941106D01*
X12233820Y-12941106D02*
X12233820Y-12998249D01*
X12233820Y-12998249D02*
X12224296Y-13017296D01*
X12224296Y-13017296D02*
X12214773Y-13026820D01*
X12214773Y-13026820D02*
X12195725Y-13036344D01*
X12195725Y-13036344D02*
X12157630Y-13036344D01*
X12157630Y-13036344D02*
X12138582Y-13026820D01*
X12319535Y-13017296D02*
X12329058Y-13026820D01*
X12329058Y-13026820D02*
X12319535Y-13036344D01*
X12319535Y-13036344D02*
X12310011Y-13026820D01*
X12310011Y-13026820D02*
X12319535Y-13017296D01*
X12319535Y-13017296D02*
X12319535Y-13036344D01*
X12319535Y-12912535D02*
X12329058Y-12922058D01*
X12329058Y-12922058D02*
X12319535Y-12931582D01*
X12319535Y-12931582D02*
X12310011Y-12922058D01*
X12310011Y-12922058D02*
X12319535Y-12912535D01*
X12319535Y-12912535D02*
X12319535Y-12931582D01*
D12*
X10692868Y-13362868D02*
X10732868Y-13402868D01*
X10732868Y-13362868D02*
X10692868Y-13402868D01*
D11*
X11018582Y-13256344D02*
X11037630Y-13256344D01*
X11037630Y-13256344D02*
X11056678Y-13265868D01*
X11056678Y-13265868D02*
X11066201Y-13275392D01*
X11066201Y-13275392D02*
X11075725Y-13294439D01*
X11075725Y-13294439D02*
X11085249Y-13332535D01*
X11085249Y-13332535D02*
X11085249Y-13380154D01*
X11085249Y-13380154D02*
X11075725Y-13418249D01*
X11075725Y-13418249D02*
X11066201Y-13437296D01*
X11066201Y-13437296D02*
X11056678Y-13446820D01*
X11056678Y-13446820D02*
X11037630Y-13456344D01*
X11037630Y-13456344D02*
X11018582Y-13456344D01*
X11018582Y-13456344D02*
X10999535Y-13446820D01*
X10999535Y-13446820D02*
X10990011Y-13437296D01*
X10990011Y-13437296D02*
X10980487Y-13418249D01*
X10980487Y-13418249D02*
X10970963Y-13380154D01*
X10970963Y-13380154D02*
X10970963Y-13332535D01*
X10970963Y-13332535D02*
X10980487Y-13294439D01*
X10980487Y-13294439D02*
X10990011Y-13275392D01*
X10990011Y-13275392D02*
X10999535Y-13265868D01*
X10999535Y-13265868D02*
X11018582Y-13256344D01*
X11170963Y-13437296D02*
X11180487Y-13446820D01*
X11180487Y-13446820D02*
X11170963Y-13456344D01*
X11170963Y-13456344D02*
X11161439Y-13446820D01*
X11161439Y-13446820D02*
X11170963Y-13437296D01*
X11170963Y-13437296D02*
X11170963Y-13456344D01*
X11351916Y-13323011D02*
X11351916Y-13456344D01*
X11304296Y-13246820D02*
X11256677Y-13389677D01*
X11256677Y-13389677D02*
X11380487Y-13389677D01*
X11494773Y-13256344D02*
X11513820Y-13256344D01*
X11513820Y-13256344D02*
X11532868Y-13265868D01*
X11532868Y-13265868D02*
X11542392Y-13275392D01*
X11542392Y-13275392D02*
X11551916Y-13294439D01*
X11551916Y-13294439D02*
X11561439Y-13332535D01*
X11561439Y-13332535D02*
X11561439Y-13380154D01*
X11561439Y-13380154D02*
X11551916Y-13418249D01*
X11551916Y-13418249D02*
X11542392Y-13437296D01*
X11542392Y-13437296D02*
X11532868Y-13446820D01*
X11532868Y-13446820D02*
X11513820Y-13456344D01*
X11513820Y-13456344D02*
X11494773Y-13456344D01*
X11494773Y-13456344D02*
X11475725Y-13446820D01*
X11475725Y-13446820D02*
X11466201Y-13437296D01*
X11466201Y-13437296D02*
X11456677Y-13418249D01*
X11456677Y-13418249D02*
X11447154Y-13380154D01*
X11447154Y-13380154D02*
X11447154Y-13332535D01*
X11447154Y-13332535D02*
X11456677Y-13294439D01*
X11456677Y-13294439D02*
X11466201Y-13275392D01*
X11466201Y-13275392D02*
X11475725Y-13265868D01*
X11475725Y-13265868D02*
X11494773Y-13256344D01*
X11685249Y-13256344D02*
X11704297Y-13256344D01*
X11704297Y-13256344D02*
X11723344Y-13265868D01*
X11723344Y-13265868D02*
X11732868Y-13275392D01*
X11732868Y-13275392D02*
X11742392Y-13294439D01*
X11742392Y-13294439D02*
X11751916Y-13332535D01*
X11751916Y-13332535D02*
X11751916Y-13380154D01*
X11751916Y-13380154D02*
X11742392Y-13418249D01*
X11742392Y-13418249D02*
X11732868Y-13437296D01*
X11732868Y-13437296D02*
X11723344Y-13446820D01*
X11723344Y-13446820D02*
X11704297Y-13456344D01*
X11704297Y-13456344D02*
X11685249Y-13456344D01*
X11685249Y-13456344D02*
X11666201Y-13446820D01*
X11666201Y-13446820D02*
X11656677Y-13437296D01*
X11656677Y-13437296D02*
X11647154Y-13418249D01*
X11647154Y-13418249D02*
X11637630Y-13380154D01*
X11637630Y-13380154D02*
X11637630Y-13332535D01*
X11637630Y-13332535D02*
X11647154Y-13294439D01*
X11647154Y-13294439D02*
X11656677Y-13275392D01*
X11656677Y-13275392D02*
X11666201Y-13265868D01*
X11666201Y-13265868D02*
X11685249Y-13256344D01*
X11837630Y-13456344D02*
X11837630Y-13323011D01*
X11837630Y-13342058D02*
X11847154Y-13332535D01*
X11847154Y-13332535D02*
X11866201Y-13323011D01*
X11866201Y-13323011D02*
X11894773Y-13323011D01*
X11894773Y-13323011D02*
X11913820Y-13332535D01*
X11913820Y-13332535D02*
X11923344Y-13351582D01*
X11923344Y-13351582D02*
X11923344Y-13456344D01*
X11923344Y-13351582D02*
X11932868Y-13332535D01*
X11932868Y-13332535D02*
X11951916Y-13323011D01*
X11951916Y-13323011D02*
X11980487Y-13323011D01*
X11980487Y-13323011D02*
X11999535Y-13332535D01*
X11999535Y-13332535D02*
X12009058Y-13351582D01*
X12009058Y-13351582D02*
X12009058Y-13456344D01*
X12104297Y-13456344D02*
X12104297Y-13323011D01*
X12104297Y-13342058D02*
X12113820Y-13332535D01*
X12113820Y-13332535D02*
X12132868Y-13323011D01*
X12132868Y-13323011D02*
X12161439Y-13323011D01*
X12161439Y-13323011D02*
X12180487Y-13332535D01*
X12180487Y-13332535D02*
X12190011Y-13351582D01*
X12190011Y-13351582D02*
X12190011Y-13456344D01*
X12190011Y-13351582D02*
X12199535Y-13332535D01*
X12199535Y-13332535D02*
X12218582Y-13323011D01*
X12218582Y-13323011D02*
X12247154Y-13323011D01*
X12247154Y-13323011D02*
X12266201Y-13332535D01*
X12266201Y-13332535D02*
X12275725Y-13351582D01*
X12275725Y-13351582D02*
X12275725Y-13456344D01*
X12633820Y-13246820D02*
X12462392Y-13503963D01*
X12858582Y-13256344D02*
X12877630Y-13256344D01*
X12877630Y-13256344D02*
X12896678Y-13265868D01*
X12896678Y-13265868D02*
X12906201Y-13275392D01*
X12906201Y-13275392D02*
X12915725Y-13294439D01*
X12915725Y-13294439D02*
X12925249Y-13332535D01*
X12925249Y-13332535D02*
X12925249Y-13380154D01*
X12925249Y-13380154D02*
X12915725Y-13418249D01*
X12915725Y-13418249D02*
X12906201Y-13437296D01*
X12906201Y-13437296D02*
X12896678Y-13446820D01*
X12896678Y-13446820D02*
X12877630Y-13456344D01*
X12877630Y-13456344D02*
X12858582Y-13456344D01*
X12858582Y-13456344D02*
X12839535Y-13446820D01*
X12839535Y-13446820D02*
X12830011Y-13437296D01*
X12830011Y-13437296D02*
X12820487Y-13418249D01*
X12820487Y-13418249D02*
X12810963Y-13380154D01*
X12810963Y-13380154D02*
X12810963Y-13332535D01*
X12810963Y-13332535D02*
X12820487Y-13294439D01*
X12820487Y-13294439D02*
X12830011Y-13275392D01*
X12830011Y-13275392D02*
X12839535Y-13265868D01*
X12839535Y-13265868D02*
X12858582Y-13256344D01*
X13010963Y-13437296D02*
X13020487Y-13446820D01*
X13020487Y-13446820D02*
X13010963Y-13456344D01*
X13010963Y-13456344D02*
X13001439Y-13446820D01*
X13001439Y-13446820D02*
X13010963Y-13437296D01*
X13010963Y-13437296D02*
X13010963Y-13456344D01*
X13144297Y-13256344D02*
X13163344Y-13256344D01*
X13163344Y-13256344D02*
X13182392Y-13265868D01*
X13182392Y-13265868D02*
X13191916Y-13275392D01*
X13191916Y-13275392D02*
X13201439Y-13294439D01*
X13201439Y-13294439D02*
X13210963Y-13332535D01*
X13210963Y-13332535D02*
X13210963Y-13380154D01*
X13210963Y-13380154D02*
X13201439Y-13418249D01*
X13201439Y-13418249D02*
X13191916Y-13437296D01*
X13191916Y-13437296D02*
X13182392Y-13446820D01*
X13182392Y-13446820D02*
X13163344Y-13456344D01*
X13163344Y-13456344D02*
X13144297Y-13456344D01*
X13144297Y-13456344D02*
X13125249Y-13446820D01*
X13125249Y-13446820D02*
X13115725Y-13437296D01*
X13115725Y-13437296D02*
X13106201Y-13418249D01*
X13106201Y-13418249D02*
X13096678Y-13380154D01*
X13096678Y-13380154D02*
X13096678Y-13332535D01*
X13096678Y-13332535D02*
X13106201Y-13294439D01*
X13106201Y-13294439D02*
X13115725Y-13275392D01*
X13115725Y-13275392D02*
X13125249Y-13265868D01*
X13125249Y-13265868D02*
X13144297Y-13256344D01*
X13401439Y-13456344D02*
X13287154Y-13456344D01*
X13344297Y-13456344D02*
X13344297Y-13256344D01*
X13344297Y-13256344D02*
X13325249Y-13284916D01*
X13325249Y-13284916D02*
X13306201Y-13303963D01*
X13306201Y-13303963D02*
X13287154Y-13313487D01*
X13582392Y-13256344D02*
X13487154Y-13256344D01*
X13487154Y-13256344D02*
X13477630Y-13351582D01*
X13477630Y-13351582D02*
X13487154Y-13342058D01*
X13487154Y-13342058D02*
X13506201Y-13332535D01*
X13506201Y-13332535D02*
X13553820Y-13332535D01*
X13553820Y-13332535D02*
X13572868Y-13342058D01*
X13572868Y-13342058D02*
X13582392Y-13351582D01*
X13582392Y-13351582D02*
X13591916Y-13370630D01*
X13591916Y-13370630D02*
X13591916Y-13418249D01*
X13591916Y-13418249D02*
X13582392Y-13437296D01*
X13582392Y-13437296D02*
X13572868Y-13446820D01*
X13572868Y-13446820D02*
X13553820Y-13456344D01*
X13553820Y-13456344D02*
X13506201Y-13456344D01*
X13506201Y-13456344D02*
X13487154Y-13446820D01*
X13487154Y-13446820D02*
X13477630Y-13437296D01*
X13658582Y-13256344D02*
X13791916Y-13256344D01*
X13791916Y-13256344D02*
X13706201Y-13456344D01*
X13858582Y-13256344D02*
X13858582Y-13294439D01*
X13934773Y-13256344D02*
X13934773Y-13294439D01*
X14197630Y-13532535D02*
X14188106Y-13523011D01*
X14188106Y-13523011D02*
X14169059Y-13494439D01*
X14169059Y-13494439D02*
X14159535Y-13475392D01*
X14159535Y-13475392D02*
X14150011Y-13446820D01*
X14150011Y-13446820D02*
X14140487Y-13399201D01*
X14140487Y-13399201D02*
X14140487Y-13361106D01*
X14140487Y-13361106D02*
X14150011Y-13313487D01*
X14150011Y-13313487D02*
X14159535Y-13284916D01*
X14159535Y-13284916D02*
X14169059Y-13265868D01*
X14169059Y-13265868D02*
X14188106Y-13237296D01*
X14188106Y-13237296D02*
X14197630Y-13227773D01*
X14369059Y-13256344D02*
X14273820Y-13256344D01*
X14273820Y-13256344D02*
X14264297Y-13351582D01*
X14264297Y-13351582D02*
X14273820Y-13342058D01*
X14273820Y-13342058D02*
X14292868Y-13332535D01*
X14292868Y-13332535D02*
X14340487Y-13332535D01*
X14340487Y-13332535D02*
X14359535Y-13342058D01*
X14359535Y-13342058D02*
X14369059Y-13351582D01*
X14369059Y-13351582D02*
X14378582Y-13370630D01*
X14378582Y-13370630D02*
X14378582Y-13418249D01*
X14378582Y-13418249D02*
X14369059Y-13437296D01*
X14369059Y-13437296D02*
X14359535Y-13446820D01*
X14359535Y-13446820D02*
X14340487Y-13456344D01*
X14340487Y-13456344D02*
X14292868Y-13456344D01*
X14292868Y-13456344D02*
X14273820Y-13446820D01*
X14273820Y-13446820D02*
X14264297Y-13437296D01*
X14473820Y-13456344D02*
X14511916Y-13456344D01*
X14511916Y-13456344D02*
X14530963Y-13446820D01*
X14530963Y-13446820D02*
X14540487Y-13437296D01*
X14540487Y-13437296D02*
X14559535Y-13408725D01*
X14559535Y-13408725D02*
X14569059Y-13370630D01*
X14569059Y-13370630D02*
X14569059Y-13294439D01*
X14569059Y-13294439D02*
X14559535Y-13275392D01*
X14559535Y-13275392D02*
X14550011Y-13265868D01*
X14550011Y-13265868D02*
X14530963Y-13256344D01*
X14530963Y-13256344D02*
X14492868Y-13256344D01*
X14492868Y-13256344D02*
X14473820Y-13265868D01*
X14473820Y-13265868D02*
X14464297Y-13275392D01*
X14464297Y-13275392D02*
X14454773Y-13294439D01*
X14454773Y-13294439D02*
X14454773Y-13342058D01*
X14454773Y-13342058D02*
X14464297Y-13361106D01*
X14464297Y-13361106D02*
X14473820Y-13370630D01*
X14473820Y-13370630D02*
X14492868Y-13380154D01*
X14492868Y-13380154D02*
X14530963Y-13380154D01*
X14530963Y-13380154D02*
X14550011Y-13370630D01*
X14550011Y-13370630D02*
X14559535Y-13361106D01*
X14559535Y-13361106D02*
X14569059Y-13342058D01*
X14774773Y-13456344D02*
X14774773Y-13256344D01*
X14860487Y-13456344D02*
X14860487Y-13351582D01*
X14860487Y-13351582D02*
X14850963Y-13332535D01*
X14850963Y-13332535D02*
X14831916Y-13323011D01*
X14831916Y-13323011D02*
X14803344Y-13323011D01*
X14803344Y-13323011D02*
X14784297Y-13332535D01*
X14784297Y-13332535D02*
X14774773Y-13342058D01*
X14984297Y-13456344D02*
X14965249Y-13446820D01*
X14965249Y-13446820D02*
X14955725Y-13437296D01*
X14955725Y-13437296D02*
X14946201Y-13418249D01*
X14946201Y-13418249D02*
X14946201Y-13361106D01*
X14946201Y-13361106D02*
X14955725Y-13342058D01*
X14955725Y-13342058D02*
X14965249Y-13332535D01*
X14965249Y-13332535D02*
X14984297Y-13323011D01*
X14984297Y-13323011D02*
X15012868Y-13323011D01*
X15012868Y-13323011D02*
X15031916Y-13332535D01*
X15031916Y-13332535D02*
X15041440Y-13342058D01*
X15041440Y-13342058D02*
X15050963Y-13361106D01*
X15050963Y-13361106D02*
X15050963Y-13418249D01*
X15050963Y-13418249D02*
X15041440Y-13437296D01*
X15041440Y-13437296D02*
X15031916Y-13446820D01*
X15031916Y-13446820D02*
X15012868Y-13456344D01*
X15012868Y-13456344D02*
X14984297Y-13456344D01*
X15165249Y-13456344D02*
X15146201Y-13446820D01*
X15146201Y-13446820D02*
X15136678Y-13427773D01*
X15136678Y-13427773D02*
X15136678Y-13256344D01*
X15317630Y-13446820D02*
X15298582Y-13456344D01*
X15298582Y-13456344D02*
X15260487Y-13456344D01*
X15260487Y-13456344D02*
X15241440Y-13446820D01*
X15241440Y-13446820D02*
X15231916Y-13427773D01*
X15231916Y-13427773D02*
X15231916Y-13351582D01*
X15231916Y-13351582D02*
X15241440Y-13332535D01*
X15241440Y-13332535D02*
X15260487Y-13323011D01*
X15260487Y-13323011D02*
X15298582Y-13323011D01*
X15298582Y-13323011D02*
X15317630Y-13332535D01*
X15317630Y-13332535D02*
X15327154Y-13351582D01*
X15327154Y-13351582D02*
X15327154Y-13370630D01*
X15327154Y-13370630D02*
X15231916Y-13389677D01*
X15403344Y-13446820D02*
X15422392Y-13456344D01*
X15422392Y-13456344D02*
X15460487Y-13456344D01*
X15460487Y-13456344D02*
X15479535Y-13446820D01*
X15479535Y-13446820D02*
X15489059Y-13427773D01*
X15489059Y-13427773D02*
X15489059Y-13418249D01*
X15489059Y-13418249D02*
X15479535Y-13399201D01*
X15479535Y-13399201D02*
X15460487Y-13389677D01*
X15460487Y-13389677D02*
X15431916Y-13389677D01*
X15431916Y-13389677D02*
X15412868Y-13380154D01*
X15412868Y-13380154D02*
X15403344Y-13361106D01*
X15403344Y-13361106D02*
X15403344Y-13351582D01*
X15403344Y-13351582D02*
X15412868Y-13332535D01*
X15412868Y-13332535D02*
X15431916Y-13323011D01*
X15431916Y-13323011D02*
X15460487Y-13323011D01*
X15460487Y-13323011D02*
X15479535Y-13332535D01*
X15555725Y-13532535D02*
X15565249Y-13523011D01*
X15565249Y-13523011D02*
X15584297Y-13494439D01*
X15584297Y-13494439D02*
X15593821Y-13475392D01*
X15593821Y-13475392D02*
X15603344Y-13446820D01*
X15603344Y-13446820D02*
X15612868Y-13399201D01*
X15612868Y-13399201D02*
X15612868Y-13361106D01*
X15612868Y-13361106D02*
X15603344Y-13313487D01*
X15603344Y-13313487D02*
X15593821Y-13284916D01*
X15593821Y-13284916D02*
X15584297Y-13265868D01*
X15584297Y-13265868D02*
X15565249Y-13237296D01*
X15565249Y-13237296D02*
X15555725Y-13227773D01*
D13*
X10732868Y-13646868D02*
G75*
G03*
X10732868Y-13646868I-22500J0D01*
G01*
D11*
X11018582Y-13520344D02*
X11037630Y-13520344D01*
X11037630Y-13520344D02*
X11056678Y-13529868D01*
X11056678Y-13529868D02*
X11066201Y-13539392D01*
X11066201Y-13539392D02*
X11075725Y-13558439D01*
X11075725Y-13558439D02*
X11085249Y-13596535D01*
X11085249Y-13596535D02*
X11085249Y-13644154D01*
X11085249Y-13644154D02*
X11075725Y-13682249D01*
X11075725Y-13682249D02*
X11066201Y-13701296D01*
X11066201Y-13701296D02*
X11056678Y-13710820D01*
X11056678Y-13710820D02*
X11037630Y-13720344D01*
X11037630Y-13720344D02*
X11018582Y-13720344D01*
X11018582Y-13720344D02*
X10999535Y-13710820D01*
X10999535Y-13710820D02*
X10990011Y-13701296D01*
X10990011Y-13701296D02*
X10980487Y-13682249D01*
X10980487Y-13682249D02*
X10970963Y-13644154D01*
X10970963Y-13644154D02*
X10970963Y-13596535D01*
X10970963Y-13596535D02*
X10980487Y-13558439D01*
X10980487Y-13558439D02*
X10990011Y-13539392D01*
X10990011Y-13539392D02*
X10999535Y-13529868D01*
X10999535Y-13529868D02*
X11018582Y-13520344D01*
X11170963Y-13701296D02*
X11180487Y-13710820D01*
X11180487Y-13710820D02*
X11170963Y-13720344D01*
X11170963Y-13720344D02*
X11161439Y-13710820D01*
X11161439Y-13710820D02*
X11170963Y-13701296D01*
X11170963Y-13701296D02*
X11170963Y-13720344D01*
X11351916Y-13587011D02*
X11351916Y-13720344D01*
X11304296Y-13510820D02*
X11256677Y-13653677D01*
X11256677Y-13653677D02*
X11380487Y-13653677D01*
X11551916Y-13520344D02*
X11456677Y-13520344D01*
X11456677Y-13520344D02*
X11447154Y-13615582D01*
X11447154Y-13615582D02*
X11456677Y-13606058D01*
X11456677Y-13606058D02*
X11475725Y-13596535D01*
X11475725Y-13596535D02*
X11523344Y-13596535D01*
X11523344Y-13596535D02*
X11542392Y-13606058D01*
X11542392Y-13606058D02*
X11551916Y-13615582D01*
X11551916Y-13615582D02*
X11561439Y-13634630D01*
X11561439Y-13634630D02*
X11561439Y-13682249D01*
X11561439Y-13682249D02*
X11551916Y-13701296D01*
X11551916Y-13701296D02*
X11542392Y-13710820D01*
X11542392Y-13710820D02*
X11523344Y-13720344D01*
X11523344Y-13720344D02*
X11475725Y-13720344D01*
X11475725Y-13720344D02*
X11456677Y-13710820D01*
X11456677Y-13710820D02*
X11447154Y-13701296D01*
X11685249Y-13520344D02*
X11704297Y-13520344D01*
X11704297Y-13520344D02*
X11723344Y-13529868D01*
X11723344Y-13529868D02*
X11732868Y-13539392D01*
X11732868Y-13539392D02*
X11742392Y-13558439D01*
X11742392Y-13558439D02*
X11751916Y-13596535D01*
X11751916Y-13596535D02*
X11751916Y-13644154D01*
X11751916Y-13644154D02*
X11742392Y-13682249D01*
X11742392Y-13682249D02*
X11732868Y-13701296D01*
X11732868Y-13701296D02*
X11723344Y-13710820D01*
X11723344Y-13710820D02*
X11704297Y-13720344D01*
X11704297Y-13720344D02*
X11685249Y-13720344D01*
X11685249Y-13720344D02*
X11666201Y-13710820D01*
X11666201Y-13710820D02*
X11656677Y-13701296D01*
X11656677Y-13701296D02*
X11647154Y-13682249D01*
X11647154Y-13682249D02*
X11637630Y-13644154D01*
X11637630Y-13644154D02*
X11637630Y-13596535D01*
X11637630Y-13596535D02*
X11647154Y-13558439D01*
X11647154Y-13558439D02*
X11656677Y-13539392D01*
X11656677Y-13539392D02*
X11666201Y-13529868D01*
X11666201Y-13529868D02*
X11685249Y-13520344D01*
X11837630Y-13720344D02*
X11837630Y-13587011D01*
X11837630Y-13606058D02*
X11847154Y-13596535D01*
X11847154Y-13596535D02*
X11866201Y-13587011D01*
X11866201Y-13587011D02*
X11894773Y-13587011D01*
X11894773Y-13587011D02*
X11913820Y-13596535D01*
X11913820Y-13596535D02*
X11923344Y-13615582D01*
X11923344Y-13615582D02*
X11923344Y-13720344D01*
X11923344Y-13615582D02*
X11932868Y-13596535D01*
X11932868Y-13596535D02*
X11951916Y-13587011D01*
X11951916Y-13587011D02*
X11980487Y-13587011D01*
X11980487Y-13587011D02*
X11999535Y-13596535D01*
X11999535Y-13596535D02*
X12009058Y-13615582D01*
X12009058Y-13615582D02*
X12009058Y-13720344D01*
X12104297Y-13720344D02*
X12104297Y-13587011D01*
X12104297Y-13606058D02*
X12113820Y-13596535D01*
X12113820Y-13596535D02*
X12132868Y-13587011D01*
X12132868Y-13587011D02*
X12161439Y-13587011D01*
X12161439Y-13587011D02*
X12180487Y-13596535D01*
X12180487Y-13596535D02*
X12190011Y-13615582D01*
X12190011Y-13615582D02*
X12190011Y-13720344D01*
X12190011Y-13615582D02*
X12199535Y-13596535D01*
X12199535Y-13596535D02*
X12218582Y-13587011D01*
X12218582Y-13587011D02*
X12247154Y-13587011D01*
X12247154Y-13587011D02*
X12266201Y-13596535D01*
X12266201Y-13596535D02*
X12275725Y-13615582D01*
X12275725Y-13615582D02*
X12275725Y-13720344D01*
X12633820Y-13510820D02*
X12462392Y-13767963D01*
X12858582Y-13520344D02*
X12877630Y-13520344D01*
X12877630Y-13520344D02*
X12896678Y-13529868D01*
X12896678Y-13529868D02*
X12906201Y-13539392D01*
X12906201Y-13539392D02*
X12915725Y-13558439D01*
X12915725Y-13558439D02*
X12925249Y-13596535D01*
X12925249Y-13596535D02*
X12925249Y-13644154D01*
X12925249Y-13644154D02*
X12915725Y-13682249D01*
X12915725Y-13682249D02*
X12906201Y-13701296D01*
X12906201Y-13701296D02*
X12896678Y-13710820D01*
X12896678Y-13710820D02*
X12877630Y-13720344D01*
X12877630Y-13720344D02*
X12858582Y-13720344D01*
X12858582Y-13720344D02*
X12839535Y-13710820D01*
X12839535Y-13710820D02*
X12830011Y-13701296D01*
X12830011Y-13701296D02*
X12820487Y-13682249D01*
X12820487Y-13682249D02*
X12810963Y-13644154D01*
X12810963Y-13644154D02*
X12810963Y-13596535D01*
X12810963Y-13596535D02*
X12820487Y-13558439D01*
X12820487Y-13558439D02*
X12830011Y-13539392D01*
X12830011Y-13539392D02*
X12839535Y-13529868D01*
X12839535Y-13529868D02*
X12858582Y-13520344D01*
X13010963Y-13701296D02*
X13020487Y-13710820D01*
X13020487Y-13710820D02*
X13010963Y-13720344D01*
X13010963Y-13720344D02*
X13001439Y-13710820D01*
X13001439Y-13710820D02*
X13010963Y-13701296D01*
X13010963Y-13701296D02*
X13010963Y-13720344D01*
X13144297Y-13520344D02*
X13163344Y-13520344D01*
X13163344Y-13520344D02*
X13182392Y-13529868D01*
X13182392Y-13529868D02*
X13191916Y-13539392D01*
X13191916Y-13539392D02*
X13201439Y-13558439D01*
X13201439Y-13558439D02*
X13210963Y-13596535D01*
X13210963Y-13596535D02*
X13210963Y-13644154D01*
X13210963Y-13644154D02*
X13201439Y-13682249D01*
X13201439Y-13682249D02*
X13191916Y-13701296D01*
X13191916Y-13701296D02*
X13182392Y-13710820D01*
X13182392Y-13710820D02*
X13163344Y-13720344D01*
X13163344Y-13720344D02*
X13144297Y-13720344D01*
X13144297Y-13720344D02*
X13125249Y-13710820D01*
X13125249Y-13710820D02*
X13115725Y-13701296D01*
X13115725Y-13701296D02*
X13106201Y-13682249D01*
X13106201Y-13682249D02*
X13096678Y-13644154D01*
X13096678Y-13644154D02*
X13096678Y-13596535D01*
X13096678Y-13596535D02*
X13106201Y-13558439D01*
X13106201Y-13558439D02*
X13115725Y-13539392D01*
X13115725Y-13539392D02*
X13125249Y-13529868D01*
X13125249Y-13529868D02*
X13144297Y-13520344D01*
X13401439Y-13720344D02*
X13287154Y-13720344D01*
X13344297Y-13720344D02*
X13344297Y-13520344D01*
X13344297Y-13520344D02*
X13325249Y-13548916D01*
X13325249Y-13548916D02*
X13306201Y-13567963D01*
X13306201Y-13567963D02*
X13287154Y-13577487D01*
X13468106Y-13520344D02*
X13601439Y-13520344D01*
X13601439Y-13520344D02*
X13515725Y-13720344D01*
X13658582Y-13520344D02*
X13791916Y-13520344D01*
X13791916Y-13520344D02*
X13706201Y-13720344D01*
X13858582Y-13520344D02*
X13858582Y-13558439D01*
X13934773Y-13520344D02*
X13934773Y-13558439D01*
X14197630Y-13796535D02*
X14188106Y-13787011D01*
X14188106Y-13787011D02*
X14169059Y-13758439D01*
X14169059Y-13758439D02*
X14159535Y-13739392D01*
X14159535Y-13739392D02*
X14150011Y-13710820D01*
X14150011Y-13710820D02*
X14140487Y-13663201D01*
X14140487Y-13663201D02*
X14140487Y-13625106D01*
X14140487Y-13625106D02*
X14150011Y-13577487D01*
X14150011Y-13577487D02*
X14159535Y-13548916D01*
X14159535Y-13548916D02*
X14169059Y-13529868D01*
X14169059Y-13529868D02*
X14188106Y-13501296D01*
X14188106Y-13501296D02*
X14197630Y-13491773D01*
X14254773Y-13520344D02*
X14378582Y-13520344D01*
X14378582Y-13520344D02*
X14311916Y-13596535D01*
X14311916Y-13596535D02*
X14340487Y-13596535D01*
X14340487Y-13596535D02*
X14359535Y-13606058D01*
X14359535Y-13606058D02*
X14369059Y-13615582D01*
X14369059Y-13615582D02*
X14378582Y-13634630D01*
X14378582Y-13634630D02*
X14378582Y-13682249D01*
X14378582Y-13682249D02*
X14369059Y-13701296D01*
X14369059Y-13701296D02*
X14359535Y-13710820D01*
X14359535Y-13710820D02*
X14340487Y-13720344D01*
X14340487Y-13720344D02*
X14283344Y-13720344D01*
X14283344Y-13720344D02*
X14264297Y-13710820D01*
X14264297Y-13710820D02*
X14254773Y-13701296D01*
X14445249Y-13520344D02*
X14569059Y-13520344D01*
X14569059Y-13520344D02*
X14502392Y-13596535D01*
X14502392Y-13596535D02*
X14530963Y-13596535D01*
X14530963Y-13596535D02*
X14550011Y-13606058D01*
X14550011Y-13606058D02*
X14559535Y-13615582D01*
X14559535Y-13615582D02*
X14569059Y-13634630D01*
X14569059Y-13634630D02*
X14569059Y-13682249D01*
X14569059Y-13682249D02*
X14559535Y-13701296D01*
X14559535Y-13701296D02*
X14550011Y-13710820D01*
X14550011Y-13710820D02*
X14530963Y-13720344D01*
X14530963Y-13720344D02*
X14473820Y-13720344D01*
X14473820Y-13720344D02*
X14454773Y-13710820D01*
X14454773Y-13710820D02*
X14445249Y-13701296D01*
X14774773Y-13720344D02*
X14774773Y-13520344D01*
X14860487Y-13720344D02*
X14860487Y-13615582D01*
X14860487Y-13615582D02*
X14850963Y-13596535D01*
X14850963Y-13596535D02*
X14831916Y-13587011D01*
X14831916Y-13587011D02*
X14803344Y-13587011D01*
X14803344Y-13587011D02*
X14784297Y-13596535D01*
X14784297Y-13596535D02*
X14774773Y-13606058D01*
X14984297Y-13720344D02*
X14965249Y-13710820D01*
X14965249Y-13710820D02*
X14955725Y-13701296D01*
X14955725Y-13701296D02*
X14946201Y-13682249D01*
X14946201Y-13682249D02*
X14946201Y-13625106D01*
X14946201Y-13625106D02*
X14955725Y-13606058D01*
X14955725Y-13606058D02*
X14965249Y-13596535D01*
X14965249Y-13596535D02*
X14984297Y-13587011D01*
X14984297Y-13587011D02*
X15012868Y-13587011D01*
X15012868Y-13587011D02*
X15031916Y-13596535D01*
X15031916Y-13596535D02*
X15041440Y-13606058D01*
X15041440Y-13606058D02*
X15050963Y-13625106D01*
X15050963Y-13625106D02*
X15050963Y-13682249D01*
X15050963Y-13682249D02*
X15041440Y-13701296D01*
X15041440Y-13701296D02*
X15031916Y-13710820D01*
X15031916Y-13710820D02*
X15012868Y-13720344D01*
X15012868Y-13720344D02*
X14984297Y-13720344D01*
X15165249Y-13720344D02*
X15146201Y-13710820D01*
X15146201Y-13710820D02*
X15136678Y-13691773D01*
X15136678Y-13691773D02*
X15136678Y-13520344D01*
X15317630Y-13710820D02*
X15298582Y-13720344D01*
X15298582Y-13720344D02*
X15260487Y-13720344D01*
X15260487Y-13720344D02*
X15241440Y-13710820D01*
X15241440Y-13710820D02*
X15231916Y-13691773D01*
X15231916Y-13691773D02*
X15231916Y-13615582D01*
X15231916Y-13615582D02*
X15241440Y-13596535D01*
X15241440Y-13596535D02*
X15260487Y-13587011D01*
X15260487Y-13587011D02*
X15298582Y-13587011D01*
X15298582Y-13587011D02*
X15317630Y-13596535D01*
X15317630Y-13596535D02*
X15327154Y-13615582D01*
X15327154Y-13615582D02*
X15327154Y-13634630D01*
X15327154Y-13634630D02*
X15231916Y-13653677D01*
X15403344Y-13710820D02*
X15422392Y-13720344D01*
X15422392Y-13720344D02*
X15460487Y-13720344D01*
X15460487Y-13720344D02*
X15479535Y-13710820D01*
X15479535Y-13710820D02*
X15489059Y-13691773D01*
X15489059Y-13691773D02*
X15489059Y-13682249D01*
X15489059Y-13682249D02*
X15479535Y-13663201D01*
X15479535Y-13663201D02*
X15460487Y-13653677D01*
X15460487Y-13653677D02*
X15431916Y-13653677D01*
X15431916Y-13653677D02*
X15412868Y-13644154D01*
X15412868Y-13644154D02*
X15403344Y-13625106D01*
X15403344Y-13625106D02*
X15403344Y-13615582D01*
X15403344Y-13615582D02*
X15412868Y-13596535D01*
X15412868Y-13596535D02*
X15431916Y-13587011D01*
X15431916Y-13587011D02*
X15460487Y-13587011D01*
X15460487Y-13587011D02*
X15479535Y-13596535D01*
X15555725Y-13796535D02*
X15565249Y-13787011D01*
X15565249Y-13787011D02*
X15584297Y-13758439D01*
X15584297Y-13758439D02*
X15593821Y-13739392D01*
X15593821Y-13739392D02*
X15603344Y-13710820D01*
X15603344Y-13710820D02*
X15612868Y-13663201D01*
X15612868Y-13663201D02*
X15612868Y-13625106D01*
X15612868Y-13625106D02*
X15603344Y-13577487D01*
X15603344Y-13577487D02*
X15593821Y-13548916D01*
X15593821Y-13548916D02*
X15584297Y-13529868D01*
X15584297Y-13529868D02*
X15565249Y-13501296D01*
X15565249Y-13501296D02*
X15555725Y-13491773D01*
D13*
X10710368Y-13888368D02*
X10710368Y-13933368D01*
X10687868Y-13910868D02*
X10732868Y-13910868D01*
D11*
X11018582Y-13784344D02*
X11037630Y-13784344D01*
X11037630Y-13784344D02*
X11056678Y-13793868D01*
X11056678Y-13793868D02*
X11066201Y-13803392D01*
X11066201Y-13803392D02*
X11075725Y-13822439D01*
X11075725Y-13822439D02*
X11085249Y-13860535D01*
X11085249Y-13860535D02*
X11085249Y-13908154D01*
X11085249Y-13908154D02*
X11075725Y-13946249D01*
X11075725Y-13946249D02*
X11066201Y-13965296D01*
X11066201Y-13965296D02*
X11056678Y-13974820D01*
X11056678Y-13974820D02*
X11037630Y-13984344D01*
X11037630Y-13984344D02*
X11018582Y-13984344D01*
X11018582Y-13984344D02*
X10999535Y-13974820D01*
X10999535Y-13974820D02*
X10990011Y-13965296D01*
X10990011Y-13965296D02*
X10980487Y-13946249D01*
X10980487Y-13946249D02*
X10970963Y-13908154D01*
X10970963Y-13908154D02*
X10970963Y-13860535D01*
X10970963Y-13860535D02*
X10980487Y-13822439D01*
X10980487Y-13822439D02*
X10990011Y-13803392D01*
X10990011Y-13803392D02*
X10999535Y-13793868D01*
X10999535Y-13793868D02*
X11018582Y-13784344D01*
X11170963Y-13965296D02*
X11180487Y-13974820D01*
X11180487Y-13974820D02*
X11170963Y-13984344D01*
X11170963Y-13984344D02*
X11161439Y-13974820D01*
X11161439Y-13974820D02*
X11170963Y-13965296D01*
X11170963Y-13965296D02*
X11170963Y-13984344D01*
X11351916Y-13851011D02*
X11351916Y-13984344D01*
X11304296Y-13774820D02*
X11256677Y-13917677D01*
X11256677Y-13917677D02*
X11380487Y-13917677D01*
X11551916Y-13784344D02*
X11456677Y-13784344D01*
X11456677Y-13784344D02*
X11447154Y-13879582D01*
X11447154Y-13879582D02*
X11456677Y-13870058D01*
X11456677Y-13870058D02*
X11475725Y-13860535D01*
X11475725Y-13860535D02*
X11523344Y-13860535D01*
X11523344Y-13860535D02*
X11542392Y-13870058D01*
X11542392Y-13870058D02*
X11551916Y-13879582D01*
X11551916Y-13879582D02*
X11561439Y-13898630D01*
X11561439Y-13898630D02*
X11561439Y-13946249D01*
X11561439Y-13946249D02*
X11551916Y-13965296D01*
X11551916Y-13965296D02*
X11542392Y-13974820D01*
X11542392Y-13974820D02*
X11523344Y-13984344D01*
X11523344Y-13984344D02*
X11475725Y-13984344D01*
X11475725Y-13984344D02*
X11456677Y-13974820D01*
X11456677Y-13974820D02*
X11447154Y-13965296D01*
X11685249Y-13784344D02*
X11704297Y-13784344D01*
X11704297Y-13784344D02*
X11723344Y-13793868D01*
X11723344Y-13793868D02*
X11732868Y-13803392D01*
X11732868Y-13803392D02*
X11742392Y-13822439D01*
X11742392Y-13822439D02*
X11751916Y-13860535D01*
X11751916Y-13860535D02*
X11751916Y-13908154D01*
X11751916Y-13908154D02*
X11742392Y-13946249D01*
X11742392Y-13946249D02*
X11732868Y-13965296D01*
X11732868Y-13965296D02*
X11723344Y-13974820D01*
X11723344Y-13974820D02*
X11704297Y-13984344D01*
X11704297Y-13984344D02*
X11685249Y-13984344D01*
X11685249Y-13984344D02*
X11666201Y-13974820D01*
X11666201Y-13974820D02*
X11656677Y-13965296D01*
X11656677Y-13965296D02*
X11647154Y-13946249D01*
X11647154Y-13946249D02*
X11637630Y-13908154D01*
X11637630Y-13908154D02*
X11637630Y-13860535D01*
X11637630Y-13860535D02*
X11647154Y-13822439D01*
X11647154Y-13822439D02*
X11656677Y-13803392D01*
X11656677Y-13803392D02*
X11666201Y-13793868D01*
X11666201Y-13793868D02*
X11685249Y-13784344D01*
X11837630Y-13984344D02*
X11837630Y-13851011D01*
X11837630Y-13870058D02*
X11847154Y-13860535D01*
X11847154Y-13860535D02*
X11866201Y-13851011D01*
X11866201Y-13851011D02*
X11894773Y-13851011D01*
X11894773Y-13851011D02*
X11913820Y-13860535D01*
X11913820Y-13860535D02*
X11923344Y-13879582D01*
X11923344Y-13879582D02*
X11923344Y-13984344D01*
X11923344Y-13879582D02*
X11932868Y-13860535D01*
X11932868Y-13860535D02*
X11951916Y-13851011D01*
X11951916Y-13851011D02*
X11980487Y-13851011D01*
X11980487Y-13851011D02*
X11999535Y-13860535D01*
X11999535Y-13860535D02*
X12009058Y-13879582D01*
X12009058Y-13879582D02*
X12009058Y-13984344D01*
X12104297Y-13984344D02*
X12104297Y-13851011D01*
X12104297Y-13870058D02*
X12113820Y-13860535D01*
X12113820Y-13860535D02*
X12132868Y-13851011D01*
X12132868Y-13851011D02*
X12161439Y-13851011D01*
X12161439Y-13851011D02*
X12180487Y-13860535D01*
X12180487Y-13860535D02*
X12190011Y-13879582D01*
X12190011Y-13879582D02*
X12190011Y-13984344D01*
X12190011Y-13879582D02*
X12199535Y-13860535D01*
X12199535Y-13860535D02*
X12218582Y-13851011D01*
X12218582Y-13851011D02*
X12247154Y-13851011D01*
X12247154Y-13851011D02*
X12266201Y-13860535D01*
X12266201Y-13860535D02*
X12275725Y-13879582D01*
X12275725Y-13879582D02*
X12275725Y-13984344D01*
X12633820Y-13774820D02*
X12462392Y-14031963D01*
X12858582Y-13784344D02*
X12877630Y-13784344D01*
X12877630Y-13784344D02*
X12896678Y-13793868D01*
X12896678Y-13793868D02*
X12906201Y-13803392D01*
X12906201Y-13803392D02*
X12915725Y-13822439D01*
X12915725Y-13822439D02*
X12925249Y-13860535D01*
X12925249Y-13860535D02*
X12925249Y-13908154D01*
X12925249Y-13908154D02*
X12915725Y-13946249D01*
X12915725Y-13946249D02*
X12906201Y-13965296D01*
X12906201Y-13965296D02*
X12896678Y-13974820D01*
X12896678Y-13974820D02*
X12877630Y-13984344D01*
X12877630Y-13984344D02*
X12858582Y-13984344D01*
X12858582Y-13984344D02*
X12839535Y-13974820D01*
X12839535Y-13974820D02*
X12830011Y-13965296D01*
X12830011Y-13965296D02*
X12820487Y-13946249D01*
X12820487Y-13946249D02*
X12810963Y-13908154D01*
X12810963Y-13908154D02*
X12810963Y-13860535D01*
X12810963Y-13860535D02*
X12820487Y-13822439D01*
X12820487Y-13822439D02*
X12830011Y-13803392D01*
X12830011Y-13803392D02*
X12839535Y-13793868D01*
X12839535Y-13793868D02*
X12858582Y-13784344D01*
X13010963Y-13965296D02*
X13020487Y-13974820D01*
X13020487Y-13974820D02*
X13010963Y-13984344D01*
X13010963Y-13984344D02*
X13001439Y-13974820D01*
X13001439Y-13974820D02*
X13010963Y-13965296D01*
X13010963Y-13965296D02*
X13010963Y-13984344D01*
X13144297Y-13784344D02*
X13163344Y-13784344D01*
X13163344Y-13784344D02*
X13182392Y-13793868D01*
X13182392Y-13793868D02*
X13191916Y-13803392D01*
X13191916Y-13803392D02*
X13201439Y-13822439D01*
X13201439Y-13822439D02*
X13210963Y-13860535D01*
X13210963Y-13860535D02*
X13210963Y-13908154D01*
X13210963Y-13908154D02*
X13201439Y-13946249D01*
X13201439Y-13946249D02*
X13191916Y-13965296D01*
X13191916Y-13965296D02*
X13182392Y-13974820D01*
X13182392Y-13974820D02*
X13163344Y-13984344D01*
X13163344Y-13984344D02*
X13144297Y-13984344D01*
X13144297Y-13984344D02*
X13125249Y-13974820D01*
X13125249Y-13974820D02*
X13115725Y-13965296D01*
X13115725Y-13965296D02*
X13106201Y-13946249D01*
X13106201Y-13946249D02*
X13096678Y-13908154D01*
X13096678Y-13908154D02*
X13096678Y-13860535D01*
X13096678Y-13860535D02*
X13106201Y-13822439D01*
X13106201Y-13822439D02*
X13115725Y-13803392D01*
X13115725Y-13803392D02*
X13125249Y-13793868D01*
X13125249Y-13793868D02*
X13144297Y-13784344D01*
X13401439Y-13984344D02*
X13287154Y-13984344D01*
X13344297Y-13984344D02*
X13344297Y-13784344D01*
X13344297Y-13784344D02*
X13325249Y-13812916D01*
X13325249Y-13812916D02*
X13306201Y-13831963D01*
X13306201Y-13831963D02*
X13287154Y-13841487D01*
X13468106Y-13784344D02*
X13601439Y-13784344D01*
X13601439Y-13784344D02*
X13515725Y-13984344D01*
X13658582Y-13784344D02*
X13791916Y-13784344D01*
X13791916Y-13784344D02*
X13706201Y-13984344D01*
X13858582Y-13784344D02*
X13858582Y-13822439D01*
X13934773Y-13784344D02*
X13934773Y-13822439D01*
X14197630Y-14060535D02*
X14188106Y-14051011D01*
X14188106Y-14051011D02*
X14169059Y-14022439D01*
X14169059Y-14022439D02*
X14159535Y-14003392D01*
X14159535Y-14003392D02*
X14150011Y-13974820D01*
X14150011Y-13974820D02*
X14140487Y-13927201D01*
X14140487Y-13927201D02*
X14140487Y-13889106D01*
X14140487Y-13889106D02*
X14150011Y-13841487D01*
X14150011Y-13841487D02*
X14159535Y-13812916D01*
X14159535Y-13812916D02*
X14169059Y-13793868D01*
X14169059Y-13793868D02*
X14188106Y-13765296D01*
X14188106Y-13765296D02*
X14197630Y-13755773D01*
X14369059Y-13784344D02*
X14273820Y-13784344D01*
X14273820Y-13784344D02*
X14264297Y-13879582D01*
X14264297Y-13879582D02*
X14273820Y-13870058D01*
X14273820Y-13870058D02*
X14292868Y-13860535D01*
X14292868Y-13860535D02*
X14340487Y-13860535D01*
X14340487Y-13860535D02*
X14359535Y-13870058D01*
X14359535Y-13870058D02*
X14369059Y-13879582D01*
X14369059Y-13879582D02*
X14378582Y-13898630D01*
X14378582Y-13898630D02*
X14378582Y-13946249D01*
X14378582Y-13946249D02*
X14369059Y-13965296D01*
X14369059Y-13965296D02*
X14359535Y-13974820D01*
X14359535Y-13974820D02*
X14340487Y-13984344D01*
X14340487Y-13984344D02*
X14292868Y-13984344D01*
X14292868Y-13984344D02*
X14273820Y-13974820D01*
X14273820Y-13974820D02*
X14264297Y-13965296D01*
X14584297Y-13984344D02*
X14584297Y-13784344D01*
X14670011Y-13984344D02*
X14670011Y-13879582D01*
X14670011Y-13879582D02*
X14660487Y-13860535D01*
X14660487Y-13860535D02*
X14641440Y-13851011D01*
X14641440Y-13851011D02*
X14612868Y-13851011D01*
X14612868Y-13851011D02*
X14593820Y-13860535D01*
X14593820Y-13860535D02*
X14584297Y-13870058D01*
X14793820Y-13984344D02*
X14774773Y-13974820D01*
X14774773Y-13974820D02*
X14765249Y-13965296D01*
X14765249Y-13965296D02*
X14755725Y-13946249D01*
X14755725Y-13946249D02*
X14755725Y-13889106D01*
X14755725Y-13889106D02*
X14765249Y-13870058D01*
X14765249Y-13870058D02*
X14774773Y-13860535D01*
X14774773Y-13860535D02*
X14793820Y-13851011D01*
X14793820Y-13851011D02*
X14822392Y-13851011D01*
X14822392Y-13851011D02*
X14841440Y-13860535D01*
X14841440Y-13860535D02*
X14850963Y-13870058D01*
X14850963Y-13870058D02*
X14860487Y-13889106D01*
X14860487Y-13889106D02*
X14860487Y-13946249D01*
X14860487Y-13946249D02*
X14850963Y-13965296D01*
X14850963Y-13965296D02*
X14841440Y-13974820D01*
X14841440Y-13974820D02*
X14822392Y-13984344D01*
X14822392Y-13984344D02*
X14793820Y-13984344D01*
X14974773Y-13984344D02*
X14955725Y-13974820D01*
X14955725Y-13974820D02*
X14946201Y-13955773D01*
X14946201Y-13955773D02*
X14946201Y-13784344D01*
X15127154Y-13974820D02*
X15108106Y-13984344D01*
X15108106Y-13984344D02*
X15070011Y-13984344D01*
X15070011Y-13984344D02*
X15050963Y-13974820D01*
X15050963Y-13974820D02*
X15041440Y-13955773D01*
X15041440Y-13955773D02*
X15041440Y-13879582D01*
X15041440Y-13879582D02*
X15050963Y-13860535D01*
X15050963Y-13860535D02*
X15070011Y-13851011D01*
X15070011Y-13851011D02*
X15108106Y-13851011D01*
X15108106Y-13851011D02*
X15127154Y-13860535D01*
X15127154Y-13860535D02*
X15136678Y-13879582D01*
X15136678Y-13879582D02*
X15136678Y-13898630D01*
X15136678Y-13898630D02*
X15041440Y-13917677D01*
X15212868Y-13974820D02*
X15231916Y-13984344D01*
X15231916Y-13984344D02*
X15270011Y-13984344D01*
X15270011Y-13984344D02*
X15289059Y-13974820D01*
X15289059Y-13974820D02*
X15298582Y-13955773D01*
X15298582Y-13955773D02*
X15298582Y-13946249D01*
X15298582Y-13946249D02*
X15289059Y-13927201D01*
X15289059Y-13927201D02*
X15270011Y-13917677D01*
X15270011Y-13917677D02*
X15241440Y-13917677D01*
X15241440Y-13917677D02*
X15222392Y-13908154D01*
X15222392Y-13908154D02*
X15212868Y-13889106D01*
X15212868Y-13889106D02*
X15212868Y-13879582D01*
X15212868Y-13879582D02*
X15222392Y-13860535D01*
X15222392Y-13860535D02*
X15241440Y-13851011D01*
X15241440Y-13851011D02*
X15270011Y-13851011D01*
X15270011Y-13851011D02*
X15289059Y-13860535D01*
X15365249Y-14060535D02*
X15374773Y-14051011D01*
X15374773Y-14051011D02*
X15393821Y-14022439D01*
X15393821Y-14022439D02*
X15403344Y-14003392D01*
X15403344Y-14003392D02*
X15412868Y-13974820D01*
X15412868Y-13974820D02*
X15422392Y-13927201D01*
X15422392Y-13927201D02*
X15422392Y-13889106D01*
X15422392Y-13889106D02*
X15412868Y-13841487D01*
X15412868Y-13841487D02*
X15403344Y-13812916D01*
X15403344Y-13812916D02*
X15393821Y-13793868D01*
X15393821Y-13793868D02*
X15374773Y-13765296D01*
X15374773Y-13765296D02*
X15365249Y-13755773D01*
D14*
X10724081Y-14196081D02*
X10724081Y-14153655D01*
X10681655Y-14153655D01*
X10681655Y-14196081D01*
X10724081Y-14196081D01*
D11*
X11018582Y-14048344D02*
X11037630Y-14048344D01*
X11037630Y-14048344D02*
X11056678Y-14057868D01*
X11056678Y-14057868D02*
X11066201Y-14067392D01*
X11066201Y-14067392D02*
X11075725Y-14086439D01*
X11075725Y-14086439D02*
X11085249Y-14124535D01*
X11085249Y-14124535D02*
X11085249Y-14172154D01*
X11085249Y-14172154D02*
X11075725Y-14210249D01*
X11075725Y-14210249D02*
X11066201Y-14229296D01*
X11066201Y-14229296D02*
X11056678Y-14238820D01*
X11056678Y-14238820D02*
X11037630Y-14248344D01*
X11037630Y-14248344D02*
X11018582Y-14248344D01*
X11018582Y-14248344D02*
X10999535Y-14238820D01*
X10999535Y-14238820D02*
X10990011Y-14229296D01*
X10990011Y-14229296D02*
X10980487Y-14210249D01*
X10980487Y-14210249D02*
X10970963Y-14172154D01*
X10970963Y-14172154D02*
X10970963Y-14124535D01*
X10970963Y-14124535D02*
X10980487Y-14086439D01*
X10980487Y-14086439D02*
X10990011Y-14067392D01*
X10990011Y-14067392D02*
X10999535Y-14057868D01*
X10999535Y-14057868D02*
X11018582Y-14048344D01*
X11170963Y-14229296D02*
X11180487Y-14238820D01*
X11180487Y-14238820D02*
X11170963Y-14248344D01*
X11170963Y-14248344D02*
X11161439Y-14238820D01*
X11161439Y-14238820D02*
X11170963Y-14229296D01*
X11170963Y-14229296D02*
X11170963Y-14248344D01*
X11351916Y-14048344D02*
X11313820Y-14048344D01*
X11313820Y-14048344D02*
X11294773Y-14057868D01*
X11294773Y-14057868D02*
X11285249Y-14067392D01*
X11285249Y-14067392D02*
X11266201Y-14095963D01*
X11266201Y-14095963D02*
X11256677Y-14134058D01*
X11256677Y-14134058D02*
X11256677Y-14210249D01*
X11256677Y-14210249D02*
X11266201Y-14229296D01*
X11266201Y-14229296D02*
X11275725Y-14238820D01*
X11275725Y-14238820D02*
X11294773Y-14248344D01*
X11294773Y-14248344D02*
X11332868Y-14248344D01*
X11332868Y-14248344D02*
X11351916Y-14238820D01*
X11351916Y-14238820D02*
X11361439Y-14229296D01*
X11361439Y-14229296D02*
X11370963Y-14210249D01*
X11370963Y-14210249D02*
X11370963Y-14162630D01*
X11370963Y-14162630D02*
X11361439Y-14143582D01*
X11361439Y-14143582D02*
X11351916Y-14134058D01*
X11351916Y-14134058D02*
X11332868Y-14124535D01*
X11332868Y-14124535D02*
X11294773Y-14124535D01*
X11294773Y-14124535D02*
X11275725Y-14134058D01*
X11275725Y-14134058D02*
X11266201Y-14143582D01*
X11266201Y-14143582D02*
X11256677Y-14162630D01*
X11494773Y-14048344D02*
X11513820Y-14048344D01*
X11513820Y-14048344D02*
X11532868Y-14057868D01*
X11532868Y-14057868D02*
X11542392Y-14067392D01*
X11542392Y-14067392D02*
X11551916Y-14086439D01*
X11551916Y-14086439D02*
X11561439Y-14124535D01*
X11561439Y-14124535D02*
X11561439Y-14172154D01*
X11561439Y-14172154D02*
X11551916Y-14210249D01*
X11551916Y-14210249D02*
X11542392Y-14229296D01*
X11542392Y-14229296D02*
X11532868Y-14238820D01*
X11532868Y-14238820D02*
X11513820Y-14248344D01*
X11513820Y-14248344D02*
X11494773Y-14248344D01*
X11494773Y-14248344D02*
X11475725Y-14238820D01*
X11475725Y-14238820D02*
X11466201Y-14229296D01*
X11466201Y-14229296D02*
X11456677Y-14210249D01*
X11456677Y-14210249D02*
X11447154Y-14172154D01*
X11447154Y-14172154D02*
X11447154Y-14124535D01*
X11447154Y-14124535D02*
X11456677Y-14086439D01*
X11456677Y-14086439D02*
X11466201Y-14067392D01*
X11466201Y-14067392D02*
X11475725Y-14057868D01*
X11475725Y-14057868D02*
X11494773Y-14048344D01*
X11685249Y-14048344D02*
X11704297Y-14048344D01*
X11704297Y-14048344D02*
X11723344Y-14057868D01*
X11723344Y-14057868D02*
X11732868Y-14067392D01*
X11732868Y-14067392D02*
X11742392Y-14086439D01*
X11742392Y-14086439D02*
X11751916Y-14124535D01*
X11751916Y-14124535D02*
X11751916Y-14172154D01*
X11751916Y-14172154D02*
X11742392Y-14210249D01*
X11742392Y-14210249D02*
X11732868Y-14229296D01*
X11732868Y-14229296D02*
X11723344Y-14238820D01*
X11723344Y-14238820D02*
X11704297Y-14248344D01*
X11704297Y-14248344D02*
X11685249Y-14248344D01*
X11685249Y-14248344D02*
X11666201Y-14238820D01*
X11666201Y-14238820D02*
X11656677Y-14229296D01*
X11656677Y-14229296D02*
X11647154Y-14210249D01*
X11647154Y-14210249D02*
X11637630Y-14172154D01*
X11637630Y-14172154D02*
X11637630Y-14124535D01*
X11637630Y-14124535D02*
X11647154Y-14086439D01*
X11647154Y-14086439D02*
X11656677Y-14067392D01*
X11656677Y-14067392D02*
X11666201Y-14057868D01*
X11666201Y-14057868D02*
X11685249Y-14048344D01*
X11837630Y-14248344D02*
X11837630Y-14115011D01*
X11837630Y-14134058D02*
X11847154Y-14124535D01*
X11847154Y-14124535D02*
X11866201Y-14115011D01*
X11866201Y-14115011D02*
X11894773Y-14115011D01*
X11894773Y-14115011D02*
X11913820Y-14124535D01*
X11913820Y-14124535D02*
X11923344Y-14143582D01*
X11923344Y-14143582D02*
X11923344Y-14248344D01*
X11923344Y-14143582D02*
X11932868Y-14124535D01*
X11932868Y-14124535D02*
X11951916Y-14115011D01*
X11951916Y-14115011D02*
X11980487Y-14115011D01*
X11980487Y-14115011D02*
X11999535Y-14124535D01*
X11999535Y-14124535D02*
X12009058Y-14143582D01*
X12009058Y-14143582D02*
X12009058Y-14248344D01*
X12104297Y-14248344D02*
X12104297Y-14115011D01*
X12104297Y-14134058D02*
X12113820Y-14124535D01*
X12113820Y-14124535D02*
X12132868Y-14115011D01*
X12132868Y-14115011D02*
X12161439Y-14115011D01*
X12161439Y-14115011D02*
X12180487Y-14124535D01*
X12180487Y-14124535D02*
X12190011Y-14143582D01*
X12190011Y-14143582D02*
X12190011Y-14248344D01*
X12190011Y-14143582D02*
X12199535Y-14124535D01*
X12199535Y-14124535D02*
X12218582Y-14115011D01*
X12218582Y-14115011D02*
X12247154Y-14115011D01*
X12247154Y-14115011D02*
X12266201Y-14124535D01*
X12266201Y-14124535D02*
X12275725Y-14143582D01*
X12275725Y-14143582D02*
X12275725Y-14248344D01*
X12633820Y-14038820D02*
X12462392Y-14295963D01*
X12858582Y-14048344D02*
X12877630Y-14048344D01*
X12877630Y-14048344D02*
X12896678Y-14057868D01*
X12896678Y-14057868D02*
X12906201Y-14067392D01*
X12906201Y-14067392D02*
X12915725Y-14086439D01*
X12915725Y-14086439D02*
X12925249Y-14124535D01*
X12925249Y-14124535D02*
X12925249Y-14172154D01*
X12925249Y-14172154D02*
X12915725Y-14210249D01*
X12915725Y-14210249D02*
X12906201Y-14229296D01*
X12906201Y-14229296D02*
X12896678Y-14238820D01*
X12896678Y-14238820D02*
X12877630Y-14248344D01*
X12877630Y-14248344D02*
X12858582Y-14248344D01*
X12858582Y-14248344D02*
X12839535Y-14238820D01*
X12839535Y-14238820D02*
X12830011Y-14229296D01*
X12830011Y-14229296D02*
X12820487Y-14210249D01*
X12820487Y-14210249D02*
X12810963Y-14172154D01*
X12810963Y-14172154D02*
X12810963Y-14124535D01*
X12810963Y-14124535D02*
X12820487Y-14086439D01*
X12820487Y-14086439D02*
X12830011Y-14067392D01*
X12830011Y-14067392D02*
X12839535Y-14057868D01*
X12839535Y-14057868D02*
X12858582Y-14048344D01*
X13010963Y-14229296D02*
X13020487Y-14238820D01*
X13020487Y-14238820D02*
X13010963Y-14248344D01*
X13010963Y-14248344D02*
X13001439Y-14238820D01*
X13001439Y-14238820D02*
X13010963Y-14229296D01*
X13010963Y-14229296D02*
X13010963Y-14248344D01*
X13144297Y-14048344D02*
X13163344Y-14048344D01*
X13163344Y-14048344D02*
X13182392Y-14057868D01*
X13182392Y-14057868D02*
X13191916Y-14067392D01*
X13191916Y-14067392D02*
X13201439Y-14086439D01*
X13201439Y-14086439D02*
X13210963Y-14124535D01*
X13210963Y-14124535D02*
X13210963Y-14172154D01*
X13210963Y-14172154D02*
X13201439Y-14210249D01*
X13201439Y-14210249D02*
X13191916Y-14229296D01*
X13191916Y-14229296D02*
X13182392Y-14238820D01*
X13182392Y-14238820D02*
X13163344Y-14248344D01*
X13163344Y-14248344D02*
X13144297Y-14248344D01*
X13144297Y-14248344D02*
X13125249Y-14238820D01*
X13125249Y-14238820D02*
X13115725Y-14229296D01*
X13115725Y-14229296D02*
X13106201Y-14210249D01*
X13106201Y-14210249D02*
X13096678Y-14172154D01*
X13096678Y-14172154D02*
X13096678Y-14124535D01*
X13096678Y-14124535D02*
X13106201Y-14086439D01*
X13106201Y-14086439D02*
X13115725Y-14067392D01*
X13115725Y-14067392D02*
X13125249Y-14057868D01*
X13125249Y-14057868D02*
X13144297Y-14048344D01*
X13287154Y-14067392D02*
X13296678Y-14057868D01*
X13296678Y-14057868D02*
X13315725Y-14048344D01*
X13315725Y-14048344D02*
X13363344Y-14048344D01*
X13363344Y-14048344D02*
X13382392Y-14057868D01*
X13382392Y-14057868D02*
X13391916Y-14067392D01*
X13391916Y-14067392D02*
X13401439Y-14086439D01*
X13401439Y-14086439D02*
X13401439Y-14105487D01*
X13401439Y-14105487D02*
X13391916Y-14134058D01*
X13391916Y-14134058D02*
X13277630Y-14248344D01*
X13277630Y-14248344D02*
X13401439Y-14248344D01*
X13468106Y-14048344D02*
X13591916Y-14048344D01*
X13591916Y-14048344D02*
X13525249Y-14124535D01*
X13525249Y-14124535D02*
X13553820Y-14124535D01*
X13553820Y-14124535D02*
X13572868Y-14134058D01*
X13572868Y-14134058D02*
X13582392Y-14143582D01*
X13582392Y-14143582D02*
X13591916Y-14162630D01*
X13591916Y-14162630D02*
X13591916Y-14210249D01*
X13591916Y-14210249D02*
X13582392Y-14229296D01*
X13582392Y-14229296D02*
X13572868Y-14238820D01*
X13572868Y-14238820D02*
X13553820Y-14248344D01*
X13553820Y-14248344D02*
X13496678Y-14248344D01*
X13496678Y-14248344D02*
X13477630Y-14238820D01*
X13477630Y-14238820D02*
X13468106Y-14229296D01*
X13763344Y-14048344D02*
X13725249Y-14048344D01*
X13725249Y-14048344D02*
X13706201Y-14057868D01*
X13706201Y-14057868D02*
X13696678Y-14067392D01*
X13696678Y-14067392D02*
X13677630Y-14095963D01*
X13677630Y-14095963D02*
X13668106Y-14134058D01*
X13668106Y-14134058D02*
X13668106Y-14210249D01*
X13668106Y-14210249D02*
X13677630Y-14229296D01*
X13677630Y-14229296D02*
X13687154Y-14238820D01*
X13687154Y-14238820D02*
X13706201Y-14248344D01*
X13706201Y-14248344D02*
X13744297Y-14248344D01*
X13744297Y-14248344D02*
X13763344Y-14238820D01*
X13763344Y-14238820D02*
X13772868Y-14229296D01*
X13772868Y-14229296D02*
X13782392Y-14210249D01*
X13782392Y-14210249D02*
X13782392Y-14162630D01*
X13782392Y-14162630D02*
X13772868Y-14143582D01*
X13772868Y-14143582D02*
X13763344Y-14134058D01*
X13763344Y-14134058D02*
X13744297Y-14124535D01*
X13744297Y-14124535D02*
X13706201Y-14124535D01*
X13706201Y-14124535D02*
X13687154Y-14134058D01*
X13687154Y-14134058D02*
X13677630Y-14143582D01*
X13677630Y-14143582D02*
X13668106Y-14162630D01*
X13858582Y-14048344D02*
X13858582Y-14086439D01*
X13934773Y-14048344D02*
X13934773Y-14086439D01*
X14197630Y-14324535D02*
X14188106Y-14315011D01*
X14188106Y-14315011D02*
X14169059Y-14286439D01*
X14169059Y-14286439D02*
X14159535Y-14267392D01*
X14159535Y-14267392D02*
X14150011Y-14238820D01*
X14150011Y-14238820D02*
X14140487Y-14191201D01*
X14140487Y-14191201D02*
X14140487Y-14153106D01*
X14140487Y-14153106D02*
X14150011Y-14105487D01*
X14150011Y-14105487D02*
X14159535Y-14076916D01*
X14159535Y-14076916D02*
X14169059Y-14057868D01*
X14169059Y-14057868D02*
X14188106Y-14029296D01*
X14188106Y-14029296D02*
X14197630Y-14019773D01*
X14311916Y-14048344D02*
X14330963Y-14048344D01*
X14330963Y-14048344D02*
X14350011Y-14057868D01*
X14350011Y-14057868D02*
X14359535Y-14067392D01*
X14359535Y-14067392D02*
X14369059Y-14086439D01*
X14369059Y-14086439D02*
X14378582Y-14124535D01*
X14378582Y-14124535D02*
X14378582Y-14172154D01*
X14378582Y-14172154D02*
X14369059Y-14210249D01*
X14369059Y-14210249D02*
X14359535Y-14229296D01*
X14359535Y-14229296D02*
X14350011Y-14238820D01*
X14350011Y-14238820D02*
X14330963Y-14248344D01*
X14330963Y-14248344D02*
X14311916Y-14248344D01*
X14311916Y-14248344D02*
X14292868Y-14238820D01*
X14292868Y-14238820D02*
X14283344Y-14229296D01*
X14283344Y-14229296D02*
X14273820Y-14210249D01*
X14273820Y-14210249D02*
X14264297Y-14172154D01*
X14264297Y-14172154D02*
X14264297Y-14124535D01*
X14264297Y-14124535D02*
X14273820Y-14086439D01*
X14273820Y-14086439D02*
X14283344Y-14067392D01*
X14283344Y-14067392D02*
X14292868Y-14057868D01*
X14292868Y-14057868D02*
X14311916Y-14048344D01*
X14584297Y-14248344D02*
X14584297Y-14048344D01*
X14670011Y-14248344D02*
X14670011Y-14143582D01*
X14670011Y-14143582D02*
X14660487Y-14124535D01*
X14660487Y-14124535D02*
X14641440Y-14115011D01*
X14641440Y-14115011D02*
X14612868Y-14115011D01*
X14612868Y-14115011D02*
X14593820Y-14124535D01*
X14593820Y-14124535D02*
X14584297Y-14134058D01*
X14793820Y-14248344D02*
X14774773Y-14238820D01*
X14774773Y-14238820D02*
X14765249Y-14229296D01*
X14765249Y-14229296D02*
X14755725Y-14210249D01*
X14755725Y-14210249D02*
X14755725Y-14153106D01*
X14755725Y-14153106D02*
X14765249Y-14134058D01*
X14765249Y-14134058D02*
X14774773Y-14124535D01*
X14774773Y-14124535D02*
X14793820Y-14115011D01*
X14793820Y-14115011D02*
X14822392Y-14115011D01*
X14822392Y-14115011D02*
X14841440Y-14124535D01*
X14841440Y-14124535D02*
X14850963Y-14134058D01*
X14850963Y-14134058D02*
X14860487Y-14153106D01*
X14860487Y-14153106D02*
X14860487Y-14210249D01*
X14860487Y-14210249D02*
X14850963Y-14229296D01*
X14850963Y-14229296D02*
X14841440Y-14238820D01*
X14841440Y-14238820D02*
X14822392Y-14248344D01*
X14822392Y-14248344D02*
X14793820Y-14248344D01*
X14974773Y-14248344D02*
X14955725Y-14238820D01*
X14955725Y-14238820D02*
X14946201Y-14219773D01*
X14946201Y-14219773D02*
X14946201Y-14048344D01*
X15127154Y-14238820D02*
X15108106Y-14248344D01*
X15108106Y-14248344D02*
X15070011Y-14248344D01*
X15070011Y-14248344D02*
X15050963Y-14238820D01*
X15050963Y-14238820D02*
X15041440Y-14219773D01*
X15041440Y-14219773D02*
X15041440Y-14143582D01*
X15041440Y-14143582D02*
X15050963Y-14124535D01*
X15050963Y-14124535D02*
X15070011Y-14115011D01*
X15070011Y-14115011D02*
X15108106Y-14115011D01*
X15108106Y-14115011D02*
X15127154Y-14124535D01*
X15127154Y-14124535D02*
X15136678Y-14143582D01*
X15136678Y-14143582D02*
X15136678Y-14162630D01*
X15136678Y-14162630D02*
X15041440Y-14181677D01*
X15212868Y-14238820D02*
X15231916Y-14248344D01*
X15231916Y-14248344D02*
X15270011Y-14248344D01*
X15270011Y-14248344D02*
X15289059Y-14238820D01*
X15289059Y-14238820D02*
X15298582Y-14219773D01*
X15298582Y-14219773D02*
X15298582Y-14210249D01*
X15298582Y-14210249D02*
X15289059Y-14191201D01*
X15289059Y-14191201D02*
X15270011Y-14181677D01*
X15270011Y-14181677D02*
X15241440Y-14181677D01*
X15241440Y-14181677D02*
X15222392Y-14172154D01*
X15222392Y-14172154D02*
X15212868Y-14153106D01*
X15212868Y-14153106D02*
X15212868Y-14143582D01*
X15212868Y-14143582D02*
X15222392Y-14124535D01*
X15222392Y-14124535D02*
X15241440Y-14115011D01*
X15241440Y-14115011D02*
X15270011Y-14115011D01*
X15270011Y-14115011D02*
X15289059Y-14124535D01*
X15504297Y-14172154D02*
X15656678Y-14172154D01*
X15580487Y-14248344D02*
X15580487Y-14095963D01*
X15957630Y-14115011D02*
X15957630Y-14248344D01*
X15910011Y-14038820D02*
X15862392Y-14181677D01*
X15862392Y-14181677D02*
X15986201Y-14181677D01*
X16172868Y-14238820D02*
X16191916Y-14248344D01*
X16191916Y-14248344D02*
X16230011Y-14248344D01*
X16230011Y-14248344D02*
X16249059Y-14238820D01*
X16249059Y-14238820D02*
X16258582Y-14219773D01*
X16258582Y-14219773D02*
X16258582Y-14210249D01*
X16258582Y-14210249D02*
X16249059Y-14191201D01*
X16249059Y-14191201D02*
X16230011Y-14181677D01*
X16230011Y-14181677D02*
X16201440Y-14181677D01*
X16201440Y-14181677D02*
X16182392Y-14172154D01*
X16182392Y-14172154D02*
X16172868Y-14153106D01*
X16172868Y-14153106D02*
X16172868Y-14143582D01*
X16172868Y-14143582D02*
X16182392Y-14124535D01*
X16182392Y-14124535D02*
X16201440Y-14115011D01*
X16201440Y-14115011D02*
X16230011Y-14115011D01*
X16230011Y-14115011D02*
X16249059Y-14124535D01*
X16372868Y-14248344D02*
X16353821Y-14238820D01*
X16353821Y-14238820D02*
X16344297Y-14219773D01*
X16344297Y-14219773D02*
X16344297Y-14048344D01*
X16477630Y-14248344D02*
X16458582Y-14238820D01*
X16458582Y-14238820D02*
X16449059Y-14229296D01*
X16449059Y-14229296D02*
X16439535Y-14210249D01*
X16439535Y-14210249D02*
X16439535Y-14153106D01*
X16439535Y-14153106D02*
X16449059Y-14134058D01*
X16449059Y-14134058D02*
X16458582Y-14124535D01*
X16458582Y-14124535D02*
X16477630Y-14115011D01*
X16477630Y-14115011D02*
X16506202Y-14115011D01*
X16506202Y-14115011D02*
X16525249Y-14124535D01*
X16525249Y-14124535D02*
X16534773Y-14134058D01*
X16534773Y-14134058D02*
X16544297Y-14153106D01*
X16544297Y-14153106D02*
X16544297Y-14210249D01*
X16544297Y-14210249D02*
X16534773Y-14229296D01*
X16534773Y-14229296D02*
X16525249Y-14238820D01*
X16525249Y-14238820D02*
X16506202Y-14248344D01*
X16506202Y-14248344D02*
X16477630Y-14248344D01*
X16601440Y-14115011D02*
X16677630Y-14115011D01*
X16630011Y-14048344D02*
X16630011Y-14219773D01*
X16630011Y-14219773D02*
X16639535Y-14238820D01*
X16639535Y-14238820D02*
X16658582Y-14248344D01*
X16658582Y-14248344D02*
X16677630Y-14248344D01*
X16734773Y-14238820D02*
X16753821Y-14248344D01*
X16753821Y-14248344D02*
X16791916Y-14248344D01*
X16791916Y-14248344D02*
X16810964Y-14238820D01*
X16810964Y-14238820D02*
X16820487Y-14219773D01*
X16820487Y-14219773D02*
X16820487Y-14210249D01*
X16820487Y-14210249D02*
X16810964Y-14191201D01*
X16810964Y-14191201D02*
X16791916Y-14181677D01*
X16791916Y-14181677D02*
X16763344Y-14181677D01*
X16763344Y-14181677D02*
X16744297Y-14172154D01*
X16744297Y-14172154D02*
X16734773Y-14153106D01*
X16734773Y-14153106D02*
X16734773Y-14143582D01*
X16734773Y-14143582D02*
X16744297Y-14124535D01*
X16744297Y-14124535D02*
X16763344Y-14115011D01*
X16763344Y-14115011D02*
X16791916Y-14115011D01*
X16791916Y-14115011D02*
X16810964Y-14124535D01*
X16887154Y-14324535D02*
X16896678Y-14315011D01*
X16896678Y-14315011D02*
X16915725Y-14286439D01*
X16915725Y-14286439D02*
X16925249Y-14267392D01*
X16925249Y-14267392D02*
X16934773Y-14238820D01*
X16934773Y-14238820D02*
X16944297Y-14191201D01*
X16944297Y-14191201D02*
X16944297Y-14153106D01*
X16944297Y-14153106D02*
X16934773Y-14105487D01*
X16934773Y-14105487D02*
X16925249Y-14076916D01*
X16925249Y-14076916D02*
X16915725Y-14057868D01*
X16915725Y-14057868D02*
X16896678Y-14029296D01*
X16896678Y-14029296D02*
X16887154Y-14019773D01*
D10*
X10682868Y-14488868D02*
X10732868Y-14438868D01*
X10682868Y-14388868D01*
X10632868Y-14438868D01*
X10682868Y-14488868D01*
D11*
X11085249Y-14512344D02*
X10970963Y-14512344D01*
X11028106Y-14512344D02*
X11028106Y-14312344D01*
X11028106Y-14312344D02*
X11009058Y-14340916D01*
X11009058Y-14340916D02*
X10990011Y-14359963D01*
X10990011Y-14359963D02*
X10970963Y-14369487D01*
X11170963Y-14493296D02*
X11180487Y-14502820D01*
X11180487Y-14502820D02*
X11170963Y-14512344D01*
X11170963Y-14512344D02*
X11161439Y-14502820D01*
X11161439Y-14502820D02*
X11170963Y-14493296D01*
X11170963Y-14493296D02*
X11170963Y-14512344D01*
X11304296Y-14312344D02*
X11323344Y-14312344D01*
X11323344Y-14312344D02*
X11342392Y-14321868D01*
X11342392Y-14321868D02*
X11351916Y-14331392D01*
X11351916Y-14331392D02*
X11361439Y-14350439D01*
X11361439Y-14350439D02*
X11370963Y-14388535D01*
X11370963Y-14388535D02*
X11370963Y-14436154D01*
X11370963Y-14436154D02*
X11361439Y-14474249D01*
X11361439Y-14474249D02*
X11351916Y-14493296D01*
X11351916Y-14493296D02*
X11342392Y-14502820D01*
X11342392Y-14502820D02*
X11323344Y-14512344D01*
X11323344Y-14512344D02*
X11304296Y-14512344D01*
X11304296Y-14512344D02*
X11285249Y-14502820D01*
X11285249Y-14502820D02*
X11275725Y-14493296D01*
X11275725Y-14493296D02*
X11266201Y-14474249D01*
X11266201Y-14474249D02*
X11256677Y-14436154D01*
X11256677Y-14436154D02*
X11256677Y-14388535D01*
X11256677Y-14388535D02*
X11266201Y-14350439D01*
X11266201Y-14350439D02*
X11275725Y-14331392D01*
X11275725Y-14331392D02*
X11285249Y-14321868D01*
X11285249Y-14321868D02*
X11304296Y-14312344D01*
X11494773Y-14312344D02*
X11513820Y-14312344D01*
X11513820Y-14312344D02*
X11532868Y-14321868D01*
X11532868Y-14321868D02*
X11542392Y-14331392D01*
X11542392Y-14331392D02*
X11551916Y-14350439D01*
X11551916Y-14350439D02*
X11561439Y-14388535D01*
X11561439Y-14388535D02*
X11561439Y-14436154D01*
X11561439Y-14436154D02*
X11551916Y-14474249D01*
X11551916Y-14474249D02*
X11542392Y-14493296D01*
X11542392Y-14493296D02*
X11532868Y-14502820D01*
X11532868Y-14502820D02*
X11513820Y-14512344D01*
X11513820Y-14512344D02*
X11494773Y-14512344D01*
X11494773Y-14512344D02*
X11475725Y-14502820D01*
X11475725Y-14502820D02*
X11466201Y-14493296D01*
X11466201Y-14493296D02*
X11456677Y-14474249D01*
X11456677Y-14474249D02*
X11447154Y-14436154D01*
X11447154Y-14436154D02*
X11447154Y-14388535D01*
X11447154Y-14388535D02*
X11456677Y-14350439D01*
X11456677Y-14350439D02*
X11466201Y-14331392D01*
X11466201Y-14331392D02*
X11475725Y-14321868D01*
X11475725Y-14321868D02*
X11494773Y-14312344D01*
X11685249Y-14312344D02*
X11704297Y-14312344D01*
X11704297Y-14312344D02*
X11723344Y-14321868D01*
X11723344Y-14321868D02*
X11732868Y-14331392D01*
X11732868Y-14331392D02*
X11742392Y-14350439D01*
X11742392Y-14350439D02*
X11751916Y-14388535D01*
X11751916Y-14388535D02*
X11751916Y-14436154D01*
X11751916Y-14436154D02*
X11742392Y-14474249D01*
X11742392Y-14474249D02*
X11732868Y-14493296D01*
X11732868Y-14493296D02*
X11723344Y-14502820D01*
X11723344Y-14502820D02*
X11704297Y-14512344D01*
X11704297Y-14512344D02*
X11685249Y-14512344D01*
X11685249Y-14512344D02*
X11666201Y-14502820D01*
X11666201Y-14502820D02*
X11656677Y-14493296D01*
X11656677Y-14493296D02*
X11647154Y-14474249D01*
X11647154Y-14474249D02*
X11637630Y-14436154D01*
X11637630Y-14436154D02*
X11637630Y-14388535D01*
X11637630Y-14388535D02*
X11647154Y-14350439D01*
X11647154Y-14350439D02*
X11656677Y-14331392D01*
X11656677Y-14331392D02*
X11666201Y-14321868D01*
X11666201Y-14321868D02*
X11685249Y-14312344D01*
X11837630Y-14512344D02*
X11837630Y-14379011D01*
X11837630Y-14398058D02*
X11847154Y-14388535D01*
X11847154Y-14388535D02*
X11866201Y-14379011D01*
X11866201Y-14379011D02*
X11894773Y-14379011D01*
X11894773Y-14379011D02*
X11913820Y-14388535D01*
X11913820Y-14388535D02*
X11923344Y-14407582D01*
X11923344Y-14407582D02*
X11923344Y-14512344D01*
X11923344Y-14407582D02*
X11932868Y-14388535D01*
X11932868Y-14388535D02*
X11951916Y-14379011D01*
X11951916Y-14379011D02*
X11980487Y-14379011D01*
X11980487Y-14379011D02*
X11999535Y-14388535D01*
X11999535Y-14388535D02*
X12009058Y-14407582D01*
X12009058Y-14407582D02*
X12009058Y-14512344D01*
X12104297Y-14512344D02*
X12104297Y-14379011D01*
X12104297Y-14398058D02*
X12113820Y-14388535D01*
X12113820Y-14388535D02*
X12132868Y-14379011D01*
X12132868Y-14379011D02*
X12161439Y-14379011D01*
X12161439Y-14379011D02*
X12180487Y-14388535D01*
X12180487Y-14388535D02*
X12190011Y-14407582D01*
X12190011Y-14407582D02*
X12190011Y-14512344D01*
X12190011Y-14407582D02*
X12199535Y-14388535D01*
X12199535Y-14388535D02*
X12218582Y-14379011D01*
X12218582Y-14379011D02*
X12247154Y-14379011D01*
X12247154Y-14379011D02*
X12266201Y-14388535D01*
X12266201Y-14388535D02*
X12275725Y-14407582D01*
X12275725Y-14407582D02*
X12275725Y-14512344D01*
X12633820Y-14302820D02*
X12462392Y-14559963D01*
X12858582Y-14312344D02*
X12877630Y-14312344D01*
X12877630Y-14312344D02*
X12896678Y-14321868D01*
X12896678Y-14321868D02*
X12906201Y-14331392D01*
X12906201Y-14331392D02*
X12915725Y-14350439D01*
X12915725Y-14350439D02*
X12925249Y-14388535D01*
X12925249Y-14388535D02*
X12925249Y-14436154D01*
X12925249Y-14436154D02*
X12915725Y-14474249D01*
X12915725Y-14474249D02*
X12906201Y-14493296D01*
X12906201Y-14493296D02*
X12896678Y-14502820D01*
X12896678Y-14502820D02*
X12877630Y-14512344D01*
X12877630Y-14512344D02*
X12858582Y-14512344D01*
X12858582Y-14512344D02*
X12839535Y-14502820D01*
X12839535Y-14502820D02*
X12830011Y-14493296D01*
X12830011Y-14493296D02*
X12820487Y-14474249D01*
X12820487Y-14474249D02*
X12810963Y-14436154D01*
X12810963Y-14436154D02*
X12810963Y-14388535D01*
X12810963Y-14388535D02*
X12820487Y-14350439D01*
X12820487Y-14350439D02*
X12830011Y-14331392D01*
X12830011Y-14331392D02*
X12839535Y-14321868D01*
X12839535Y-14321868D02*
X12858582Y-14312344D01*
X13010963Y-14493296D02*
X13020487Y-14502820D01*
X13020487Y-14502820D02*
X13010963Y-14512344D01*
X13010963Y-14512344D02*
X13001439Y-14502820D01*
X13001439Y-14502820D02*
X13010963Y-14493296D01*
X13010963Y-14493296D02*
X13010963Y-14512344D01*
X13144297Y-14312344D02*
X13163344Y-14312344D01*
X13163344Y-14312344D02*
X13182392Y-14321868D01*
X13182392Y-14321868D02*
X13191916Y-14331392D01*
X13191916Y-14331392D02*
X13201439Y-14350439D01*
X13201439Y-14350439D02*
X13210963Y-14388535D01*
X13210963Y-14388535D02*
X13210963Y-14436154D01*
X13210963Y-14436154D02*
X13201439Y-14474249D01*
X13201439Y-14474249D02*
X13191916Y-14493296D01*
X13191916Y-14493296D02*
X13182392Y-14502820D01*
X13182392Y-14502820D02*
X13163344Y-14512344D01*
X13163344Y-14512344D02*
X13144297Y-14512344D01*
X13144297Y-14512344D02*
X13125249Y-14502820D01*
X13125249Y-14502820D02*
X13115725Y-14493296D01*
X13115725Y-14493296D02*
X13106201Y-14474249D01*
X13106201Y-14474249D02*
X13096678Y-14436154D01*
X13096678Y-14436154D02*
X13096678Y-14388535D01*
X13096678Y-14388535D02*
X13106201Y-14350439D01*
X13106201Y-14350439D02*
X13115725Y-14331392D01*
X13115725Y-14331392D02*
X13125249Y-14321868D01*
X13125249Y-14321868D02*
X13144297Y-14312344D01*
X13277630Y-14312344D02*
X13401439Y-14312344D01*
X13401439Y-14312344D02*
X13334773Y-14388535D01*
X13334773Y-14388535D02*
X13363344Y-14388535D01*
X13363344Y-14388535D02*
X13382392Y-14398058D01*
X13382392Y-14398058D02*
X13391916Y-14407582D01*
X13391916Y-14407582D02*
X13401439Y-14426630D01*
X13401439Y-14426630D02*
X13401439Y-14474249D01*
X13401439Y-14474249D02*
X13391916Y-14493296D01*
X13391916Y-14493296D02*
X13382392Y-14502820D01*
X13382392Y-14502820D02*
X13363344Y-14512344D01*
X13363344Y-14512344D02*
X13306201Y-14512344D01*
X13306201Y-14512344D02*
X13287154Y-14502820D01*
X13287154Y-14502820D02*
X13277630Y-14493296D01*
X13496678Y-14512344D02*
X13534773Y-14512344D01*
X13534773Y-14512344D02*
X13553820Y-14502820D01*
X13553820Y-14502820D02*
X13563344Y-14493296D01*
X13563344Y-14493296D02*
X13582392Y-14464725D01*
X13582392Y-14464725D02*
X13591916Y-14426630D01*
X13591916Y-14426630D02*
X13591916Y-14350439D01*
X13591916Y-14350439D02*
X13582392Y-14331392D01*
X13582392Y-14331392D02*
X13572868Y-14321868D01*
X13572868Y-14321868D02*
X13553820Y-14312344D01*
X13553820Y-14312344D02*
X13515725Y-14312344D01*
X13515725Y-14312344D02*
X13496678Y-14321868D01*
X13496678Y-14321868D02*
X13487154Y-14331392D01*
X13487154Y-14331392D02*
X13477630Y-14350439D01*
X13477630Y-14350439D02*
X13477630Y-14398058D01*
X13477630Y-14398058D02*
X13487154Y-14417106D01*
X13487154Y-14417106D02*
X13496678Y-14426630D01*
X13496678Y-14426630D02*
X13515725Y-14436154D01*
X13515725Y-14436154D02*
X13553820Y-14436154D01*
X13553820Y-14436154D02*
X13572868Y-14426630D01*
X13572868Y-14426630D02*
X13582392Y-14417106D01*
X13582392Y-14417106D02*
X13591916Y-14398058D01*
X13763344Y-14379011D02*
X13763344Y-14512344D01*
X13715725Y-14302820D02*
X13668106Y-14445677D01*
X13668106Y-14445677D02*
X13791916Y-14445677D01*
X13858582Y-14312344D02*
X13858582Y-14350439D01*
X13934773Y-14312344D02*
X13934773Y-14350439D01*
X14197630Y-14588535D02*
X14188106Y-14579011D01*
X14188106Y-14579011D02*
X14169059Y-14550439D01*
X14169059Y-14550439D02*
X14159535Y-14531392D01*
X14159535Y-14531392D02*
X14150011Y-14502820D01*
X14150011Y-14502820D02*
X14140487Y-14455201D01*
X14140487Y-14455201D02*
X14140487Y-14417106D01*
X14140487Y-14417106D02*
X14150011Y-14369487D01*
X14150011Y-14369487D02*
X14159535Y-14340916D01*
X14159535Y-14340916D02*
X14169059Y-14321868D01*
X14169059Y-14321868D02*
X14188106Y-14293296D01*
X14188106Y-14293296D02*
X14197630Y-14283773D01*
X14378582Y-14512344D02*
X14264297Y-14512344D01*
X14321439Y-14512344D02*
X14321439Y-14312344D01*
X14321439Y-14312344D02*
X14302392Y-14340916D01*
X14302392Y-14340916D02*
X14283344Y-14359963D01*
X14283344Y-14359963D02*
X14264297Y-14369487D01*
X14550011Y-14379011D02*
X14550011Y-14512344D01*
X14502392Y-14302820D02*
X14454773Y-14445677D01*
X14454773Y-14445677D02*
X14578582Y-14445677D01*
X14774773Y-14512344D02*
X14774773Y-14312344D01*
X14860487Y-14512344D02*
X14860487Y-14407582D01*
X14860487Y-14407582D02*
X14850963Y-14388535D01*
X14850963Y-14388535D02*
X14831916Y-14379011D01*
X14831916Y-14379011D02*
X14803344Y-14379011D01*
X14803344Y-14379011D02*
X14784297Y-14388535D01*
X14784297Y-14388535D02*
X14774773Y-14398058D01*
X14984297Y-14512344D02*
X14965249Y-14502820D01*
X14965249Y-14502820D02*
X14955725Y-14493296D01*
X14955725Y-14493296D02*
X14946201Y-14474249D01*
X14946201Y-14474249D02*
X14946201Y-14417106D01*
X14946201Y-14417106D02*
X14955725Y-14398058D01*
X14955725Y-14398058D02*
X14965249Y-14388535D01*
X14965249Y-14388535D02*
X14984297Y-14379011D01*
X14984297Y-14379011D02*
X15012868Y-14379011D01*
X15012868Y-14379011D02*
X15031916Y-14388535D01*
X15031916Y-14388535D02*
X15041440Y-14398058D01*
X15041440Y-14398058D02*
X15050963Y-14417106D01*
X15050963Y-14417106D02*
X15050963Y-14474249D01*
X15050963Y-14474249D02*
X15041440Y-14493296D01*
X15041440Y-14493296D02*
X15031916Y-14502820D01*
X15031916Y-14502820D02*
X15012868Y-14512344D01*
X15012868Y-14512344D02*
X14984297Y-14512344D01*
X15165249Y-14512344D02*
X15146201Y-14502820D01*
X15146201Y-14502820D02*
X15136678Y-14483773D01*
X15136678Y-14483773D02*
X15136678Y-14312344D01*
X15317630Y-14502820D02*
X15298582Y-14512344D01*
X15298582Y-14512344D02*
X15260487Y-14512344D01*
X15260487Y-14512344D02*
X15241440Y-14502820D01*
X15241440Y-14502820D02*
X15231916Y-14483773D01*
X15231916Y-14483773D02*
X15231916Y-14407582D01*
X15231916Y-14407582D02*
X15241440Y-14388535D01*
X15241440Y-14388535D02*
X15260487Y-14379011D01*
X15260487Y-14379011D02*
X15298582Y-14379011D01*
X15298582Y-14379011D02*
X15317630Y-14388535D01*
X15317630Y-14388535D02*
X15327154Y-14407582D01*
X15327154Y-14407582D02*
X15327154Y-14426630D01*
X15327154Y-14426630D02*
X15231916Y-14445677D01*
X15403344Y-14502820D02*
X15422392Y-14512344D01*
X15422392Y-14512344D02*
X15460487Y-14512344D01*
X15460487Y-14512344D02*
X15479535Y-14502820D01*
X15479535Y-14502820D02*
X15489059Y-14483773D01*
X15489059Y-14483773D02*
X15489059Y-14474249D01*
X15489059Y-14474249D02*
X15479535Y-14455201D01*
X15479535Y-14455201D02*
X15460487Y-14445677D01*
X15460487Y-14445677D02*
X15431916Y-14445677D01*
X15431916Y-14445677D02*
X15412868Y-14436154D01*
X15412868Y-14436154D02*
X15403344Y-14417106D01*
X15403344Y-14417106D02*
X15403344Y-14407582D01*
X15403344Y-14407582D02*
X15412868Y-14388535D01*
X15412868Y-14388535D02*
X15431916Y-14379011D01*
X15431916Y-14379011D02*
X15460487Y-14379011D01*
X15460487Y-14379011D02*
X15479535Y-14388535D01*
X15555725Y-14588535D02*
X15565249Y-14579011D01*
X15565249Y-14579011D02*
X15584297Y-14550439D01*
X15584297Y-14550439D02*
X15593821Y-14531392D01*
X15593821Y-14531392D02*
X15603344Y-14502820D01*
X15603344Y-14502820D02*
X15612868Y-14455201D01*
X15612868Y-14455201D02*
X15612868Y-14417106D01*
X15612868Y-14417106D02*
X15603344Y-14369487D01*
X15603344Y-14369487D02*
X15593821Y-14340916D01*
X15593821Y-14340916D02*
X15584297Y-14321868D01*
X15584297Y-14321868D02*
X15565249Y-14293296D01*
X15565249Y-14293296D02*
X15555725Y-14283773D01*
M02*
