G04 #@! TF.GenerationSoftware,KiCad,Pcbnew,(7.0.0-0)*
G04 #@! TF.CreationDate,2023-03-01T12:49:35+00:00*
G04 #@! TF.ProjectId,winch-link,77696e63-682d-46c6-996e-6b2e6b696361,rev?*
G04 #@! TF.SameCoordinates,Original*
G04 #@! TF.FileFunction,Legend,Top*
G04 #@! TF.FilePolarity,Positive*
%FSLAX46Y46*%
G04 Gerber Fmt 4.6, Leading zero omitted, Abs format (unit mm)*
G04 Created by KiCad (PCBNEW (7.0.0-0)) date 2023-03-01 12:49:35*
%MOMM*%
%LPD*%
G01*
G04 APERTURE LIST*
G04 Aperture macros list*
%AMRoundRect*
0 Rectangle with rounded corners*
0 $1 Rounding radius*
0 $2 $3 $4 $5 $6 $7 $8 $9 X,Y pos of 4 corners*
0 Add a 4 corners polygon primitive as box body*
4,1,4,$2,$3,$4,$5,$6,$7,$8,$9,$2,$3,0*
0 Add four circle primitives for the rounded corners*
1,1,$1+$1,$2,$3*
1,1,$1+$1,$4,$5*
1,1,$1+$1,$6,$7*
1,1,$1+$1,$8,$9*
0 Add four rect primitives between the rounded corners*
20,1,$1+$1,$2,$3,$4,$5,0*
20,1,$1+$1,$4,$5,$6,$7,0*
20,1,$1+$1,$6,$7,$8,$9,0*
20,1,$1+$1,$8,$9,$2,$3,0*%
G04 Aperture macros list end*
%ADD10C,0.600000*%
%ADD11C,0.187500*%
%ADD12C,0.200000*%
%ADD13C,0.150000*%
%ADD14C,0.120000*%
%ADD15C,0.127000*%
%ADD16R,1.000000X2.000000*%
%ADD17R,1.400000X0.300000*%
%ADD18RoundRect,0.135000X-0.185000X0.135000X-0.185000X-0.135000X0.185000X-0.135000X0.185000X0.135000X0*%
%ADD19RoundRect,0.135000X0.185000X-0.135000X0.185000X0.135000X-0.185000X0.135000X-0.185000X-0.135000X0*%
%ADD20RoundRect,0.248355X-1.108073X-0.248355X1.108073X-0.248355X1.108073X0.248355X-1.108073X0.248355X0*%
%ADD21RoundRect,0.500000X-0.821500X-0.500000X0.821500X-0.500000X0.821500X0.500000X-0.821500X0.500000X0*%
%ADD22RoundRect,0.135000X0.135000X0.185000X-0.135000X0.185000X-0.135000X-0.185000X0.135000X-0.185000X0*%
%ADD23R,0.750000X1.000000*%
%ADD24R,0.700000X1.000000*%
%ADD25R,0.700000X0.600000*%
%ADD26R,1.700000X1.700000*%
%ADD27C,2.200000*%
%ADD28RoundRect,0.218750X-0.218750X-0.256250X0.218750X-0.256250X0.218750X0.256250X-0.218750X0.256250X0*%
%ADD29RoundRect,0.135000X-0.135000X-0.185000X0.135000X-0.185000X0.135000X0.185000X-0.135000X0.185000X0*%
%ADD30O,1.700000X1.700000*%
%ADD31R,1.500000X0.900000*%
%ADD32R,0.900000X1.500000*%
%ADD33C,0.800000*%
%ADD34R,3.800000X3.800000*%
%ADD35RoundRect,0.200000X-0.200000X-0.275000X0.200000X-0.275000X0.200000X0.275000X-0.200000X0.275000X0*%
%ADD36RoundRect,0.150000X0.150000X-0.512500X0.150000X0.512500X-0.150000X0.512500X-0.150000X-0.512500X0*%
%ADD37RoundRect,0.150000X-0.512500X-0.150000X0.512500X-0.150000X0.512500X0.150000X-0.512500X0.150000X0*%
%ADD38RoundRect,0.150000X-0.150000X0.587500X-0.150000X-0.587500X0.150000X-0.587500X0.150000X0.587500X0*%
%ADD39R,1.000000X0.700000*%
%ADD40R,0.600000X0.700000*%
%ADD41C,0.650000*%
%ADD42R,1.450000X0.600000*%
%ADD43R,1.450000X0.300000*%
%ADD44O,2.100000X1.000000*%
%ADD45O,1.600000X1.000000*%
%ADD46RoundRect,0.150000X-0.587500X-0.150000X0.587500X-0.150000X0.587500X0.150000X-0.587500X0.150000X0*%
G04 APERTURE END LIST*
D10*
X170575822Y-95440584D02*
X167909156Y-96202489D01*
X167909156Y-96202489D02*
X169813918Y-96964394D01*
X169813918Y-96964394D02*
X167909156Y-97726298D01*
X167909156Y-97726298D02*
X170575822Y-98488203D01*
X167909156Y-100012012D02*
X170575822Y-100012012D01*
X171909156Y-100012012D02*
X171718680Y-99821536D01*
X171718680Y-99821536D02*
X171528203Y-100012012D01*
X171528203Y-100012012D02*
X171718680Y-100202489D01*
X171718680Y-100202489D02*
X171909156Y-100012012D01*
X171909156Y-100012012D02*
X171528203Y-100012012D01*
X170575822Y-101916774D02*
X167909156Y-101916774D01*
X170194870Y-101916774D02*
X170385346Y-102107251D01*
X170385346Y-102107251D02*
X170575822Y-102488203D01*
X170575822Y-102488203D02*
X170575822Y-103059632D01*
X170575822Y-103059632D02*
X170385346Y-103440584D01*
X170385346Y-103440584D02*
X170004394Y-103631060D01*
X170004394Y-103631060D02*
X167909156Y-103631060D01*
X168099632Y-107250108D02*
X167909156Y-106869156D01*
X167909156Y-106869156D02*
X167909156Y-106107251D01*
X167909156Y-106107251D02*
X168099632Y-105726299D01*
X168099632Y-105726299D02*
X168290108Y-105535822D01*
X168290108Y-105535822D02*
X168671060Y-105345346D01*
X168671060Y-105345346D02*
X169813918Y-105345346D01*
X169813918Y-105345346D02*
X170194870Y-105535822D01*
X170194870Y-105535822D02*
X170385346Y-105726299D01*
X170385346Y-105726299D02*
X170575822Y-106107251D01*
X170575822Y-106107251D02*
X170575822Y-106869156D01*
X170575822Y-106869156D02*
X170385346Y-107250108D01*
X167909156Y-108964393D02*
X171909156Y-108964393D01*
X167909156Y-110678679D02*
X170004394Y-110678679D01*
X170004394Y-110678679D02*
X170385346Y-110488203D01*
X170385346Y-110488203D02*
X170575822Y-110107251D01*
X170575822Y-110107251D02*
X170575822Y-109535822D01*
X170575822Y-109535822D02*
X170385346Y-109154870D01*
X170385346Y-109154870D02*
X170194870Y-108964393D01*
X167909156Y-115554870D02*
X168099632Y-115173918D01*
X168099632Y-115173918D02*
X168480584Y-114983441D01*
X168480584Y-114983441D02*
X171909156Y-114983441D01*
X167909156Y-117078679D02*
X170575822Y-117078679D01*
X171909156Y-117078679D02*
X171718680Y-116888203D01*
X171718680Y-116888203D02*
X171528203Y-117078679D01*
X171528203Y-117078679D02*
X171718680Y-117269156D01*
X171718680Y-117269156D02*
X171909156Y-117078679D01*
X171909156Y-117078679D02*
X171528203Y-117078679D01*
X170575822Y-118983441D02*
X167909156Y-118983441D01*
X170194870Y-118983441D02*
X170385346Y-119173918D01*
X170385346Y-119173918D02*
X170575822Y-119554870D01*
X170575822Y-119554870D02*
X170575822Y-120126299D01*
X170575822Y-120126299D02*
X170385346Y-120507251D01*
X170385346Y-120507251D02*
X170004394Y-120697727D01*
X170004394Y-120697727D02*
X167909156Y-120697727D01*
X167909156Y-122602489D02*
X171909156Y-122602489D01*
X169432965Y-122983442D02*
X167909156Y-124126299D01*
X170575822Y-124126299D02*
X169052013Y-122602489D01*
D11*
X124271537Y-125429751D02*
X124271537Y-123929751D01*
X124271537Y-123929751D02*
X124628680Y-123929751D01*
X124628680Y-123929751D02*
X124842966Y-124001180D01*
X124842966Y-124001180D02*
X124985823Y-124144037D01*
X124985823Y-124144037D02*
X125057252Y-124286894D01*
X125057252Y-124286894D02*
X125128680Y-124572608D01*
X125128680Y-124572608D02*
X125128680Y-124786894D01*
X125128680Y-124786894D02*
X125057252Y-125072608D01*
X125057252Y-125072608D02*
X124985823Y-125215465D01*
X124985823Y-125215465D02*
X124842966Y-125358322D01*
X124842966Y-125358322D02*
X124628680Y-125429751D01*
X124628680Y-125429751D02*
X124271537Y-125429751D01*
X125771537Y-125429751D02*
X125771537Y-123929751D01*
X126414395Y-125358322D02*
X126628681Y-125429751D01*
X126628681Y-125429751D02*
X126985823Y-125429751D01*
X126985823Y-125429751D02*
X127128681Y-125358322D01*
X127128681Y-125358322D02*
X127200109Y-125286894D01*
X127200109Y-125286894D02*
X127271538Y-125144037D01*
X127271538Y-125144037D02*
X127271538Y-125001180D01*
X127271538Y-125001180D02*
X127200109Y-124858322D01*
X127200109Y-124858322D02*
X127128681Y-124786894D01*
X127128681Y-124786894D02*
X126985823Y-124715465D01*
X126985823Y-124715465D02*
X126700109Y-124644037D01*
X126700109Y-124644037D02*
X126557252Y-124572608D01*
X126557252Y-124572608D02*
X126485823Y-124501180D01*
X126485823Y-124501180D02*
X126414395Y-124358322D01*
X126414395Y-124358322D02*
X126414395Y-124215465D01*
X126414395Y-124215465D02*
X126485823Y-124072608D01*
X126485823Y-124072608D02*
X126557252Y-124001180D01*
X126557252Y-124001180D02*
X126700109Y-123929751D01*
X126700109Y-123929751D02*
X127057252Y-123929751D01*
X127057252Y-123929751D02*
X127271538Y-124001180D01*
X127914394Y-125429751D02*
X127914394Y-123929751D01*
X127914394Y-123929751D02*
X128485823Y-123929751D01*
X128485823Y-123929751D02*
X128628680Y-124001180D01*
X128628680Y-124001180D02*
X128700109Y-124072608D01*
X128700109Y-124072608D02*
X128771537Y-124215465D01*
X128771537Y-124215465D02*
X128771537Y-124429751D01*
X128771537Y-124429751D02*
X128700109Y-124572608D01*
X128700109Y-124572608D02*
X128628680Y-124644037D01*
X128628680Y-124644037D02*
X128485823Y-124715465D01*
X128485823Y-124715465D02*
X127914394Y-124715465D01*
X130128680Y-125429751D02*
X129414394Y-125429751D01*
X129414394Y-125429751D02*
X129414394Y-123929751D01*
X130557252Y-125001180D02*
X131271538Y-125001180D01*
X130414395Y-125429751D02*
X130914395Y-123929751D01*
X130914395Y-123929751D02*
X131414395Y-125429751D01*
X132200109Y-124715465D02*
X132200109Y-125429751D01*
X131700109Y-123929751D02*
X132200109Y-124715465D01*
X132200109Y-124715465D02*
X132700109Y-123929751D01*
X110799999Y-95644037D02*
X111014285Y-95715465D01*
X111014285Y-95715465D02*
X111085714Y-95786894D01*
X111085714Y-95786894D02*
X111157142Y-95929751D01*
X111157142Y-95929751D02*
X111157142Y-96144037D01*
X111157142Y-96144037D02*
X111085714Y-96286894D01*
X111085714Y-96286894D02*
X111014285Y-96358322D01*
X111014285Y-96358322D02*
X110871428Y-96429751D01*
X110871428Y-96429751D02*
X110299999Y-96429751D01*
X110299999Y-96429751D02*
X110299999Y-94929751D01*
X110299999Y-94929751D02*
X110799999Y-94929751D01*
X110799999Y-94929751D02*
X110942857Y-95001180D01*
X110942857Y-95001180D02*
X111014285Y-95072608D01*
X111014285Y-95072608D02*
X111085714Y-95215465D01*
X111085714Y-95215465D02*
X111085714Y-95358322D01*
X111085714Y-95358322D02*
X111014285Y-95501180D01*
X111014285Y-95501180D02*
X110942857Y-95572608D01*
X110942857Y-95572608D02*
X110799999Y-95644037D01*
X110799999Y-95644037D02*
X110299999Y-95644037D01*
X111585714Y-94929751D02*
X112442857Y-94929751D01*
X112014285Y-96429751D02*
X112014285Y-94929751D01*
X112942856Y-96429751D02*
X112942856Y-94929751D01*
X112942856Y-94929751D02*
X113799999Y-96429751D01*
X113799999Y-96429751D02*
X113799999Y-94929751D01*
X114442857Y-95072608D02*
X114514285Y-95001180D01*
X114514285Y-95001180D02*
X114657143Y-94929751D01*
X114657143Y-94929751D02*
X115014285Y-94929751D01*
X115014285Y-94929751D02*
X115157143Y-95001180D01*
X115157143Y-95001180D02*
X115228571Y-95072608D01*
X115228571Y-95072608D02*
X115300000Y-95215465D01*
X115300000Y-95215465D02*
X115300000Y-95358322D01*
X115300000Y-95358322D02*
X115228571Y-95572608D01*
X115228571Y-95572608D02*
X114371428Y-96429751D01*
X114371428Y-96429751D02*
X115300000Y-96429751D01*
X141414394Y-124644037D02*
X141628680Y-124715465D01*
X141628680Y-124715465D02*
X141700109Y-124786894D01*
X141700109Y-124786894D02*
X141771537Y-124929751D01*
X141771537Y-124929751D02*
X141771537Y-125144037D01*
X141771537Y-125144037D02*
X141700109Y-125286894D01*
X141700109Y-125286894D02*
X141628680Y-125358322D01*
X141628680Y-125358322D02*
X141485823Y-125429751D01*
X141485823Y-125429751D02*
X140914394Y-125429751D01*
X140914394Y-125429751D02*
X140914394Y-123929751D01*
X140914394Y-123929751D02*
X141414394Y-123929751D01*
X141414394Y-123929751D02*
X141557252Y-124001180D01*
X141557252Y-124001180D02*
X141628680Y-124072608D01*
X141628680Y-124072608D02*
X141700109Y-124215465D01*
X141700109Y-124215465D02*
X141700109Y-124358322D01*
X141700109Y-124358322D02*
X141628680Y-124501180D01*
X141628680Y-124501180D02*
X141557252Y-124572608D01*
X141557252Y-124572608D02*
X141414394Y-124644037D01*
X141414394Y-124644037D02*
X140914394Y-124644037D01*
X142200109Y-123929751D02*
X143057252Y-123929751D01*
X142628680Y-125429751D02*
X142628680Y-123929751D01*
X143557251Y-125429751D02*
X143557251Y-123929751D01*
X143557251Y-123929751D02*
X144414394Y-125429751D01*
X144414394Y-125429751D02*
X144414394Y-123929751D01*
X145914395Y-125429751D02*
X145057252Y-125429751D01*
X145485823Y-125429751D02*
X145485823Y-123929751D01*
X145485823Y-123929751D02*
X145342966Y-124144037D01*
X145342966Y-124144037D02*
X145200109Y-124286894D01*
X145200109Y-124286894D02*
X145057252Y-124358322D01*
D12*
X153960227Y-119854870D02*
X156460227Y-119854870D01*
X156460227Y-119854870D02*
X156460227Y-120616775D01*
X156460227Y-120616775D02*
X156341180Y-120807251D01*
X156341180Y-120807251D02*
X156222132Y-120902489D01*
X156222132Y-120902489D02*
X155984037Y-120997727D01*
X155984037Y-120997727D02*
X155626894Y-120997727D01*
X155626894Y-120997727D02*
X155388799Y-120902489D01*
X155388799Y-120902489D02*
X155269751Y-120807251D01*
X155269751Y-120807251D02*
X155150703Y-120616775D01*
X155150703Y-120616775D02*
X155150703Y-119854870D01*
X153960227Y-122997727D02*
X155150703Y-122331060D01*
X153960227Y-121854870D02*
X156460227Y-121854870D01*
X156460227Y-121854870D02*
X156460227Y-122616775D01*
X156460227Y-122616775D02*
X156341180Y-122807251D01*
X156341180Y-122807251D02*
X156222132Y-122902489D01*
X156222132Y-122902489D02*
X155984037Y-122997727D01*
X155984037Y-122997727D02*
X155626894Y-122997727D01*
X155626894Y-122997727D02*
X155388799Y-122902489D01*
X155388799Y-122902489D02*
X155269751Y-122807251D01*
X155269751Y-122807251D02*
X155150703Y-122616775D01*
X155150703Y-122616775D02*
X155150703Y-121854870D01*
X156341180Y-124902489D02*
X156460227Y-124712013D01*
X156460227Y-124712013D02*
X156460227Y-124426299D01*
X156460227Y-124426299D02*
X156341180Y-124140584D01*
X156341180Y-124140584D02*
X156103084Y-123950108D01*
X156103084Y-123950108D02*
X155864989Y-123854870D01*
X155864989Y-123854870D02*
X155388799Y-123759632D01*
X155388799Y-123759632D02*
X155031656Y-123759632D01*
X155031656Y-123759632D02*
X154555465Y-123854870D01*
X154555465Y-123854870D02*
X154317370Y-123950108D01*
X154317370Y-123950108D02*
X154079275Y-124140584D01*
X154079275Y-124140584D02*
X153960227Y-124426299D01*
X153960227Y-124426299D02*
X153960227Y-124616775D01*
X153960227Y-124616775D02*
X154079275Y-124902489D01*
X154079275Y-124902489D02*
X154198322Y-124997727D01*
X154198322Y-124997727D02*
X155031656Y-124997727D01*
X155031656Y-124997727D02*
X155031656Y-124616775D01*
D13*
X119507380Y-107931904D02*
X120316904Y-107931904D01*
X120316904Y-107931904D02*
X120412142Y-107884285D01*
X120412142Y-107884285D02*
X120459761Y-107836666D01*
X120459761Y-107836666D02*
X120507380Y-107741428D01*
X120507380Y-107741428D02*
X120507380Y-107550952D01*
X120507380Y-107550952D02*
X120459761Y-107455714D01*
X120459761Y-107455714D02*
X120412142Y-107408095D01*
X120412142Y-107408095D02*
X120316904Y-107360476D01*
X120316904Y-107360476D02*
X119507380Y-107360476D01*
X119507380Y-106408095D02*
X119507380Y-106884285D01*
X119507380Y-106884285D02*
X119983571Y-106931904D01*
X119983571Y-106931904D02*
X119935952Y-106884285D01*
X119935952Y-106884285D02*
X119888333Y-106789047D01*
X119888333Y-106789047D02*
X119888333Y-106550952D01*
X119888333Y-106550952D02*
X119935952Y-106455714D01*
X119935952Y-106455714D02*
X119983571Y-106408095D01*
X119983571Y-106408095D02*
X120078809Y-106360476D01*
X120078809Y-106360476D02*
X120316904Y-106360476D01*
X120316904Y-106360476D02*
X120412142Y-106408095D01*
X120412142Y-106408095D02*
X120459761Y-106455714D01*
X120459761Y-106455714D02*
X120507380Y-106550952D01*
X120507380Y-106550952D02*
X120507380Y-106789047D01*
X120507380Y-106789047D02*
X120459761Y-106884285D01*
X120459761Y-106884285D02*
X120412142Y-106931904D01*
D14*
X143278680Y-107528577D02*
X143628680Y-107528577D01*
X143278680Y-107528577D02*
X143278680Y-91328577D01*
X143628680Y-107528577D02*
X143628680Y-108428577D01*
X159078680Y-107528577D02*
X159478680Y-107528577D01*
X159478680Y-107528577D02*
X159478680Y-91328577D01*
X143278680Y-91328577D02*
X143678680Y-91328577D01*
X159478680Y-91328577D02*
X159078680Y-91328577D01*
D13*
X134709279Y-112606036D02*
X134709279Y-112831036D01*
X134709279Y-112606036D02*
X138059279Y-112606036D01*
X134709279Y-112831036D02*
X133484279Y-112831036D01*
X134709279Y-115956036D02*
X134709279Y-115656036D01*
X134709279Y-115956036D02*
X138059279Y-115956036D01*
X138059279Y-112606036D02*
X138059279Y-112906036D01*
X138059279Y-115956036D02*
X138059279Y-115656036D01*
D14*
X152118967Y-110512281D02*
X152118967Y-110819563D01*
X151358967Y-110512281D02*
X151358967Y-110819563D01*
X147424194Y-110819563D02*
X147424194Y-110512281D01*
X148184194Y-110819563D02*
X148184194Y-110512281D01*
X157434302Y-123749080D02*
X157434302Y-123441798D01*
X158194302Y-123749080D02*
X158194302Y-123441798D01*
X157434302Y-121249080D02*
X157434302Y-120941798D01*
X158194302Y-121249080D02*
X158194302Y-120941798D01*
X157320803Y-111998158D02*
X157320803Y-111690876D01*
X158080803Y-111998158D02*
X158080803Y-111690876D01*
X136532321Y-111758680D02*
X136225039Y-111758680D01*
X136532321Y-110998680D02*
X136225039Y-110998680D01*
D15*
X162764572Y-110515863D02*
X160404572Y-110515863D01*
X164134572Y-115315863D02*
X164134572Y-110815863D01*
X159034572Y-115315863D02*
X159034572Y-110815863D01*
X160404572Y-115615863D02*
X162764572Y-115615863D01*
D12*
X163559572Y-108815863D02*
G75*
G03*
X163559572Y-108815863I-100000J0D01*
G01*
D14*
X149931055Y-114048982D02*
X148631055Y-114048982D01*
X148631055Y-117168982D02*
X150631055Y-117168982D01*
D15*
X162978829Y-119776763D02*
X160618829Y-119776763D01*
X164348829Y-124576763D02*
X164348829Y-120076763D01*
X159248829Y-124576763D02*
X159248829Y-120076763D01*
X160618829Y-124876763D02*
X162978829Y-124876763D01*
D12*
X163773829Y-118076763D02*
G75*
G03*
X163773829Y-118076763I-100000J0D01*
G01*
D14*
X161548680Y-101548680D02*
X162878680Y-101548680D01*
X161548680Y-102878680D02*
X161548680Y-101548680D01*
X161548680Y-104148680D02*
X161548680Y-104208680D01*
X161548680Y-104148680D02*
X164208680Y-104148680D01*
X161548680Y-104208680D02*
X164208680Y-104208680D01*
X164208680Y-104148680D02*
X164208680Y-104208680D01*
X143424194Y-110819563D02*
X143424194Y-110512281D01*
X144184194Y-110819563D02*
X144184194Y-110512281D01*
X117258680Y-124711480D02*
X117258680Y-125018762D01*
X116498680Y-124711480D02*
X116498680Y-125018762D01*
X126015000Y-116515000D02*
X126015000Y-117985000D01*
X126015000Y-117985000D02*
X128300000Y-117985000D01*
X128300000Y-116515000D02*
X126015000Y-116515000D01*
X122096359Y-110370000D02*
X122403641Y-110370000D01*
X122096359Y-111130000D02*
X122403641Y-111130000D01*
X109548680Y-101548680D02*
X110878680Y-101548680D01*
X109548680Y-102878680D02*
X109548680Y-101548680D01*
X109548680Y-104148680D02*
X109548680Y-104208680D01*
X109548680Y-104148680D02*
X112208680Y-104148680D01*
X109548680Y-104208680D02*
X112208680Y-104208680D01*
X112208680Y-104148680D02*
X112208680Y-104208680D01*
X123522321Y-117758680D02*
X123215039Y-117758680D01*
X123522321Y-116998680D02*
X123215039Y-116998680D01*
X143320711Y-119386921D02*
X140720711Y-119386921D01*
X143320711Y-119386921D02*
X143320711Y-122046921D01*
X140720711Y-119386921D02*
X140720711Y-122046921D01*
X145920711Y-120716921D02*
X145920711Y-122046921D01*
X145920711Y-122046921D02*
X144590711Y-122046921D01*
X143320711Y-122046921D02*
X140720711Y-122046921D01*
X121630000Y-82880000D02*
X121630000Y-89295000D01*
X121630000Y-82880000D02*
X139870000Y-82880000D01*
X121630000Y-89295000D02*
X121250000Y-89295000D01*
X121630000Y-107840000D02*
X121630000Y-108620000D01*
X121630000Y-108620000D02*
X122630000Y-108620000D01*
X139870000Y-82880000D02*
X139870000Y-89295000D01*
X139870000Y-107840000D02*
X139870000Y-108620000D01*
X139870000Y-108620000D02*
X138870000Y-108620000D01*
X129136850Y-115211082D02*
X128829568Y-115211082D01*
X129136850Y-114451082D02*
X128829568Y-114451082D01*
X149424194Y-110819563D02*
X149424194Y-110512281D01*
X150184194Y-110819563D02*
X150184194Y-110512281D01*
X128829568Y-112998680D02*
X129136850Y-112998680D01*
X128829568Y-113758680D02*
X129136850Y-113758680D01*
X119096359Y-110370000D02*
X119403641Y-110370000D01*
X119096359Y-111130000D02*
X119403641Y-111130000D01*
X157320803Y-114498158D02*
X157320803Y-114190876D01*
X158080803Y-114498158D02*
X158080803Y-114190876D01*
X129042321Y-112258680D02*
X128735039Y-112258680D01*
X129042321Y-111498680D02*
X128735039Y-111498680D01*
X161187742Y-92477500D02*
X161662258Y-92477500D01*
X161187742Y-93522500D02*
X161662258Y-93522500D01*
X123320556Y-113679142D02*
X123320556Y-115479142D01*
X123320556Y-113679142D02*
X123320556Y-112879142D01*
X126440556Y-113679142D02*
X126440556Y-114479142D01*
X126440556Y-113679142D02*
X126440556Y-112879142D01*
X118328208Y-94130000D02*
X118635490Y-94130000D01*
X118328208Y-94890000D02*
X118635490Y-94890000D01*
X145424194Y-110819563D02*
X145424194Y-110512281D01*
X146184194Y-110819563D02*
X146184194Y-110512281D01*
X112784285Y-93183680D02*
X115384285Y-93183680D01*
X112784285Y-93183680D02*
X112784285Y-90523680D01*
X115384285Y-93183680D02*
X115384285Y-90523680D01*
X110184285Y-91853680D02*
X110184285Y-90523680D01*
X110184285Y-90523680D02*
X111514285Y-90523680D01*
X112784285Y-90523680D02*
X115384285Y-90523680D01*
X120250000Y-111690000D02*
X118450000Y-111690000D01*
X120250000Y-111690000D02*
X121050000Y-111690000D01*
X120250000Y-114810000D02*
X119450000Y-114810000D01*
X120250000Y-114810000D02*
X121050000Y-114810000D01*
X117998680Y-125022321D02*
X117998680Y-124715039D01*
X118758680Y-125022321D02*
X118758680Y-124715039D01*
X117060000Y-107500000D02*
X117060000Y-105825000D01*
X117060000Y-107500000D02*
X117060000Y-108150000D01*
X113940000Y-107500000D02*
X113940000Y-106850000D01*
X113940000Y-107500000D02*
X113940000Y-108150000D01*
X116818680Y-91228680D02*
X116818680Y-92528680D01*
X119938680Y-92528680D02*
X119938680Y-90528680D01*
X113233680Y-111285517D02*
X111233680Y-111285517D01*
X109333680Y-111285517D02*
X107433680Y-111285517D01*
X107433680Y-111285517D02*
X107433680Y-120685517D01*
X113233680Y-120685517D02*
X111233680Y-120685517D01*
X109333680Y-120685517D02*
X107433680Y-120685517D01*
X138583680Y-119306053D02*
X138583680Y-120636053D01*
X137253680Y-119306053D02*
X138583680Y-119306053D01*
X135983680Y-119306053D02*
X118143680Y-119306053D01*
X135983680Y-119306053D02*
X135983680Y-121966053D01*
X118143680Y-119306053D02*
X118143680Y-121966053D01*
X135983680Y-121966053D02*
X118143680Y-121966053D01*
X115758680Y-124695372D02*
X115758680Y-125002654D01*
X114998680Y-124695372D02*
X114998680Y-125002654D01*
X141946779Y-112721036D02*
X140271779Y-112721036D01*
X141946779Y-112721036D02*
X142596779Y-112721036D01*
X141946779Y-115841036D02*
X141296779Y-115841036D01*
X141946779Y-115841036D02*
X142596779Y-115841036D01*
X147161055Y-115445341D02*
X147161055Y-115752623D01*
X146401055Y-115445341D02*
X146401055Y-115752623D01*
%LPC*%
D16*
X144378679Y-107428576D03*
X146378679Y-107428576D03*
X148378679Y-107428576D03*
X150378679Y-107428576D03*
X152378679Y-107428576D03*
X154378679Y-107428576D03*
X156378679Y-107428576D03*
X158378679Y-107428576D03*
X158378679Y-91428576D03*
X156378679Y-91428576D03*
X154378679Y-91428576D03*
X152378679Y-91428576D03*
X150378679Y-91428576D03*
X148378679Y-91428576D03*
X146378679Y-91428576D03*
X144378679Y-91428576D03*
D17*
X134184278Y-113281035D03*
X134184278Y-113781035D03*
X134184278Y-114281035D03*
X134184278Y-114781035D03*
X134184278Y-115281035D03*
X138584278Y-115281035D03*
X138584278Y-114781035D03*
X138584278Y-114281035D03*
X138584278Y-113781035D03*
X138584278Y-113281035D03*
D18*
X151738967Y-110155922D03*
X151738967Y-111175922D03*
D19*
X147804194Y-111175922D03*
X147804194Y-110155922D03*
X157814302Y-124105439D03*
X157814302Y-123085439D03*
X157814302Y-121605439D03*
X157814302Y-120585439D03*
D20*
X164817293Y-86427869D03*
D21*
X164752965Y-92925699D03*
D19*
X157700803Y-112354517D03*
X157700803Y-111334517D03*
D22*
X136888680Y-111378680D03*
X135868680Y-111378680D03*
D23*
X163459571Y-110065862D03*
X163459571Y-116065862D03*
X159709571Y-110065862D03*
X159709571Y-116065862D03*
D24*
X150281054Y-116358981D03*
D25*
X150281054Y-114658981D03*
X148281054Y-114658981D03*
X148281054Y-116558981D03*
D23*
X163673828Y-119326762D03*
X163673828Y-125326762D03*
X159923828Y-119326762D03*
X159923828Y-125326762D03*
D26*
X162878679Y-102878679D03*
D27*
X158378680Y-85378680D03*
D19*
X143804194Y-111175922D03*
X143804194Y-110155922D03*
D18*
X116878680Y-124355121D03*
X116878680Y-125375121D03*
D28*
X126712500Y-117250000D03*
X128287500Y-117250000D03*
D29*
X121740000Y-110750000D03*
X122760000Y-110750000D03*
D26*
X110878679Y-102878679D03*
D22*
X123878680Y-117378680D03*
X122858680Y-117378680D03*
D26*
X144590710Y-120716920D03*
D30*
X142050710Y-120716920D03*
D27*
X110378680Y-85378680D03*
D31*
X121999999Y-90489999D03*
X121999999Y-91759999D03*
X121999999Y-93029999D03*
X121999999Y-94299999D03*
X121999999Y-95569999D03*
X121999999Y-96839999D03*
X121999999Y-98109999D03*
X121999999Y-99379999D03*
X121999999Y-100649999D03*
X121999999Y-101919999D03*
X121999999Y-103189999D03*
X121999999Y-104459999D03*
X121999999Y-105729999D03*
X121999999Y-106999999D03*
D32*
X125039999Y-108249999D03*
X126309999Y-108249999D03*
X127579999Y-108249999D03*
X128849999Y-108249999D03*
X130119999Y-108249999D03*
X131389999Y-108249999D03*
X132659999Y-108249999D03*
X133929999Y-108249999D03*
X135199999Y-108249999D03*
X136469999Y-108249999D03*
D31*
X139499999Y-106999999D03*
X139499999Y-105729999D03*
X139499999Y-104459999D03*
X139499999Y-103189999D03*
X139499999Y-101919999D03*
X139499999Y-100649999D03*
X139499999Y-99379999D03*
X139499999Y-98109999D03*
X139499999Y-96839999D03*
X139499999Y-95569999D03*
X139499999Y-94299999D03*
X139499999Y-93029999D03*
X139499999Y-91759999D03*
X139499999Y-90489999D03*
D33*
X128032116Y-99490863D03*
X128070405Y-96886446D03*
X129250000Y-98210000D03*
D34*
X129249999Y-98209999D03*
D33*
X130471675Y-99478157D03*
X130497087Y-96911539D03*
D22*
X129493209Y-114831082D03*
X128473209Y-114831082D03*
D19*
X149804194Y-111175922D03*
X149804194Y-110155922D03*
D29*
X128473209Y-113378680D03*
X129493209Y-113378680D03*
X118740000Y-110750000D03*
X119760000Y-110750000D03*
D19*
X157700803Y-114854517D03*
X157700803Y-113834517D03*
D22*
X129398680Y-111878680D03*
X128378680Y-111878680D03*
D27*
X110378680Y-124378680D03*
D35*
X160600000Y-93000000D03*
X162250000Y-93000000D03*
D36*
X123930556Y-114816642D03*
X124880556Y-114816642D03*
X125830556Y-114816642D03*
X125830556Y-112541642D03*
X123930556Y-112541642D03*
D29*
X117971849Y-94510000D03*
X118991849Y-94510000D03*
D19*
X145804194Y-111175922D03*
X145804194Y-110155922D03*
D27*
X150378680Y-124378680D03*
D26*
X111514284Y-91853679D03*
D30*
X114054284Y-91853679D03*
D37*
X119112500Y-112300000D03*
X119112500Y-113250000D03*
X119112500Y-114200000D03*
X121387500Y-114200000D03*
X121387500Y-112300000D03*
D19*
X118378680Y-125378680D03*
X118378680Y-124358680D03*
D38*
X116450000Y-106562500D03*
X114550000Y-106562500D03*
X115500000Y-108437500D03*
D39*
X119128679Y-90878679D03*
D40*
X117428679Y-90878679D03*
X117428679Y-92878679D03*
X119328679Y-92878679D03*
D41*
X113933680Y-113095517D03*
X113933680Y-118875517D03*
D42*
X115378679Y-112735516D03*
X115378679Y-113535516D03*
D43*
X115378679Y-114735516D03*
X115378679Y-115735516D03*
X115378679Y-116235516D03*
X115378679Y-117235516D03*
D42*
X115378679Y-118435516D03*
X115378679Y-119235516D03*
X115378679Y-119235516D03*
X115378679Y-118435516D03*
D43*
X115378679Y-117735516D03*
X115378679Y-116735516D03*
X115378679Y-115235516D03*
X115378679Y-114235516D03*
D42*
X115378679Y-113535516D03*
X115378679Y-112735516D03*
D44*
X114463679Y-111665516D03*
D45*
X110283679Y-111665516D03*
D44*
X114463679Y-120305516D03*
D45*
X110283679Y-120305516D03*
D26*
X137253679Y-120636052D03*
D30*
X134713679Y-120636052D03*
X132173679Y-120636052D03*
X129633679Y-120636052D03*
X127093679Y-120636052D03*
X124553679Y-120636052D03*
X122013679Y-120636052D03*
X119473679Y-120636052D03*
D18*
X115378680Y-124339013D03*
X115378680Y-125359013D03*
D46*
X141009279Y-113331036D03*
X141009279Y-115231036D03*
X142884279Y-114281036D03*
D18*
X146781055Y-115088982D03*
X146781055Y-116108982D03*
M02*
