G04 #@! TF.GenerationSoftware,KiCad,Pcbnew,(7.0.0-0)*
G04 #@! TF.CreationDate,2023-03-01T12:49:35+00:00*
G04 #@! TF.ProjectId,winch-link,77696e63-682d-46c6-996e-6b2e6b696361,rev?*
G04 #@! TF.SameCoordinates,Original*
G04 #@! TF.FileFunction,Copper,L2,Bot*
G04 #@! TF.FilePolarity,Positive*
%FSLAX46Y46*%
G04 Gerber Fmt 4.6, Leading zero omitted, Abs format (unit mm)*
G04 Created by KiCad (PCBNEW (7.0.0-0)) date 2023-03-01 12:49:35*
%MOMM*%
%LPD*%
G01*
G04 APERTURE LIST*
G04 #@! TA.AperFunction,ComponentPad*
%ADD10R,1.700000X1.700000*%
G04 #@! TD*
G04 #@! TA.AperFunction,ComponentPad*
%ADD11O,1.700000X1.700000*%
G04 #@! TD*
G04 #@! TA.AperFunction,ComponentPad*
%ADD12C,0.800000*%
G04 #@! TD*
G04 #@! TA.AperFunction,ComponentPad*
%ADD13O,2.100000X1.000000*%
G04 #@! TD*
G04 #@! TA.AperFunction,ComponentPad*
%ADD14O,1.600000X1.000000*%
G04 #@! TD*
G04 #@! TA.AperFunction,ViaPad*
%ADD15C,0.800000*%
G04 #@! TD*
G04 #@! TA.AperFunction,Conductor*
%ADD16C,0.200000*%
G04 #@! TD*
G04 #@! TA.AperFunction,Conductor*
%ADD17C,0.500000*%
G04 #@! TD*
G04 APERTURE END LIST*
D10*
X162878679Y-102878679D03*
X110878679Y-102878679D03*
X144590710Y-120716920D03*
D11*
X142050710Y-120716920D03*
D12*
X128032116Y-99490863D03*
X128070405Y-96886446D03*
X129250000Y-98210000D03*
X130471675Y-99478157D03*
X130497087Y-96911539D03*
D10*
X111514284Y-91853679D03*
D11*
X114054284Y-91853679D03*
D13*
X114463679Y-111665516D03*
D14*
X110283679Y-111665516D03*
D13*
X114463679Y-120305516D03*
D14*
X110283679Y-120305516D03*
D10*
X137253679Y-120636052D03*
D11*
X134713679Y-120636052D03*
X132173679Y-120636052D03*
X129633679Y-120636052D03*
X127093679Y-120636052D03*
X124553679Y-120636052D03*
X122013679Y-120636052D03*
X119473679Y-120636052D03*
D15*
X152378680Y-105750000D03*
X136378680Y-101878680D03*
X137878680Y-91878680D03*
X136378680Y-100378680D03*
X150378680Y-104000000D03*
X137378680Y-96878680D03*
X134878680Y-105878680D03*
X154378680Y-104878680D03*
X134878680Y-93378680D03*
X145878680Y-93378680D03*
X148378680Y-96878680D03*
X146378680Y-103878680D03*
X146378680Y-98878680D03*
X144378680Y-104878680D03*
X150250000Y-93750000D03*
X143750000Y-113000000D03*
X149000000Y-118500000D03*
X145500000Y-115000000D03*
X118750000Y-107500000D03*
X155375000Y-115875000D03*
X153250000Y-118000000D03*
X119000000Y-96250000D03*
X117128680Y-118378680D03*
X117024312Y-108725688D03*
X140750000Y-111750000D03*
X125750000Y-111000000D03*
X116750000Y-113535517D03*
X138500000Y-111250000D03*
X122858680Y-116378680D03*
X134000000Y-111250000D03*
X114500000Y-110000000D03*
X161250000Y-99250000D03*
X139000000Y-124000000D03*
X154000000Y-94500000D03*
X120250000Y-113250000D03*
X158250000Y-97250000D03*
X130750000Y-113250000D03*
X142750000Y-106500000D03*
X148350012Y-115609678D03*
X152500000Y-112500000D03*
X161250000Y-97000000D03*
X123500000Y-110750000D03*
X108750000Y-95750000D03*
X108750000Y-98500000D03*
X108500000Y-117750000D03*
X120750000Y-124000000D03*
X148500000Y-121000000D03*
X132750000Y-105750000D03*
X136500000Y-117000000D03*
X135250000Y-123750000D03*
X122750000Y-124000000D03*
X155500000Y-119250000D03*
X158250000Y-99250000D03*
X144000000Y-117250000D03*
X139000000Y-125750000D03*
X108500000Y-114000000D03*
X152500000Y-120750000D03*
X116250000Y-94750000D03*
X110750000Y-106500000D03*
X120500000Y-110750000D03*
X120500000Y-126000000D03*
X161250000Y-94500000D03*
X108750000Y-92500000D03*
X142750000Y-111500000D03*
X112500000Y-108500000D03*
X130750000Y-111500000D03*
X155500000Y-96250000D03*
X158250000Y-94500000D03*
X111000000Y-113250000D03*
X127250000Y-115500000D03*
X108500000Y-109750000D03*
X151500000Y-115250000D03*
X122750000Y-126000000D03*
X156250000Y-94500000D03*
X135250000Y-125500000D03*
X127250000Y-113750000D03*
X157378680Y-109878680D03*
X123878680Y-92878680D03*
X144378680Y-101078180D03*
X141878680Y-104879180D03*
X113000000Y-114500000D03*
X113000000Y-116500000D03*
X121628680Y-117628680D03*
X117378680Y-119878680D03*
X146378680Y-112378680D03*
X140878680Y-106878680D03*
X137378680Y-104378680D03*
X132878680Y-103878680D03*
X129878680Y-103878680D03*
X134123302Y-102634058D03*
X146378680Y-113628680D03*
X138378680Y-109750000D03*
D16*
X152378680Y-105750000D02*
X152207360Y-105578680D01*
X140078680Y-105578680D02*
X136378680Y-101878680D01*
X152207360Y-105578680D02*
X140078680Y-105578680D01*
X149021307Y-119486053D02*
X155078680Y-113428680D01*
X155078680Y-101578680D02*
X145378680Y-91878680D01*
X155078680Y-113428680D02*
X155078680Y-101578680D01*
X133323680Y-119486053D02*
X149021307Y-119486053D01*
X145378680Y-91878680D02*
X137878680Y-91878680D01*
X132173680Y-120636053D02*
X133323680Y-119486053D01*
X146628680Y-100250000D02*
X136507360Y-100250000D01*
X129633680Y-120636053D02*
X135678680Y-114591053D01*
X136507360Y-100250000D02*
X136378680Y-100378680D01*
X135678680Y-114591053D02*
X135678680Y-101078680D01*
X150378680Y-104000000D02*
X146628680Y-100250000D01*
X135678680Y-101078680D02*
X136378680Y-100378680D01*
X131878680Y-115378680D02*
X131878680Y-103312995D01*
X127093680Y-120636053D02*
X127093680Y-120163680D01*
X127093680Y-120163680D02*
X131878680Y-115378680D01*
X131878680Y-103312995D02*
X137378680Y-97812995D01*
X137378680Y-97812995D02*
X137378680Y-96878680D01*
X136078680Y-99678680D02*
X134878680Y-100878680D01*
X134878680Y-100878680D02*
X134878680Y-105878680D01*
X149178680Y-99678680D02*
X136078680Y-99678680D01*
X154378680Y-104878680D02*
X149178680Y-99678680D01*
X145878680Y-93378680D02*
X134878680Y-93378680D01*
X144378680Y-104878680D02*
X145378680Y-103878680D01*
X146378680Y-98878680D02*
X148378680Y-96878680D01*
X145378680Y-103878680D02*
X146378680Y-103878680D01*
D17*
X112000000Y-116750000D02*
X112000000Y-110735694D01*
X118750000Y-107500000D02*
X118750000Y-96500000D01*
X143750000Y-113250000D02*
X149000000Y-118500000D01*
X112750000Y-117500000D02*
X112000000Y-116750000D01*
X137253680Y-120636053D02*
X135553680Y-122336053D01*
X118633971Y-122336053D02*
X113797918Y-117500000D01*
X143750000Y-113000000D02*
X143750000Y-113250000D01*
X112000000Y-110735694D02*
X108750000Y-107485694D01*
X108750000Y-107485694D02*
X108750000Y-101750000D01*
X135553680Y-122336053D02*
X118633971Y-122336053D01*
X113797918Y-117500000D02*
X112750000Y-117500000D01*
X161500000Y-109750000D02*
X153250000Y-118000000D01*
X150250000Y-93750000D02*
X161500000Y-105000000D01*
X108750000Y-101750000D02*
X114250000Y-96250000D01*
X114250000Y-96250000D02*
X119000000Y-96250000D01*
X161500000Y-105000000D02*
X161500000Y-109750000D01*
X118750000Y-96500000D02*
X119000000Y-96250000D01*
D16*
X140250000Y-111250000D02*
X140750000Y-111750000D01*
X138500000Y-111250000D02*
X140250000Y-111250000D01*
D17*
X116750000Y-114000000D02*
X119128680Y-116378680D01*
X117128680Y-118378680D02*
X119128680Y-116378680D01*
X116750000Y-113535517D02*
X116750000Y-114000000D01*
X117024312Y-108725688D02*
X116750000Y-109000000D01*
X119128680Y-116378680D02*
X122858680Y-116378680D01*
X122858680Y-116378680D02*
X125750000Y-113487360D01*
X125750000Y-113487360D02*
X125750000Y-111000000D01*
X116750000Y-109000000D02*
X116750000Y-113535517D01*
X126750000Y-109750000D02*
X119250000Y-109750000D01*
X127250000Y-113750000D02*
X127250000Y-110250000D01*
X119250000Y-109750000D02*
X112378680Y-102878680D01*
X127250000Y-110250000D02*
X126750000Y-109750000D01*
X112378680Y-102878680D02*
X110878680Y-102878680D01*
D16*
X145244365Y-91178680D02*
X157378680Y-103312995D01*
X123878680Y-92878680D02*
X128878680Y-92878680D01*
X128878680Y-92878680D02*
X130578680Y-91178680D01*
X130578680Y-91178680D02*
X145244365Y-91178680D01*
X157378680Y-103312995D02*
X157378680Y-109878680D01*
D17*
X114463680Y-120305517D02*
X110283680Y-120305517D01*
D16*
X141878680Y-104879180D02*
X141878680Y-103578180D01*
X141878680Y-103578180D02*
X144378680Y-101078180D01*
X113000000Y-114500000D02*
X113000000Y-116500000D01*
X118128680Y-119128680D02*
X119628680Y-119128680D01*
X119628680Y-119128680D02*
X121128680Y-117628680D01*
X121128680Y-117628680D02*
X121628680Y-117628680D01*
X117378680Y-119878680D02*
X118128680Y-119128680D01*
X140878680Y-106878680D02*
X146378680Y-112378680D01*
X131023680Y-120159707D02*
X137378680Y-113804707D01*
X130350026Y-121786053D02*
X131023680Y-121112399D01*
X131023680Y-121112399D02*
X131023680Y-120159707D01*
X122013680Y-120636053D02*
X123163680Y-121786053D01*
X123163680Y-121786053D02*
X130350026Y-121786053D01*
X137378680Y-113804707D02*
X137378680Y-104378680D01*
X129378680Y-116378680D02*
X127378680Y-118378680D01*
X121731053Y-118378680D02*
X119473680Y-120636053D01*
X129878680Y-103878680D02*
X129378680Y-104378680D01*
X129378680Y-104378680D02*
X129378680Y-116378680D01*
X134123302Y-102634058D02*
X132878680Y-103878680D01*
X127378680Y-118378680D02*
X121731053Y-118378680D01*
X138378680Y-109750000D02*
X138757360Y-110128680D01*
X138757360Y-110128680D02*
X142878680Y-110128680D01*
X142878680Y-110128680D02*
X146378680Y-113628680D01*
G04 #@! TA.AperFunction,Conductor*
G36*
X134220680Y-103555821D02*
G01*
X134256917Y-103592058D01*
X134270180Y-103641558D01*
X134270180Y-105158754D01*
X134263604Y-105194232D01*
X134244751Y-105224998D01*
X134143112Y-105337879D01*
X134143108Y-105337883D01*
X134139640Y-105341736D01*
X134137050Y-105346220D01*
X134137044Y-105346230D01*
X134046747Y-105502630D01*
X134046744Y-105502634D01*
X134044153Y-105507124D01*
X134042554Y-105512044D01*
X134042550Y-105512054D01*
X133986740Y-105683820D01*
X133986739Y-105683824D01*
X133985138Y-105688752D01*
X133984596Y-105693901D01*
X133984595Y-105693910D01*
X133973399Y-105800443D01*
X133965176Y-105878680D01*
X133965718Y-105883837D01*
X133984595Y-106063449D01*
X133984596Y-106063456D01*
X133985138Y-106068608D01*
X133986739Y-106073537D01*
X133986740Y-106073539D01*
X134042550Y-106245305D01*
X134042552Y-106245311D01*
X134044153Y-106250236D01*
X134046746Y-106254728D01*
X134046747Y-106254729D01*
X134137044Y-106411129D01*
X134137047Y-106411134D01*
X134139640Y-106415624D01*
X134267427Y-106557546D01*
X134271617Y-106560590D01*
X134271619Y-106560592D01*
X134398758Y-106652964D01*
X134421928Y-106669798D01*
X134596392Y-106747474D01*
X134783193Y-106787180D01*
X134788382Y-106787180D01*
X134971180Y-106787180D01*
X135020680Y-106800443D01*
X135056917Y-106836680D01*
X135070180Y-106886180D01*
X135070180Y-114297996D01*
X135062644Y-114335882D01*
X135041184Y-114368000D01*
X130106004Y-119303178D01*
X130058314Y-119329626D01*
X130003855Y-119326810D01*
X129992561Y-119322932D01*
X129972182Y-119315936D01*
X129972176Y-119315934D01*
X129968315Y-119314609D01*
X129964285Y-119313936D01*
X129964283Y-119313936D01*
X129750285Y-119278226D01*
X129750279Y-119278225D01*
X129746249Y-119277553D01*
X129521111Y-119277553D01*
X129517081Y-119278225D01*
X129517074Y-119278226D01*
X129303076Y-119313936D01*
X129303071Y-119313937D01*
X129299045Y-119314609D01*
X129295186Y-119315933D01*
X129295177Y-119315936D01*
X129089979Y-119386381D01*
X129089974Y-119386382D01*
X129086106Y-119387711D01*
X129082514Y-119389654D01*
X129082500Y-119389661D01*
X128908012Y-119484089D01*
X128853534Y-119495747D01*
X128801387Y-119476140D01*
X128768084Y-119431478D01*
X128764172Y-119375904D01*
X128790888Y-119327019D01*
X132276176Y-115841731D01*
X132285897Y-115833207D01*
X132312667Y-115812667D01*
X132337154Y-115780754D01*
X132337158Y-115780751D01*
X132410204Y-115685556D01*
X132471518Y-115537531D01*
X132476005Y-115503444D01*
X132487180Y-115418565D01*
X132487180Y-115418560D01*
X132492430Y-115378680D01*
X132488026Y-115345233D01*
X132487180Y-115332313D01*
X132487180Y-104846515D01*
X132504105Y-104791155D01*
X132549094Y-104754724D01*
X132606761Y-104749678D01*
X132783193Y-104787180D01*
X132968978Y-104787180D01*
X132974167Y-104787180D01*
X133160968Y-104747474D01*
X133335432Y-104669798D01*
X133489933Y-104557546D01*
X133617720Y-104415624D01*
X133713207Y-104250236D01*
X133772222Y-104068608D01*
X133792184Y-103878680D01*
X133791642Y-103873523D01*
X133791642Y-103868331D01*
X133793200Y-103868331D01*
X133797214Y-103834341D01*
X133820536Y-103797372D01*
X134046354Y-103571554D01*
X134078473Y-103550094D01*
X134116358Y-103542558D01*
X134171180Y-103542558D01*
X134220680Y-103555821D01*
G37*
G04 #@! TD.AperFunction*
G04 #@! TA.AperFunction,Conductor*
G36*
X142623509Y-110744716D02*
G01*
X142655627Y-110766176D01*
X143811947Y-111922496D01*
X143839041Y-111973186D01*
X143833407Y-112030386D01*
X143796944Y-112074815D01*
X143741943Y-112091500D01*
X143654513Y-112091500D01*
X143649444Y-112092577D01*
X143649438Y-112092578D01*
X143472783Y-112130128D01*
X143472781Y-112130128D01*
X143467712Y-112131206D01*
X143462978Y-112133313D01*
X143462974Y-112133315D01*
X143297981Y-112206774D01*
X143297975Y-112206777D01*
X143293248Y-112208882D01*
X143289063Y-112211922D01*
X143289057Y-112211926D01*
X143142939Y-112318087D01*
X143142931Y-112318093D01*
X143138747Y-112321134D01*
X143135280Y-112324983D01*
X143135277Y-112324987D01*
X143014432Y-112459199D01*
X143014428Y-112459203D01*
X143010960Y-112463056D01*
X143008370Y-112467540D01*
X143008364Y-112467550D01*
X142918067Y-112623950D01*
X142918064Y-112623954D01*
X142915473Y-112628444D01*
X142913874Y-112633364D01*
X142913870Y-112633374D01*
X142858060Y-112805140D01*
X142858059Y-112805144D01*
X142856458Y-112810072D01*
X142855916Y-112815221D01*
X142855915Y-112815230D01*
X142837038Y-112994843D01*
X142836496Y-113000000D01*
X142837038Y-113005157D01*
X142855915Y-113184769D01*
X142855916Y-113184776D01*
X142856458Y-113189928D01*
X142858059Y-113194857D01*
X142858060Y-113194859D01*
X142913870Y-113366625D01*
X142913872Y-113366631D01*
X142915473Y-113371556D01*
X142918066Y-113376048D01*
X142918067Y-113376049D01*
X143008364Y-113532449D01*
X143008367Y-113532454D01*
X143010960Y-113536944D01*
X143079821Y-113613422D01*
X143088958Y-113625259D01*
X143109437Y-113656395D01*
X143110985Y-113658825D01*
X143143738Y-113711926D01*
X143150970Y-113723651D01*
X143155043Y-113727724D01*
X143158390Y-113731957D01*
X143161832Y-113736059D01*
X143164999Y-113740874D01*
X143169190Y-113744828D01*
X143220420Y-113793161D01*
X143222486Y-113795167D01*
X144584458Y-115157139D01*
X144608608Y-115196550D01*
X144663867Y-115366616D01*
X144663870Y-115366623D01*
X144665473Y-115371556D01*
X144668066Y-115376048D01*
X144668067Y-115376049D01*
X144758364Y-115532449D01*
X144758367Y-115532454D01*
X144760960Y-115536944D01*
X144888747Y-115678866D01*
X144892937Y-115681910D01*
X144892939Y-115681912D01*
X145020078Y-115774284D01*
X145043248Y-115791118D01*
X145217712Y-115868794D01*
X145288590Y-115883859D01*
X145338011Y-115910692D01*
X148084458Y-118657139D01*
X148108608Y-118696549D01*
X148125313Y-118747959D01*
X148128940Y-118794039D01*
X148111252Y-118836743D01*
X148076104Y-118866762D01*
X148031159Y-118877553D01*
X133405390Y-118877553D01*
X133350389Y-118860868D01*
X133313926Y-118816439D01*
X133308292Y-118759239D01*
X133335386Y-118708549D01*
X135549092Y-116494843D01*
X137776176Y-114267758D01*
X137785897Y-114259234D01*
X137812667Y-114238694D01*
X137837154Y-114206781D01*
X137837157Y-114206779D01*
X137910204Y-114111583D01*
X137951298Y-114012372D01*
X137971518Y-113963557D01*
X137987180Y-113844592D01*
X137987180Y-113844585D01*
X137992430Y-113804707D01*
X137988026Y-113771260D01*
X137987180Y-113758340D01*
X137987180Y-112168601D01*
X137999177Y-112121362D01*
X138032261Y-112085573D01*
X138078413Y-112069906D01*
X138126445Y-112078159D01*
X138217712Y-112118794D01*
X138404513Y-112158500D01*
X138590298Y-112158500D01*
X138595487Y-112158500D01*
X138782288Y-112118794D01*
X138956752Y-112041118D01*
X139111253Y-111928866D01*
X139145119Y-111891253D01*
X139178421Y-111867059D01*
X139218688Y-111858500D01*
X139759535Y-111858500D01*
X139802933Y-111868519D01*
X139837547Y-111896548D01*
X139856074Y-111936279D01*
X139856458Y-111939928D01*
X139858056Y-111944848D01*
X139858058Y-111944854D01*
X139913870Y-112116625D01*
X139913872Y-112116631D01*
X139915473Y-112121556D01*
X139918066Y-112126048D01*
X139918067Y-112126049D01*
X140008364Y-112282449D01*
X140008367Y-112282454D01*
X140010960Y-112286944D01*
X140138747Y-112428866D01*
X140142937Y-112431910D01*
X140142939Y-112431912D01*
X140247819Y-112508112D01*
X140293248Y-112541118D01*
X140467712Y-112618794D01*
X140654513Y-112658500D01*
X140840298Y-112658500D01*
X140845487Y-112658500D01*
X141032288Y-112618794D01*
X141206752Y-112541118D01*
X141361253Y-112428866D01*
X141489040Y-112286944D01*
X141584527Y-112121556D01*
X141643542Y-111939928D01*
X141663504Y-111750000D01*
X141643542Y-111560072D01*
X141584527Y-111378444D01*
X141489040Y-111213056D01*
X141361253Y-111071134D01*
X141357063Y-111068090D01*
X141357060Y-111068087D01*
X141210942Y-110961926D01*
X141210940Y-110961925D01*
X141206752Y-110958882D01*
X141202020Y-110956775D01*
X141202018Y-110956774D01*
X141134292Y-110926621D01*
X141093265Y-110892681D01*
X141075754Y-110842396D01*
X141086825Y-110790314D01*
X141123274Y-110751499D01*
X141174559Y-110737180D01*
X142585623Y-110737180D01*
X142623509Y-110744716D01*
G37*
G04 #@! TD.AperFunction*
G04 #@! TA.AperFunction,Conductor*
G36*
X148923509Y-100294716D02*
G01*
X148955627Y-100316176D01*
X153436822Y-104797371D01*
X153460128Y-104834295D01*
X153464175Y-104868333D01*
X153465718Y-104868333D01*
X153465718Y-104873523D01*
X153465176Y-104878680D01*
X153465718Y-104883837D01*
X153484595Y-105063449D01*
X153484596Y-105063456D01*
X153485138Y-105068608D01*
X153486739Y-105073537D01*
X153486740Y-105073539D01*
X153542550Y-105245305D01*
X153542552Y-105245311D01*
X153544153Y-105250236D01*
X153546746Y-105254728D01*
X153546747Y-105254729D01*
X153637044Y-105411129D01*
X153637047Y-105411134D01*
X153639640Y-105415624D01*
X153767427Y-105557546D01*
X153921928Y-105669798D01*
X154096392Y-105747474D01*
X154283193Y-105787180D01*
X154371180Y-105787180D01*
X154420680Y-105800443D01*
X154456917Y-105836680D01*
X154470180Y-105886180D01*
X154470180Y-113135623D01*
X154462644Y-113173509D01*
X154441184Y-113205627D01*
X149786614Y-117860195D01*
X149740561Y-117886250D01*
X149687666Y-117884865D01*
X149643040Y-117856436D01*
X149614723Y-117824988D01*
X149611253Y-117821134D01*
X149607063Y-117818090D01*
X149607060Y-117818087D01*
X149460942Y-117711926D01*
X149460940Y-117711925D01*
X149456752Y-117708882D01*
X149452020Y-117706775D01*
X149452018Y-117706774D01*
X149318988Y-117647545D01*
X149282288Y-117631206D01*
X149277215Y-117630127D01*
X149277213Y-117630127D01*
X149211407Y-117616139D01*
X149161988Y-117589307D01*
X146415541Y-114842860D01*
X146391390Y-114803449D01*
X146346981Y-114666773D01*
X146343355Y-114620693D01*
X146361043Y-114577989D01*
X146396191Y-114547970D01*
X146441136Y-114537180D01*
X146468978Y-114537180D01*
X146474167Y-114537180D01*
X146660968Y-114497474D01*
X146835432Y-114419798D01*
X146989933Y-114307546D01*
X147117720Y-114165624D01*
X147213207Y-114000236D01*
X147272222Y-113818608D01*
X147292184Y-113628680D01*
X147291096Y-113618333D01*
X147272764Y-113443910D01*
X147272222Y-113438752D01*
X147213207Y-113257124D01*
X147117720Y-113091736D01*
X147098078Y-113069921D01*
X147075592Y-113027631D01*
X147075592Y-112979729D01*
X147098078Y-112937438D01*
X147117720Y-112915624D01*
X147213207Y-112750236D01*
X147272222Y-112568608D01*
X147292184Y-112378680D01*
X147272222Y-112188752D01*
X147213207Y-112007124D01*
X147164347Y-111922496D01*
X147120315Y-111846230D01*
X147120313Y-111846227D01*
X147117720Y-111841736D01*
X146989933Y-111699814D01*
X146985743Y-111696770D01*
X146985740Y-111696767D01*
X146839622Y-111590606D01*
X146839620Y-111590605D01*
X146835432Y-111587562D01*
X146830700Y-111585455D01*
X146830698Y-111585454D01*
X146665705Y-111511995D01*
X146665704Y-111511994D01*
X146660968Y-111509886D01*
X146629032Y-111503097D01*
X146479241Y-111471258D01*
X146479236Y-111471257D01*
X146474167Y-111470180D01*
X146468978Y-111470180D01*
X146371737Y-111470180D01*
X146333851Y-111462644D01*
X146301733Y-111441184D01*
X141820537Y-106959988D01*
X141797207Y-106922996D01*
X141793206Y-106889030D01*
X141791642Y-106889030D01*
X141791642Y-106883836D01*
X141792184Y-106878680D01*
X141772222Y-106688752D01*
X141713207Y-106507124D01*
X141617720Y-106341736D01*
X141617944Y-106341606D01*
X141600361Y-106293948D01*
X141610846Y-106241235D01*
X141647329Y-106201769D01*
X141699056Y-106187180D01*
X151524884Y-106187180D01*
X151574384Y-106200443D01*
X151610620Y-106236680D01*
X151637044Y-106282449D01*
X151637047Y-106282454D01*
X151639640Y-106286944D01*
X151767427Y-106428866D01*
X151921928Y-106541118D01*
X152096392Y-106618794D01*
X152283193Y-106658500D01*
X152468978Y-106658500D01*
X152474167Y-106658500D01*
X152660968Y-106618794D01*
X152835432Y-106541118D01*
X152989933Y-106428866D01*
X153117720Y-106286944D01*
X153213207Y-106121556D01*
X153272222Y-105939928D01*
X153292184Y-105750000D01*
X153272222Y-105560072D01*
X153213207Y-105378444D01*
X153117720Y-105213056D01*
X152989933Y-105071134D01*
X152985743Y-105068090D01*
X152985740Y-105068087D01*
X152839622Y-104961926D01*
X152839620Y-104961925D01*
X152835432Y-104958882D01*
X152830700Y-104956775D01*
X152830698Y-104956774D01*
X152665705Y-104883315D01*
X152665704Y-104883314D01*
X152660968Y-104881206D01*
X152613800Y-104871180D01*
X152479241Y-104842578D01*
X152479236Y-104842577D01*
X152474167Y-104841500D01*
X152283193Y-104841500D01*
X152278124Y-104842577D01*
X152278118Y-104842578D01*
X152101463Y-104880128D01*
X152101461Y-104880128D01*
X152096392Y-104881206D01*
X152091658Y-104883313D01*
X152091654Y-104883315D01*
X151926668Y-104956771D01*
X151926663Y-104956773D01*
X151926237Y-104956963D01*
X151926231Y-104956965D01*
X151921928Y-104958882D01*
X151921624Y-104958200D01*
X151876917Y-104970180D01*
X150893666Y-104970180D01*
X150835475Y-104951273D01*
X150799511Y-104901773D01*
X150799511Y-104840588D01*
X150835475Y-104791087D01*
X150930475Y-104722065D01*
X150989933Y-104678866D01*
X151117720Y-104536944D01*
X151213207Y-104371556D01*
X151272222Y-104189928D01*
X151292184Y-104000000D01*
X151291096Y-103989653D01*
X151288199Y-103962087D01*
X151272222Y-103810072D01*
X151213207Y-103628444D01*
X151146009Y-103512054D01*
X151120315Y-103467550D01*
X151120313Y-103467547D01*
X151117720Y-103463056D01*
X150989933Y-103321134D01*
X150985743Y-103318090D01*
X150985740Y-103318087D01*
X150839622Y-103211926D01*
X150839620Y-103211925D01*
X150835432Y-103208882D01*
X150830700Y-103206775D01*
X150830698Y-103206774D01*
X150665705Y-103133315D01*
X150665704Y-103133314D01*
X150660968Y-103131206D01*
X150625439Y-103123654D01*
X150479241Y-103092578D01*
X150479236Y-103092577D01*
X150474167Y-103091500D01*
X150468978Y-103091500D01*
X150371737Y-103091500D01*
X150333851Y-103083964D01*
X150301733Y-103062504D01*
X147695413Y-100456184D01*
X147668319Y-100405494D01*
X147673953Y-100348294D01*
X147710416Y-100303865D01*
X147765417Y-100287180D01*
X148885623Y-100287180D01*
X148923509Y-100294716D01*
G37*
G04 #@! TD.AperFunction*
G04 #@! TA.AperFunction,Conductor*
G36*
X117802343Y-109375024D02*
G01*
X118669488Y-110242169D01*
X118678894Y-110253054D01*
X118691087Y-110269433D01*
X118691090Y-110269437D01*
X118694531Y-110274058D01*
X118726700Y-110301051D01*
X118733765Y-110306979D01*
X118740133Y-110312814D01*
X118744900Y-110317581D01*
X118769786Y-110337258D01*
X118771969Y-110339036D01*
X118830360Y-110388032D01*
X118835514Y-110390620D01*
X118839994Y-110393567D01*
X118844570Y-110396389D01*
X118849095Y-110399967D01*
X118918196Y-110432189D01*
X118920698Y-110433400D01*
X118988812Y-110467609D01*
X118994419Y-110468937D01*
X118999481Y-110470780D01*
X119004566Y-110472465D01*
X119009794Y-110474903D01*
X119066599Y-110486632D01*
X119084450Y-110490318D01*
X119087263Y-110490942D01*
X119161344Y-110508500D01*
X119167112Y-110508500D01*
X119172502Y-110509130D01*
X119177795Y-110509593D01*
X119183442Y-110510759D01*
X119259636Y-110508542D01*
X119262516Y-110508500D01*
X124818183Y-110508500D01*
X124863128Y-110519290D01*
X124898276Y-110549309D01*
X124915964Y-110592013D01*
X124912337Y-110638093D01*
X124858062Y-110805131D01*
X124858059Y-110805143D01*
X124856458Y-110810072D01*
X124855916Y-110815221D01*
X124855915Y-110815230D01*
X124840498Y-110961926D01*
X124836496Y-111000000D01*
X124837038Y-111005157D01*
X124855915Y-111184769D01*
X124855916Y-111184776D01*
X124856458Y-111189928D01*
X124858059Y-111194857D01*
X124858060Y-111194859D01*
X124913870Y-111366625D01*
X124913872Y-111366631D01*
X124915473Y-111371556D01*
X124944574Y-111421961D01*
X124978236Y-111480264D01*
X124991500Y-111529764D01*
X124991500Y-113132171D01*
X124983964Y-113170057D01*
X124962504Y-113202175D01*
X122696690Y-115467987D01*
X122647271Y-115494819D01*
X122581467Y-115508807D01*
X122581465Y-115508807D01*
X122576392Y-115509886D01*
X122571655Y-115511994D01*
X122571652Y-115511996D01*
X122406661Y-115585454D01*
X122406655Y-115585457D01*
X122401928Y-115587562D01*
X122397742Y-115590602D01*
X122397732Y-115590609D01*
X122383055Y-115601273D01*
X122324865Y-115620180D01*
X119483869Y-115620180D01*
X119445983Y-115612644D01*
X119413865Y-115591184D01*
X117663040Y-113840359D01*
X117636779Y-113793466D01*
X117638890Y-113739762D01*
X117643542Y-113725445D01*
X117663504Y-113535517D01*
X117643542Y-113345589D01*
X117584527Y-113163961D01*
X117521763Y-113055252D01*
X117508500Y-113005753D01*
X117508500Y-109547316D01*
X117519290Y-109502371D01*
X117549309Y-109467223D01*
X117596829Y-109432697D01*
X117635565Y-109404554D01*
X117658767Y-109378784D01*
X117703394Y-109350354D01*
X117756289Y-109348969D01*
X117802343Y-109375024D01*
G37*
G04 #@! TD.AperFunction*
G04 #@! TA.AperFunction,Conductor*
G36*
X112306864Y-103896672D02*
G01*
X112348977Y-103921658D01*
X116375568Y-107948249D01*
X116400729Y-107990965D01*
X116402027Y-108040523D01*
X116379136Y-108084496D01*
X116288744Y-108184887D01*
X116288740Y-108184891D01*
X116285272Y-108188744D01*
X116282682Y-108193228D01*
X116282676Y-108193238D01*
X116192379Y-108349638D01*
X116192376Y-108349642D01*
X116189785Y-108354132D01*
X116188186Y-108359052D01*
X116188182Y-108359062D01*
X116132372Y-108530826D01*
X116132369Y-108530836D01*
X116130770Y-108535760D01*
X116130227Y-108540919D01*
X116130055Y-108541732D01*
X116115931Y-108575550D01*
X116115666Y-108575951D01*
X116111968Y-108580360D01*
X116109387Y-108585497D01*
X116106438Y-108589981D01*
X116103600Y-108594581D01*
X116100033Y-108599094D01*
X116097601Y-108604308D01*
X116097598Y-108604314D01*
X116067820Y-108668171D01*
X116066567Y-108670759D01*
X116032391Y-108738812D01*
X116031061Y-108744420D01*
X116029209Y-108749510D01*
X116027530Y-108754574D01*
X116025097Y-108759794D01*
X116023933Y-108765430D01*
X116023929Y-108765443D01*
X116009681Y-108834443D01*
X116009059Y-108837250D01*
X115992829Y-108905732D01*
X115992827Y-108905740D01*
X115991500Y-108911344D01*
X115991500Y-108917104D01*
X115990867Y-108922520D01*
X115990404Y-108927806D01*
X115989241Y-108933442D01*
X115989408Y-108939196D01*
X115989408Y-108939202D01*
X115991458Y-109009637D01*
X115991500Y-109012516D01*
X115991500Y-110990599D01*
X115973441Y-111047604D01*
X115925852Y-111083812D01*
X115866095Y-111086013D01*
X115815972Y-111053404D01*
X115772144Y-111000000D01*
X115730248Y-110948949D01*
X115726483Y-110945859D01*
X115580441Y-110826005D01*
X115580439Y-110826003D01*
X115576684Y-110822922D01*
X115516874Y-110790953D01*
X115405776Y-110731570D01*
X115405775Y-110731569D01*
X115401484Y-110729276D01*
X115396829Y-110727864D01*
X115396827Y-110727863D01*
X115216037Y-110673021D01*
X115216033Y-110673020D01*
X115211381Y-110671609D01*
X115192994Y-110669798D01*
X115065657Y-110657256D01*
X115065650Y-110657255D01*
X115063227Y-110657017D01*
X113864133Y-110657017D01*
X113861710Y-110657255D01*
X113861702Y-110657256D01*
X113720821Y-110671132D01*
X113720819Y-110671132D01*
X113715979Y-110671609D01*
X113711328Y-110673019D01*
X113711322Y-110673021D01*
X113530532Y-110727863D01*
X113530526Y-110727865D01*
X113525876Y-110729276D01*
X113521588Y-110731567D01*
X113521583Y-110731570D01*
X113354963Y-110820630D01*
X113354958Y-110820632D01*
X113350676Y-110822922D01*
X113346925Y-110826000D01*
X113346918Y-110826005D01*
X113200876Y-110945859D01*
X113200870Y-110945864D01*
X113197112Y-110948949D01*
X113194027Y-110952707D01*
X113194022Y-110952713D01*
X113074168Y-111098755D01*
X113074163Y-111098762D01*
X113071085Y-111102513D01*
X113068795Y-111106795D01*
X113068793Y-111106800D01*
X112979733Y-111273420D01*
X112979730Y-111273425D01*
X112977439Y-111277713D01*
X112976028Y-111282363D01*
X112976026Y-111282369D01*
X112952237Y-111360793D01*
X112921795Y-111407335D01*
X112871064Y-111430121D01*
X112816053Y-111421961D01*
X112774120Y-111385430D01*
X112758500Y-111332055D01*
X112758500Y-110798168D01*
X112759545Y-110783819D01*
X112762129Y-110766176D01*
X112763341Y-110757905D01*
X112758877Y-110706882D01*
X112758500Y-110698253D01*
X112758500Y-110694391D01*
X112758500Y-110691514D01*
X112754817Y-110660017D01*
X112754526Y-110657160D01*
X112754513Y-110657017D01*
X112747887Y-110581267D01*
X112746071Y-110575789D01*
X112744983Y-110570518D01*
X112743747Y-110565305D01*
X112743079Y-110559581D01*
X112717007Y-110487949D01*
X112716070Y-110485251D01*
X112692114Y-110412956D01*
X112689082Y-110408040D01*
X112686805Y-110403158D01*
X112684409Y-110398387D01*
X112682435Y-110392962D01*
X112640556Y-110329289D01*
X112639008Y-110326859D01*
X112602056Y-110266949D01*
X112602055Y-110266948D01*
X112599030Y-110262043D01*
X112594953Y-110257966D01*
X112591617Y-110253747D01*
X112588171Y-110249640D01*
X112585001Y-110244820D01*
X112569534Y-110230228D01*
X112529578Y-110192531D01*
X112527512Y-110190525D01*
X109537496Y-107200509D01*
X109516036Y-107168391D01*
X109508500Y-107130505D01*
X109508500Y-104172251D01*
X109523274Y-104120223D01*
X109563186Y-104083723D01*
X109616324Y-104073645D01*
X109666828Y-104092997D01*
X109776807Y-104175326D01*
X109776810Y-104175328D01*
X109782476Y-104179569D01*
X109919479Y-104230669D01*
X109980042Y-104237180D01*
X111774671Y-104237180D01*
X111777318Y-104237180D01*
X111837881Y-104230669D01*
X111974884Y-104179569D01*
X112091941Y-104091941D01*
X112179569Y-103974884D01*
X112186214Y-103957066D01*
X112214141Y-103916843D01*
X112257929Y-103894925D01*
X112306864Y-103896672D01*
G37*
G04 #@! TD.AperFunction*
G04 #@! TA.AperFunction,Conductor*
G36*
X161485710Y-82374865D02*
G01*
X165151019Y-82375562D01*
X165200511Y-82388832D01*
X165236740Y-82425067D01*
X165250000Y-82474562D01*
X165250000Y-127279180D01*
X165236737Y-127328680D01*
X165200500Y-127364917D01*
X165151000Y-127378180D01*
X110381269Y-127378180D01*
X110376086Y-127378044D01*
X110245475Y-127371197D01*
X110245106Y-127371177D01*
X110063538Y-127360979D01*
X110053603Y-127359916D01*
X109903592Y-127336156D01*
X109902495Y-127335976D01*
X109742229Y-127308744D01*
X109733190Y-127306770D01*
X109582859Y-127266489D01*
X109581075Y-127265993D01*
X109428494Y-127222034D01*
X109420422Y-127219327D01*
X109273721Y-127163012D01*
X109271314Y-127162052D01*
X109126032Y-127101873D01*
X109118972Y-127098618D01*
X108978261Y-127026921D01*
X108975318Y-127025359D01*
X108838374Y-126949672D01*
X108832343Y-126946053D01*
X108699529Y-126859801D01*
X108696160Y-126857513D01*
X108568896Y-126767213D01*
X108563882Y-126763410D01*
X108440656Y-126663623D01*
X108436990Y-126660504D01*
X108320756Y-126556629D01*
X108316721Y-126552814D01*
X108204554Y-126440645D01*
X108200739Y-126436609D01*
X108096873Y-126320380D01*
X108093755Y-126316716D01*
X107993966Y-126193487D01*
X107990170Y-126188483D01*
X107899848Y-126061184D01*
X107897584Y-126057850D01*
X107811312Y-125925002D01*
X107807713Y-125919002D01*
X107732024Y-125782051D01*
X107730461Y-125779107D01*
X107711932Y-125742741D01*
X107658756Y-125638374D01*
X107655511Y-125631336D01*
X107595331Y-125486046D01*
X107594407Y-125483733D01*
X107538048Y-125336908D01*
X107535354Y-125328873D01*
X107491367Y-125176185D01*
X107490932Y-125174623D01*
X107450615Y-125024151D01*
X107448648Y-125015145D01*
X107421368Y-124854578D01*
X107421272Y-124853993D01*
X107397474Y-124703739D01*
X107396414Y-124693838D01*
X107386537Y-124518318D01*
X107379316Y-124380512D01*
X107379268Y-124378680D01*
X109023021Y-124378680D01*
X109023398Y-124382989D01*
X109043240Y-124609787D01*
X109043241Y-124609794D01*
X109043617Y-124614088D01*
X109044731Y-124618249D01*
X109044733Y-124618255D01*
X109103658Y-124838170D01*
X109103661Y-124838178D01*
X109104777Y-124842343D01*
X109106602Y-124846257D01*
X109106604Y-124846262D01*
X109202814Y-125052584D01*
X109202815Y-125052585D01*
X109204645Y-125056509D01*
X109207125Y-125060052D01*
X109207127Y-125060054D01*
X109337705Y-125246540D01*
X109337708Y-125246544D01*
X109340185Y-125250081D01*
X109507279Y-125417175D01*
X109700851Y-125552715D01*
X109704773Y-125554543D01*
X109704775Y-125554545D01*
X109862428Y-125628060D01*
X109915017Y-125652583D01*
X110143272Y-125713743D01*
X110319714Y-125729180D01*
X110435477Y-125729180D01*
X110437646Y-125729180D01*
X110614088Y-125713743D01*
X110842343Y-125652583D01*
X111056509Y-125552715D01*
X111250081Y-125417175D01*
X111417175Y-125250081D01*
X111552715Y-125056510D01*
X111652583Y-124842343D01*
X111713743Y-124614088D01*
X111734339Y-124378680D01*
X149023021Y-124378680D01*
X149023398Y-124382989D01*
X149043240Y-124609787D01*
X149043241Y-124609794D01*
X149043617Y-124614088D01*
X149044731Y-124618249D01*
X149044733Y-124618255D01*
X149103658Y-124838170D01*
X149103661Y-124838178D01*
X149104777Y-124842343D01*
X149106602Y-124846257D01*
X149106604Y-124846262D01*
X149202814Y-125052584D01*
X149202815Y-125052585D01*
X149204645Y-125056509D01*
X149207125Y-125060052D01*
X149207127Y-125060054D01*
X149337705Y-125246540D01*
X149337708Y-125246544D01*
X149340185Y-125250081D01*
X149507279Y-125417175D01*
X149700851Y-125552715D01*
X149704773Y-125554543D01*
X149704775Y-125554545D01*
X149862428Y-125628060D01*
X149915017Y-125652583D01*
X150143272Y-125713743D01*
X150319714Y-125729180D01*
X150435477Y-125729180D01*
X150437646Y-125729180D01*
X150614088Y-125713743D01*
X150842343Y-125652583D01*
X151056509Y-125552715D01*
X151250081Y-125417175D01*
X151417175Y-125250081D01*
X151552715Y-125056510D01*
X151652583Y-124842343D01*
X151713743Y-124614088D01*
X151734339Y-124378680D01*
X151713743Y-124143272D01*
X151652583Y-123915017D01*
X151552715Y-123700851D01*
X151417175Y-123507279D01*
X151250081Y-123340185D01*
X151246544Y-123337708D01*
X151246540Y-123337705D01*
X151060054Y-123207127D01*
X151060052Y-123207125D01*
X151056509Y-123204645D01*
X151052590Y-123202817D01*
X151052584Y-123202814D01*
X150846262Y-123106604D01*
X150846257Y-123106602D01*
X150842343Y-123104777D01*
X150838178Y-123103661D01*
X150838170Y-123103658D01*
X150618255Y-123044733D01*
X150618249Y-123044731D01*
X150614088Y-123043617D01*
X150609794Y-123043241D01*
X150609787Y-123043240D01*
X150439809Y-123028369D01*
X150439803Y-123028368D01*
X150437646Y-123028180D01*
X150319714Y-123028180D01*
X150317557Y-123028368D01*
X150317550Y-123028369D01*
X150147572Y-123043240D01*
X150147563Y-123043241D01*
X150143272Y-123043617D01*
X150139112Y-123044731D01*
X150139104Y-123044733D01*
X149919189Y-123103658D01*
X149919177Y-123103662D01*
X149915017Y-123104777D01*
X149911106Y-123106600D01*
X149911097Y-123106604D01*
X149704775Y-123202814D01*
X149704764Y-123202820D01*
X149700851Y-123204645D01*
X149697312Y-123207122D01*
X149697305Y-123207127D01*
X149510819Y-123337705D01*
X149510809Y-123337712D01*
X149507279Y-123340185D01*
X149504231Y-123343232D01*
X149504225Y-123343238D01*
X149343238Y-123504225D01*
X149343232Y-123504231D01*
X149340185Y-123507279D01*
X149337712Y-123510809D01*
X149337705Y-123510819D01*
X149207127Y-123697304D01*
X149207122Y-123697311D01*
X149204645Y-123700850D01*
X149202820Y-123704763D01*
X149202814Y-123704774D01*
X149106604Y-123911097D01*
X149106600Y-123911106D01*
X149104777Y-123915017D01*
X149103662Y-123919177D01*
X149103658Y-123919189D01*
X149044733Y-124139104D01*
X149044731Y-124139112D01*
X149043617Y-124143272D01*
X149043241Y-124147563D01*
X149043240Y-124147572D01*
X149023467Y-124373578D01*
X149023021Y-124378680D01*
X111734339Y-124378680D01*
X111713743Y-124143272D01*
X111652583Y-123915017D01*
X111552715Y-123700851D01*
X111417175Y-123507279D01*
X111250081Y-123340185D01*
X111246544Y-123337708D01*
X111246540Y-123337705D01*
X111060054Y-123207127D01*
X111060052Y-123207125D01*
X111056509Y-123204645D01*
X111052590Y-123202817D01*
X111052584Y-123202814D01*
X110846262Y-123106604D01*
X110846257Y-123106602D01*
X110842343Y-123104777D01*
X110838178Y-123103661D01*
X110838170Y-123103658D01*
X110618255Y-123044733D01*
X110618249Y-123044731D01*
X110614088Y-123043617D01*
X110609794Y-123043241D01*
X110609787Y-123043240D01*
X110439809Y-123028369D01*
X110439803Y-123028368D01*
X110437646Y-123028180D01*
X110319714Y-123028180D01*
X110317557Y-123028368D01*
X110317550Y-123028369D01*
X110147572Y-123043240D01*
X110147563Y-123043241D01*
X110143272Y-123043617D01*
X110139112Y-123044731D01*
X110139104Y-123044733D01*
X109919189Y-123103658D01*
X109919177Y-123103662D01*
X109915017Y-123104777D01*
X109911106Y-123106600D01*
X109911097Y-123106604D01*
X109704775Y-123202814D01*
X109704764Y-123202820D01*
X109700851Y-123204645D01*
X109697312Y-123207122D01*
X109697305Y-123207127D01*
X109510819Y-123337705D01*
X109510809Y-123337712D01*
X109507279Y-123340185D01*
X109504231Y-123343232D01*
X109504225Y-123343238D01*
X109343238Y-123504225D01*
X109343232Y-123504231D01*
X109340185Y-123507279D01*
X109337712Y-123510809D01*
X109337705Y-123510819D01*
X109207127Y-123697304D01*
X109207122Y-123697311D01*
X109204645Y-123700850D01*
X109202820Y-123704763D01*
X109202814Y-123704774D01*
X109106604Y-123911097D01*
X109106600Y-123911106D01*
X109104777Y-123915017D01*
X109103662Y-123919177D01*
X109103658Y-123919189D01*
X109044733Y-124139104D01*
X109044731Y-124139112D01*
X109043617Y-124143272D01*
X109043241Y-124147563D01*
X109043240Y-124147572D01*
X109023467Y-124373578D01*
X109023021Y-124378680D01*
X107379268Y-124378680D01*
X107379180Y-124375332D01*
X107379180Y-107463483D01*
X107986659Y-107463483D01*
X107987161Y-107469222D01*
X107987161Y-107469226D01*
X107991123Y-107514506D01*
X107991500Y-107523135D01*
X107991500Y-107529874D01*
X107991833Y-107532726D01*
X107991834Y-107532737D01*
X107995182Y-107561380D01*
X107995474Y-107564243D01*
X108001610Y-107634379D01*
X108001611Y-107634384D01*
X108002113Y-107640120D01*
X108003923Y-107645586D01*
X108005009Y-107650842D01*
X108006251Y-107656085D01*
X108006921Y-107661807D01*
X108008890Y-107667217D01*
X108008892Y-107667225D01*
X108032985Y-107733420D01*
X108033929Y-107736135D01*
X108057886Y-107808432D01*
X108060914Y-107813342D01*
X108063193Y-107818228D01*
X108065591Y-107823005D01*
X108067565Y-107828426D01*
X108070732Y-107833241D01*
X108070736Y-107833249D01*
X108109442Y-107892098D01*
X108110990Y-107894527D01*
X108150970Y-107959345D01*
X108155043Y-107963418D01*
X108158390Y-107967651D01*
X108161832Y-107971753D01*
X108164999Y-107976568D01*
X108169190Y-107980522D01*
X108220420Y-108028855D01*
X108222486Y-108030861D01*
X110679638Y-110488013D01*
X110706732Y-110538703D01*
X110701098Y-110595903D01*
X110664635Y-110640332D01*
X110609634Y-110657017D01*
X109934133Y-110657017D01*
X109931710Y-110657255D01*
X109931702Y-110657256D01*
X109790821Y-110671132D01*
X109790819Y-110671132D01*
X109785979Y-110671609D01*
X109781328Y-110673019D01*
X109781322Y-110673021D01*
X109600532Y-110727863D01*
X109600526Y-110727865D01*
X109595876Y-110729276D01*
X109591588Y-110731567D01*
X109591583Y-110731570D01*
X109424963Y-110820630D01*
X109424958Y-110820632D01*
X109420676Y-110822922D01*
X109416925Y-110826000D01*
X109416918Y-110826005D01*
X109270876Y-110945859D01*
X109270870Y-110945864D01*
X109267112Y-110948949D01*
X109264027Y-110952707D01*
X109264022Y-110952713D01*
X109144168Y-111098755D01*
X109144163Y-111098762D01*
X109141085Y-111102513D01*
X109138795Y-111106795D01*
X109138793Y-111106800D01*
X109049733Y-111273420D01*
X109049730Y-111273425D01*
X109047439Y-111277713D01*
X109046028Y-111282363D01*
X109046026Y-111282369D01*
X108991184Y-111463159D01*
X108991182Y-111463165D01*
X108989772Y-111467816D01*
X108989295Y-111472656D01*
X108989295Y-111472658D01*
X108980177Y-111565230D01*
X108970300Y-111665517D01*
X108989772Y-111863218D01*
X108991183Y-111867870D01*
X108991184Y-111867874D01*
X109043737Y-112041118D01*
X109047439Y-112053321D01*
X109049732Y-112057612D01*
X109049733Y-112057613D01*
X109103081Y-112157421D01*
X109141085Y-112228521D01*
X109144166Y-112232276D01*
X109144168Y-112232278D01*
X109260085Y-112373523D01*
X109267112Y-112382085D01*
X109420676Y-112508112D01*
X109595876Y-112601758D01*
X109785979Y-112659425D01*
X109934133Y-112674017D01*
X110630788Y-112674017D01*
X110633227Y-112674017D01*
X110781381Y-112659425D01*
X110971484Y-112601758D01*
X111095831Y-112535293D01*
X111144930Y-112523633D01*
X111193396Y-112537688D01*
X111228639Y-112573806D01*
X111241500Y-112622603D01*
X111241500Y-116687526D01*
X111240455Y-116701874D01*
X111236659Y-116727789D01*
X111237161Y-116733528D01*
X111237161Y-116733532D01*
X111241123Y-116778812D01*
X111241500Y-116787441D01*
X111241500Y-116794180D01*
X111241833Y-116797032D01*
X111241834Y-116797043D01*
X111245182Y-116825686D01*
X111245474Y-116828549D01*
X111251610Y-116898685D01*
X111251611Y-116898690D01*
X111252113Y-116904426D01*
X111253923Y-116909892D01*
X111255009Y-116915148D01*
X111256251Y-116920391D01*
X111256921Y-116926113D01*
X111258890Y-116931523D01*
X111258892Y-116931531D01*
X111282985Y-116997726D01*
X111283929Y-117000441D01*
X111307886Y-117072738D01*
X111310914Y-117077648D01*
X111313193Y-117082534D01*
X111315591Y-117087311D01*
X111317565Y-117092732D01*
X111320732Y-117097547D01*
X111320736Y-117097555D01*
X111359442Y-117156404D01*
X111360990Y-117158833D01*
X111393738Y-117211926D01*
X111400970Y-117223651D01*
X111405043Y-117227724D01*
X111408390Y-117231957D01*
X111411832Y-117236059D01*
X111414999Y-117240874D01*
X111464080Y-117287180D01*
X111470420Y-117293161D01*
X111472486Y-117295167D01*
X112169488Y-117992169D01*
X112178894Y-118003054D01*
X112191087Y-118019433D01*
X112191090Y-118019437D01*
X112194531Y-118024058D01*
X112233765Y-118056979D01*
X112240132Y-118062813D01*
X112244899Y-118067580D01*
X112247157Y-118069366D01*
X112247160Y-118069368D01*
X112269761Y-118087239D01*
X112271994Y-118089058D01*
X112325942Y-118134326D01*
X112325948Y-118134330D01*
X112330360Y-118138032D01*
X112335511Y-118140619D01*
X112340014Y-118143580D01*
X112344572Y-118146391D01*
X112349094Y-118149967D01*
X112354316Y-118152402D01*
X112354321Y-118152405D01*
X112418145Y-118182167D01*
X112420737Y-118183421D01*
X112488812Y-118217609D01*
X112494423Y-118218938D01*
X112499461Y-118220772D01*
X112504565Y-118222463D01*
X112509794Y-118224902D01*
X112573514Y-118238058D01*
X112584418Y-118240310D01*
X112587231Y-118240934D01*
X112661344Y-118258500D01*
X112667113Y-118258500D01*
X112672468Y-118259126D01*
X112677795Y-118259592D01*
X112683442Y-118260758D01*
X112759601Y-118258542D01*
X112762481Y-118258500D01*
X113442729Y-118258500D01*
X113480615Y-118266036D01*
X113512733Y-118287496D01*
X113537940Y-118312703D01*
X113564589Y-118361277D01*
X113560967Y-118416563D01*
X113532214Y-118455781D01*
X113532963Y-118456530D01*
X113528375Y-118461117D01*
X113523229Y-118465066D01*
X113519284Y-118470206D01*
X113519280Y-118470211D01*
X113434930Y-118580138D01*
X113434927Y-118580141D01*
X113430982Y-118585284D01*
X113428501Y-118591273D01*
X113428499Y-118591277D01*
X113397143Y-118666977D01*
X113372993Y-118725281D01*
X113372146Y-118731710D01*
X113372145Y-118731716D01*
X113354377Y-118866684D01*
X113353214Y-118875517D01*
X113354061Y-118881951D01*
X113372145Y-119019317D01*
X113372146Y-119019322D01*
X113372993Y-119025753D01*
X113375477Y-119031749D01*
X113427019Y-119156184D01*
X113430982Y-119165750D01*
X113434930Y-119170895D01*
X113498297Y-119253476D01*
X113518467Y-119306192D01*
X113506551Y-119361362D01*
X113466423Y-119401054D01*
X113354963Y-119460630D01*
X113354958Y-119460632D01*
X113350676Y-119462922D01*
X113346925Y-119466000D01*
X113346918Y-119466005D01*
X113275588Y-119524545D01*
X113246135Y-119541230D01*
X113212783Y-119547017D01*
X111284577Y-119547017D01*
X111251225Y-119541230D01*
X111221772Y-119524545D01*
X111150441Y-119466005D01*
X111150439Y-119466003D01*
X111146684Y-119462922D01*
X111005974Y-119387711D01*
X110975776Y-119371570D01*
X110975775Y-119371569D01*
X110971484Y-119369276D01*
X110966829Y-119367864D01*
X110966827Y-119367863D01*
X110786037Y-119313021D01*
X110786033Y-119313020D01*
X110781381Y-119311609D01*
X110776538Y-119311132D01*
X110635657Y-119297256D01*
X110635650Y-119297255D01*
X110633227Y-119297017D01*
X109934133Y-119297017D01*
X109931710Y-119297255D01*
X109931702Y-119297256D01*
X109790821Y-119311132D01*
X109790819Y-119311132D01*
X109785979Y-119311609D01*
X109781328Y-119313019D01*
X109781322Y-119313021D01*
X109600532Y-119367863D01*
X109600526Y-119367865D01*
X109595876Y-119369276D01*
X109591588Y-119371567D01*
X109591583Y-119371570D01*
X109424963Y-119460630D01*
X109424958Y-119460632D01*
X109420676Y-119462922D01*
X109416925Y-119466000D01*
X109416918Y-119466005D01*
X109270876Y-119585859D01*
X109270870Y-119585864D01*
X109267112Y-119588949D01*
X109264027Y-119592707D01*
X109264022Y-119592713D01*
X109144168Y-119738755D01*
X109144163Y-119738762D01*
X109141085Y-119742513D01*
X109138795Y-119746795D01*
X109138793Y-119746800D01*
X109049733Y-119913420D01*
X109049730Y-119913425D01*
X109047439Y-119917713D01*
X109046028Y-119922363D01*
X109046026Y-119922369D01*
X108991184Y-120103159D01*
X108991182Y-120103165D01*
X108989772Y-120107816D01*
X108970300Y-120305517D01*
X108989772Y-120503218D01*
X108991183Y-120507870D01*
X108991184Y-120507874D01*
X109030067Y-120636053D01*
X109047439Y-120693321D01*
X109141085Y-120868521D01*
X109267112Y-121022085D01*
X109420676Y-121148112D01*
X109595876Y-121241758D01*
X109785979Y-121299425D01*
X109934133Y-121314017D01*
X110630788Y-121314017D01*
X110633227Y-121314017D01*
X110781381Y-121299425D01*
X110971484Y-121241758D01*
X111146684Y-121148112D01*
X111221771Y-121086489D01*
X111251225Y-121069804D01*
X111284577Y-121064017D01*
X113212783Y-121064017D01*
X113246135Y-121069804D01*
X113275588Y-121086489D01*
X113350676Y-121148112D01*
X113525876Y-121241758D01*
X113715979Y-121299425D01*
X113864133Y-121314017D01*
X115060788Y-121314017D01*
X115063227Y-121314017D01*
X115211381Y-121299425D01*
X115401484Y-121241758D01*
X115576684Y-121148112D01*
X115730248Y-121022085D01*
X115856275Y-120868521D01*
X115876071Y-120831483D01*
X115919594Y-120789362D01*
X115979507Y-120780474D01*
X116033385Y-120808148D01*
X118053459Y-122828222D01*
X118062865Y-122839107D01*
X118075058Y-122855486D01*
X118075061Y-122855490D01*
X118078502Y-122860111D01*
X118117736Y-122893032D01*
X118124103Y-122898866D01*
X118128871Y-122903634D01*
X118153757Y-122923311D01*
X118155940Y-122925089D01*
X118214331Y-122974085D01*
X118219485Y-122976673D01*
X118223965Y-122979620D01*
X118228541Y-122982442D01*
X118233066Y-122986020D01*
X118302167Y-123018242D01*
X118304669Y-123019453D01*
X118372783Y-123053662D01*
X118378390Y-123054990D01*
X118383452Y-123056833D01*
X118388537Y-123058518D01*
X118393765Y-123060956D01*
X118458043Y-123074228D01*
X118468421Y-123076371D01*
X118471234Y-123076995D01*
X118480251Y-123079132D01*
X118545315Y-123094553D01*
X118551083Y-123094553D01*
X118556473Y-123095183D01*
X118561766Y-123095646D01*
X118567413Y-123096812D01*
X118643607Y-123094595D01*
X118646487Y-123094553D01*
X135491206Y-123094553D01*
X135505554Y-123095597D01*
X135531469Y-123099394D01*
X135582491Y-123094930D01*
X135591121Y-123094553D01*
X135594983Y-123094553D01*
X135597860Y-123094553D01*
X135629363Y-123090869D01*
X135632199Y-123090580D01*
X135708106Y-123083940D01*
X135713591Y-123082122D01*
X135718876Y-123081031D01*
X135724062Y-123079801D01*
X135729793Y-123079132D01*
X135801460Y-123053046D01*
X135804032Y-123052152D01*
X135876418Y-123028167D01*
X135881326Y-123025138D01*
X135886192Y-123022870D01*
X135890986Y-123020462D01*
X135896412Y-123018488D01*
X135960146Y-122976567D01*
X135962474Y-122975085D01*
X136027331Y-122935083D01*
X136031413Y-122931000D01*
X136035646Y-122927653D01*
X136039730Y-122924226D01*
X136044554Y-122921054D01*
X136096875Y-122865595D01*
X136098850Y-122863563D01*
X136938866Y-122023549D01*
X136970983Y-122002089D01*
X137008869Y-121994553D01*
X138149671Y-121994553D01*
X138152318Y-121994553D01*
X138212881Y-121988042D01*
X138349884Y-121936942D01*
X138466941Y-121849314D01*
X138554569Y-121732257D01*
X138605669Y-121595254D01*
X138612180Y-121534691D01*
X138612180Y-120880670D01*
X140910958Y-120880670D01*
X140915027Y-120924587D01*
X140916699Y-120933533D01*
X140972520Y-121129724D01*
X140975816Y-121138230D01*
X141066729Y-121320810D01*
X141071534Y-121328570D01*
X141194447Y-121491332D01*
X141200594Y-121498075D01*
X141351330Y-121635490D01*
X141358600Y-121640980D01*
X141532026Y-121748360D01*
X141540183Y-121752422D01*
X141730380Y-121826105D01*
X141739153Y-121828600D01*
X141886372Y-121856120D01*
X141897486Y-121854918D01*
X141900711Y-121844215D01*
X141900711Y-120879954D01*
X141897956Y-120869675D01*
X141887678Y-120866921D01*
X140923494Y-120866921D01*
X140912968Y-120869915D01*
X140910958Y-120880670D01*
X138612180Y-120880670D01*
X138612180Y-120193553D01*
X138625443Y-120144053D01*
X138661680Y-120107816D01*
X138711180Y-120094553D01*
X140916041Y-120094553D01*
X140964215Y-120107064D01*
X141000212Y-120141436D01*
X141014935Y-120188981D01*
X141004662Y-120237681D01*
X140975816Y-120295611D01*
X140972520Y-120304117D01*
X140916699Y-120500308D01*
X140915027Y-120509254D01*
X140910958Y-120553171D01*
X140912968Y-120563926D01*
X140923494Y-120566921D01*
X142101711Y-120566921D01*
X142151211Y-120580184D01*
X142187448Y-120616421D01*
X142200711Y-120665921D01*
X142200711Y-121844215D01*
X142203935Y-121854918D01*
X142215049Y-121856120D01*
X142362268Y-121828600D01*
X142371041Y-121826105D01*
X142561238Y-121752422D01*
X142569395Y-121748360D01*
X142742821Y-121640980D01*
X142750091Y-121635490D01*
X142900827Y-121498075D01*
X142906974Y-121491332D01*
X143029887Y-121328570D01*
X143034692Y-121320810D01*
X143044590Y-121300933D01*
X143079547Y-121261867D01*
X143129553Y-121246129D01*
X143180584Y-121258131D01*
X143218331Y-121294508D01*
X143232211Y-121345061D01*
X143232211Y-121615559D01*
X143232492Y-121618176D01*
X143232493Y-121618188D01*
X143238060Y-121669967D01*
X143238722Y-121676122D01*
X143289822Y-121813125D01*
X143294059Y-121818786D01*
X143294062Y-121818790D01*
X143373206Y-121924513D01*
X143377450Y-121930182D01*
X143383118Y-121934425D01*
X143488841Y-122013569D01*
X143488843Y-122013570D01*
X143494507Y-122017810D01*
X143631510Y-122068910D01*
X143692073Y-122075421D01*
X145486702Y-122075421D01*
X145489349Y-122075421D01*
X145549912Y-122068910D01*
X145686915Y-122017810D01*
X145803972Y-121930182D01*
X145891600Y-121813125D01*
X145942700Y-121676122D01*
X145949211Y-121615559D01*
X145949211Y-120193553D01*
X145962474Y-120144053D01*
X145998711Y-120107816D01*
X146048211Y-120094553D01*
X148974940Y-120094553D01*
X148987860Y-120095399D01*
X149021307Y-120099803D01*
X149061187Y-120094553D01*
X149061192Y-120094553D01*
X149160763Y-120081444D01*
X149180158Y-120078891D01*
X149328183Y-120017577D01*
X149423379Y-119944530D01*
X149423379Y-119944529D01*
X149423385Y-119944523D01*
X149455294Y-119920040D01*
X149475832Y-119893272D01*
X149484362Y-119883545D01*
X155476176Y-113891731D01*
X155485897Y-113883207D01*
X155512667Y-113862667D01*
X155537154Y-113830754D01*
X155537157Y-113830752D01*
X155610204Y-113735556D01*
X155671518Y-113587531D01*
X155678178Y-113536944D01*
X155687180Y-113468565D01*
X155687180Y-113468560D01*
X155692430Y-113428680D01*
X155688026Y-113395233D01*
X155687180Y-113382313D01*
X155687180Y-102721052D01*
X155703865Y-102666051D01*
X155748294Y-102629588D01*
X155805494Y-102623954D01*
X155856184Y-102651048D01*
X156741184Y-103536048D01*
X156762644Y-103568166D01*
X156770180Y-103606052D01*
X156770180Y-109158754D01*
X156763604Y-109194232D01*
X156744751Y-109224998D01*
X156643112Y-109337879D01*
X156643108Y-109337883D01*
X156639640Y-109341736D01*
X156637050Y-109346220D01*
X156637044Y-109346230D01*
X156546747Y-109502630D01*
X156546744Y-109502634D01*
X156544153Y-109507124D01*
X156542554Y-109512044D01*
X156542550Y-109512054D01*
X156486740Y-109683820D01*
X156486739Y-109683824D01*
X156485138Y-109688752D01*
X156484596Y-109693901D01*
X156484595Y-109693910D01*
X156468793Y-109844264D01*
X156465176Y-109878680D01*
X156465718Y-109883837D01*
X156484595Y-110063449D01*
X156484596Y-110063456D01*
X156485138Y-110068608D01*
X156486739Y-110073537D01*
X156486740Y-110073539D01*
X156542550Y-110245305D01*
X156542552Y-110245311D01*
X156544153Y-110250236D01*
X156546746Y-110254728D01*
X156546747Y-110254729D01*
X156637044Y-110411129D01*
X156637047Y-110411134D01*
X156639640Y-110415624D01*
X156767427Y-110557546D01*
X156771617Y-110560590D01*
X156771619Y-110560592D01*
X156865009Y-110628444D01*
X156921928Y-110669798D01*
X157096392Y-110747474D01*
X157283193Y-110787180D01*
X157468978Y-110787180D01*
X157474167Y-110787180D01*
X157660968Y-110747474D01*
X157835432Y-110669798D01*
X157989933Y-110557546D01*
X158117720Y-110415624D01*
X158213207Y-110250236D01*
X158272222Y-110068608D01*
X158292184Y-109878680D01*
X158272222Y-109688752D01*
X158213207Y-109507124D01*
X158141760Y-109383374D01*
X158120315Y-109346230D01*
X158120313Y-109346227D01*
X158117720Y-109341736D01*
X158042168Y-109257827D01*
X158012609Y-109224998D01*
X157993756Y-109194232D01*
X157987180Y-109158754D01*
X157987180Y-103359362D01*
X157988027Y-103346441D01*
X157991583Y-103319429D01*
X157992430Y-103312995D01*
X157987180Y-103273115D01*
X157987180Y-103273110D01*
X157971518Y-103154145D01*
X157965882Y-103140539D01*
X157910204Y-103006119D01*
X157837158Y-102910924D01*
X157837154Y-102910920D01*
X157812667Y-102879008D01*
X157785901Y-102858469D01*
X157776170Y-102849936D01*
X148676234Y-93750000D01*
X149336496Y-93750000D01*
X149337038Y-93755157D01*
X149355915Y-93934769D01*
X149355916Y-93934776D01*
X149356458Y-93939928D01*
X149358059Y-93944857D01*
X149358060Y-93944859D01*
X149413870Y-94116625D01*
X149413872Y-94116631D01*
X149415473Y-94121556D01*
X149418066Y-94126048D01*
X149418067Y-94126049D01*
X149508364Y-94282449D01*
X149508367Y-94282454D01*
X149510960Y-94286944D01*
X149638747Y-94428866D01*
X149793248Y-94541118D01*
X149967712Y-94618794D01*
X150038590Y-94633859D01*
X150088011Y-94660692D01*
X160712504Y-105285185D01*
X160733964Y-105317303D01*
X160741500Y-105355189D01*
X160741500Y-109394811D01*
X160733964Y-109432697D01*
X160712504Y-109464815D01*
X155213010Y-114964307D01*
X155163591Y-114991139D01*
X155097787Y-115005127D01*
X155097785Y-115005127D01*
X155092712Y-115006206D01*
X155087975Y-115008314D01*
X155087972Y-115008316D01*
X154922981Y-115081774D01*
X154922975Y-115081777D01*
X154918248Y-115083882D01*
X154914063Y-115086922D01*
X154914057Y-115086926D01*
X154767939Y-115193087D01*
X154767931Y-115193093D01*
X154763747Y-115196134D01*
X154760280Y-115199983D01*
X154760277Y-115199987D01*
X154639432Y-115334199D01*
X154639428Y-115334203D01*
X154635960Y-115338056D01*
X154633370Y-115342540D01*
X154633364Y-115342550D01*
X154543067Y-115498950D01*
X154543064Y-115498954D01*
X154540473Y-115503444D01*
X154538871Y-115508372D01*
X154538867Y-115508383D01*
X154483609Y-115678447D01*
X154459459Y-115717858D01*
X153088010Y-117089307D01*
X153038591Y-117116139D01*
X152972787Y-117130127D01*
X152972785Y-117130127D01*
X152967712Y-117131206D01*
X152962975Y-117133314D01*
X152962972Y-117133316D01*
X152797981Y-117206774D01*
X152797975Y-117206777D01*
X152793248Y-117208882D01*
X152789063Y-117211922D01*
X152789057Y-117211926D01*
X152642939Y-117318087D01*
X152642931Y-117318093D01*
X152638747Y-117321134D01*
X152635280Y-117324983D01*
X152635277Y-117324987D01*
X152514432Y-117459199D01*
X152514428Y-117459203D01*
X152510960Y-117463056D01*
X152508370Y-117467540D01*
X152508364Y-117467550D01*
X152418067Y-117623950D01*
X152418064Y-117623954D01*
X152415473Y-117628444D01*
X152413874Y-117633364D01*
X152413870Y-117633374D01*
X152358060Y-117805140D01*
X152358059Y-117805144D01*
X152356458Y-117810072D01*
X152355916Y-117815221D01*
X152355915Y-117815230D01*
X152337319Y-117992169D01*
X152336496Y-118000000D01*
X152337038Y-118005157D01*
X152355915Y-118184769D01*
X152355916Y-118184776D01*
X152356458Y-118189928D01*
X152358059Y-118194857D01*
X152358060Y-118194859D01*
X152413870Y-118366625D01*
X152413872Y-118366631D01*
X152415473Y-118371556D01*
X152418066Y-118376048D01*
X152418067Y-118376049D01*
X152508364Y-118532449D01*
X152508367Y-118532454D01*
X152510960Y-118536944D01*
X152638747Y-118678866D01*
X152642937Y-118681910D01*
X152642939Y-118681912D01*
X152711488Y-118731716D01*
X152793248Y-118791118D01*
X152967712Y-118868794D01*
X153154513Y-118908500D01*
X153340298Y-118908500D01*
X153345487Y-118908500D01*
X153532288Y-118868794D01*
X153706752Y-118791118D01*
X153861253Y-118678866D01*
X153989040Y-118536944D01*
X154084527Y-118371556D01*
X154141391Y-118196546D01*
X154165539Y-118157140D01*
X155536989Y-116785690D01*
X155586407Y-116758860D01*
X155657288Y-116743794D01*
X155831752Y-116666118D01*
X155986253Y-116553866D01*
X156114040Y-116411944D01*
X156209527Y-116246556D01*
X156266391Y-116071546D01*
X156290539Y-116032140D01*
X161992177Y-110330502D01*
X162003046Y-110321110D01*
X162024058Y-110305469D01*
X162056994Y-110266216D01*
X162062811Y-110259868D01*
X162067581Y-110255100D01*
X162077805Y-110242169D01*
X162087247Y-110230228D01*
X162089068Y-110227992D01*
X162105257Y-110208699D01*
X162138032Y-110169640D01*
X162140624Y-110164477D01*
X162143564Y-110160008D01*
X162146385Y-110155434D01*
X162149967Y-110150905D01*
X162182174Y-110081836D01*
X162183430Y-110079242D01*
X162217609Y-110011188D01*
X162218938Y-110005575D01*
X162220776Y-110000527D01*
X162222461Y-109995440D01*
X162224903Y-109990206D01*
X162240320Y-109915538D01*
X162240942Y-109912735D01*
X162242238Y-109907268D01*
X162258500Y-109838656D01*
X162258500Y-109832886D01*
X162259130Y-109827497D01*
X162259592Y-109822204D01*
X162260759Y-109816558D01*
X162258542Y-109740363D01*
X162258500Y-109737484D01*
X162258500Y-105062474D01*
X162259545Y-105048126D01*
X162259602Y-105047730D01*
X162263341Y-105022211D01*
X162258877Y-104971188D01*
X162258500Y-104962559D01*
X162258500Y-104958699D01*
X162258500Y-104955820D01*
X162254813Y-104924287D01*
X162254526Y-104921469D01*
X162254015Y-104915624D01*
X162247887Y-104845574D01*
X162246071Y-104840094D01*
X162244986Y-104834837D01*
X162243748Y-104829618D01*
X162243079Y-104823887D01*
X162217002Y-104752243D01*
X162216078Y-104749583D01*
X162214660Y-104745305D01*
X162192114Y-104677262D01*
X162189082Y-104672346D01*
X162186805Y-104667464D01*
X162184409Y-104662693D01*
X162182435Y-104657268D01*
X162140556Y-104593595D01*
X162139008Y-104591165D01*
X162102056Y-104531255D01*
X162102055Y-104531254D01*
X162099030Y-104526349D01*
X162094953Y-104522272D01*
X162091617Y-104518053D01*
X162088171Y-104513946D01*
X162085001Y-104509126D01*
X162072874Y-104497685D01*
X162029578Y-104456837D01*
X162027512Y-104454831D01*
X161343298Y-103770617D01*
X161728681Y-103770617D01*
X161729009Y-103776307D01*
X161730732Y-103791159D01*
X161734597Y-103805365D01*
X161773188Y-103892768D01*
X161783377Y-103907642D01*
X161849717Y-103973982D01*
X161864591Y-103984171D01*
X161951992Y-104022762D01*
X161966204Y-104026628D01*
X161981038Y-104028349D01*
X161986752Y-104028680D01*
X162715647Y-104028680D01*
X162725925Y-104025925D01*
X162728680Y-104015647D01*
X162728680Y-104015646D01*
X163028680Y-104015646D01*
X163031434Y-104025924D01*
X163041713Y-104028679D01*
X163770617Y-104028679D01*
X163776307Y-104028350D01*
X163791159Y-104026627D01*
X163805365Y-104022762D01*
X163892768Y-103984171D01*
X163907642Y-103973982D01*
X163973982Y-103907642D01*
X163984171Y-103892768D01*
X164022762Y-103805367D01*
X164026628Y-103791155D01*
X164028349Y-103776321D01*
X164028680Y-103770608D01*
X164028680Y-103041713D01*
X164025925Y-103031434D01*
X164015647Y-103028680D01*
X163041713Y-103028680D01*
X163031434Y-103031434D01*
X163028680Y-103041713D01*
X163028680Y-104015646D01*
X162728680Y-104015646D01*
X162728680Y-103041713D01*
X162725925Y-103031434D01*
X162715647Y-103028680D01*
X161741714Y-103028680D01*
X161731435Y-103031434D01*
X161728681Y-103041713D01*
X161728681Y-103770617D01*
X161343298Y-103770617D01*
X160288328Y-102715647D01*
X161728680Y-102715647D01*
X161731434Y-102725925D01*
X161741713Y-102728680D01*
X162715647Y-102728680D01*
X162725925Y-102725925D01*
X162728680Y-102715647D01*
X163028680Y-102715647D01*
X163031434Y-102725925D01*
X163041713Y-102728680D01*
X164015646Y-102728680D01*
X164025924Y-102725925D01*
X164028679Y-102715647D01*
X164028679Y-101986743D01*
X164028350Y-101981052D01*
X164026627Y-101966200D01*
X164022762Y-101951994D01*
X163984171Y-101864591D01*
X163973982Y-101849717D01*
X163907642Y-101783377D01*
X163892768Y-101773188D01*
X163805367Y-101734597D01*
X163791155Y-101730731D01*
X163776321Y-101729010D01*
X163770608Y-101728680D01*
X163041713Y-101728680D01*
X163031434Y-101731434D01*
X163028680Y-101741713D01*
X163028680Y-102715647D01*
X162728680Y-102715647D01*
X162728680Y-101741714D01*
X162725925Y-101731435D01*
X162715647Y-101728681D01*
X161986743Y-101728681D01*
X161981052Y-101729009D01*
X161966200Y-101730732D01*
X161951994Y-101734597D01*
X161864591Y-101773188D01*
X161849717Y-101783377D01*
X161783377Y-101849717D01*
X161773188Y-101864591D01*
X161734597Y-101951992D01*
X161730731Y-101966204D01*
X161729010Y-101981038D01*
X161728680Y-101986752D01*
X161728680Y-102715647D01*
X160288328Y-102715647D01*
X151165541Y-93592860D01*
X151141390Y-93553449D01*
X151086129Y-93383374D01*
X151086128Y-93383372D01*
X151084527Y-93378444D01*
X151028125Y-93280753D01*
X150991635Y-93217550D01*
X150991633Y-93217547D01*
X150989040Y-93213056D01*
X150861253Y-93071134D01*
X150857063Y-93068090D01*
X150857060Y-93068087D01*
X150710942Y-92961926D01*
X150710940Y-92961925D01*
X150706752Y-92958882D01*
X150702020Y-92956775D01*
X150702018Y-92956774D01*
X150537025Y-92883315D01*
X150537024Y-92883314D01*
X150532288Y-92881206D01*
X150496143Y-92873523D01*
X150350561Y-92842578D01*
X150350556Y-92842577D01*
X150345487Y-92841500D01*
X150154513Y-92841500D01*
X150149444Y-92842577D01*
X150149438Y-92842578D01*
X149972783Y-92880128D01*
X149972781Y-92880128D01*
X149967712Y-92881206D01*
X149962978Y-92883313D01*
X149962974Y-92883315D01*
X149797981Y-92956774D01*
X149797975Y-92956777D01*
X149793248Y-92958882D01*
X149789063Y-92961922D01*
X149789057Y-92961926D01*
X149642939Y-93068087D01*
X149642931Y-93068093D01*
X149638747Y-93071134D01*
X149635280Y-93074983D01*
X149635277Y-93074987D01*
X149514432Y-93209199D01*
X149514428Y-93209203D01*
X149510960Y-93213056D01*
X149508370Y-93217540D01*
X149508364Y-93217550D01*
X149418067Y-93373950D01*
X149418064Y-93373954D01*
X149415473Y-93378444D01*
X149413874Y-93383364D01*
X149413870Y-93383374D01*
X149358060Y-93555140D01*
X149358059Y-93555144D01*
X149356458Y-93560072D01*
X149355916Y-93565221D01*
X149355915Y-93565230D01*
X149344925Y-93669798D01*
X149336496Y-93750000D01*
X148676234Y-93750000D01*
X145707422Y-90781188D01*
X145698884Y-90771451D01*
X145678352Y-90744693D01*
X145673204Y-90740743D01*
X145646439Y-90720205D01*
X145646437Y-90720203D01*
X145556386Y-90651104D01*
X145551241Y-90647156D01*
X145545247Y-90644673D01*
X145409210Y-90588324D01*
X145409204Y-90588322D01*
X145403216Y-90585842D01*
X145383821Y-90583288D01*
X145284260Y-90570181D01*
X145284240Y-90570179D01*
X145250799Y-90565777D01*
X145244365Y-90564930D01*
X145237931Y-90565777D01*
X145210919Y-90569333D01*
X145197998Y-90570180D01*
X130625047Y-90570180D01*
X130612126Y-90569333D01*
X130585114Y-90565777D01*
X130578680Y-90564930D01*
X130572246Y-90565777D01*
X130572244Y-90565777D01*
X130538803Y-90570179D01*
X130538794Y-90570179D01*
X130538795Y-90570180D01*
X130439223Y-90583288D01*
X130426261Y-90584994D01*
X130426253Y-90584995D01*
X130419829Y-90585842D01*
X130413837Y-90588323D01*
X130413833Y-90588325D01*
X130277797Y-90644673D01*
X130277793Y-90644675D01*
X130271804Y-90647156D01*
X130266661Y-90651101D01*
X130266658Y-90651104D01*
X130176608Y-90720203D01*
X130176605Y-90720205D01*
X130149839Y-90740743D01*
X130149833Y-90740748D01*
X130144693Y-90744693D01*
X130140744Y-90749838D01*
X130140743Y-90749840D01*
X130124158Y-90771453D01*
X130115623Y-90781186D01*
X128655627Y-92241184D01*
X128623509Y-92262644D01*
X128585623Y-92270180D01*
X124597368Y-92270180D01*
X124557101Y-92261621D01*
X124523799Y-92237426D01*
X124489933Y-92199814D01*
X124485743Y-92196770D01*
X124485740Y-92196767D01*
X124339622Y-92090606D01*
X124339620Y-92090605D01*
X124335432Y-92087562D01*
X124330700Y-92085455D01*
X124330698Y-92085454D01*
X124165705Y-92011995D01*
X124165704Y-92011994D01*
X124160968Y-92009886D01*
X124129032Y-92003097D01*
X123979241Y-91971258D01*
X123979236Y-91971257D01*
X123974167Y-91970180D01*
X123783193Y-91970180D01*
X123778124Y-91971257D01*
X123778118Y-91971258D01*
X123601463Y-92008808D01*
X123601461Y-92008808D01*
X123596392Y-92009886D01*
X123591658Y-92011993D01*
X123591654Y-92011995D01*
X123426661Y-92085454D01*
X123426655Y-92085457D01*
X123421928Y-92087562D01*
X123417743Y-92090602D01*
X123417737Y-92090606D01*
X123271619Y-92196767D01*
X123271611Y-92196773D01*
X123267427Y-92199814D01*
X123263960Y-92203663D01*
X123263957Y-92203667D01*
X123143112Y-92337879D01*
X123143108Y-92337883D01*
X123139640Y-92341736D01*
X123137050Y-92346220D01*
X123137044Y-92346230D01*
X123046747Y-92502630D01*
X123046744Y-92502634D01*
X123044153Y-92507124D01*
X123042554Y-92512044D01*
X123042550Y-92512054D01*
X122986740Y-92683820D01*
X122986739Y-92683824D01*
X122985138Y-92688752D01*
X122984596Y-92693901D01*
X122984595Y-92693910D01*
X122965718Y-92873523D01*
X122965176Y-92878680D01*
X122965718Y-92883837D01*
X122984595Y-93063449D01*
X122984596Y-93063456D01*
X122985138Y-93068608D01*
X122986739Y-93073537D01*
X122986740Y-93073539D01*
X123042550Y-93245305D01*
X123042552Y-93245311D01*
X123044153Y-93250236D01*
X123046746Y-93254728D01*
X123046747Y-93254729D01*
X123137044Y-93411129D01*
X123137047Y-93411134D01*
X123139640Y-93415624D01*
X123267427Y-93557546D01*
X123271617Y-93560590D01*
X123271619Y-93560592D01*
X123278003Y-93565230D01*
X123421928Y-93669798D01*
X123596392Y-93747474D01*
X123783193Y-93787180D01*
X123968978Y-93787180D01*
X123974167Y-93787180D01*
X124160968Y-93747474D01*
X124335432Y-93669798D01*
X124489933Y-93557546D01*
X124523799Y-93519933D01*
X124557101Y-93495739D01*
X124597368Y-93487180D01*
X128832313Y-93487180D01*
X128845233Y-93488026D01*
X128878680Y-93492430D01*
X128918560Y-93487180D01*
X128918565Y-93487180D01*
X129018136Y-93474071D01*
X129037531Y-93471518D01*
X129185556Y-93410204D01*
X129280752Y-93337157D01*
X129280751Y-93337157D01*
X129280758Y-93337150D01*
X129312667Y-93312667D01*
X129333205Y-93285899D01*
X129341735Y-93276172D01*
X130801732Y-91816176D01*
X130833851Y-91794716D01*
X130871737Y-91787180D01*
X136866718Y-91787180D01*
X136916218Y-91800443D01*
X136952455Y-91836680D01*
X136963748Y-91878830D01*
X136965176Y-91878680D01*
X136984595Y-92063449D01*
X136984596Y-92063456D01*
X136985138Y-92068608D01*
X136986739Y-92073537D01*
X136986740Y-92073539D01*
X137042550Y-92245305D01*
X137042552Y-92245311D01*
X137044153Y-92250236D01*
X137046746Y-92254728D01*
X137046747Y-92254729D01*
X137137044Y-92411129D01*
X137137047Y-92411134D01*
X137139640Y-92415624D01*
X137267427Y-92557546D01*
X137271617Y-92560590D01*
X137271619Y-92560592D01*
X137313592Y-92591087D01*
X137349556Y-92640587D01*
X137349556Y-92701773D01*
X137313592Y-92751273D01*
X137255401Y-92770180D01*
X135597368Y-92770180D01*
X135557101Y-92761621D01*
X135523799Y-92737426D01*
X135489933Y-92699814D01*
X135485743Y-92696770D01*
X135485740Y-92696767D01*
X135339622Y-92590606D01*
X135339620Y-92590605D01*
X135335432Y-92587562D01*
X135330700Y-92585455D01*
X135330698Y-92585454D01*
X135165705Y-92511995D01*
X135165704Y-92511994D01*
X135160968Y-92509886D01*
X135126831Y-92502630D01*
X134979241Y-92471258D01*
X134979236Y-92471257D01*
X134974167Y-92470180D01*
X134783193Y-92470180D01*
X134778124Y-92471257D01*
X134778118Y-92471258D01*
X134601463Y-92508808D01*
X134601461Y-92508808D01*
X134596392Y-92509886D01*
X134591658Y-92511993D01*
X134591654Y-92511995D01*
X134426661Y-92585454D01*
X134426655Y-92585457D01*
X134421928Y-92587562D01*
X134417743Y-92590602D01*
X134417737Y-92590606D01*
X134271619Y-92696767D01*
X134271611Y-92696773D01*
X134267427Y-92699814D01*
X134263960Y-92703663D01*
X134263957Y-92703667D01*
X134143112Y-92837879D01*
X134143108Y-92837883D01*
X134139640Y-92841736D01*
X134137050Y-92846220D01*
X134137044Y-92846230D01*
X134046747Y-93002630D01*
X134046744Y-93002634D01*
X134044153Y-93007124D01*
X134042554Y-93012044D01*
X134042550Y-93012054D01*
X133986740Y-93183820D01*
X133986739Y-93183824D01*
X133985138Y-93188752D01*
X133984596Y-93193901D01*
X133984595Y-93193910D01*
X133969540Y-93337157D01*
X133965176Y-93378680D01*
X133965718Y-93383837D01*
X133984595Y-93563449D01*
X133984596Y-93563456D01*
X133985138Y-93568608D01*
X133986739Y-93573537D01*
X133986740Y-93573539D01*
X134042550Y-93745305D01*
X134042552Y-93745311D01*
X134044153Y-93750236D01*
X134046746Y-93754728D01*
X134046747Y-93754729D01*
X134137044Y-93911129D01*
X134137047Y-93911134D01*
X134139640Y-93915624D01*
X134267427Y-94057546D01*
X134421928Y-94169798D01*
X134596392Y-94247474D01*
X134783193Y-94287180D01*
X134968978Y-94287180D01*
X134974167Y-94287180D01*
X135160968Y-94247474D01*
X135335432Y-94169798D01*
X135489933Y-94057546D01*
X135523799Y-94019933D01*
X135557101Y-93995739D01*
X135597368Y-93987180D01*
X145159992Y-93987180D01*
X145200259Y-93995739D01*
X145233560Y-94019933D01*
X145267427Y-94057546D01*
X145421928Y-94169798D01*
X145596392Y-94247474D01*
X145783193Y-94287180D01*
X145968978Y-94287180D01*
X145974167Y-94287180D01*
X146160968Y-94247474D01*
X146335432Y-94169798D01*
X146489933Y-94057546D01*
X146518232Y-94026115D01*
X146562857Y-93997686D01*
X146615753Y-93996301D01*
X146661807Y-94022356D01*
X148440627Y-95801176D01*
X148467721Y-95851866D01*
X148462087Y-95909066D01*
X148425624Y-95953495D01*
X148370623Y-95970180D01*
X148283193Y-95970180D01*
X148278124Y-95971257D01*
X148278118Y-95971258D01*
X148101463Y-96008808D01*
X148101461Y-96008808D01*
X148096392Y-96009886D01*
X148091658Y-96011993D01*
X148091654Y-96011995D01*
X147926661Y-96085454D01*
X147926655Y-96085457D01*
X147921928Y-96087562D01*
X147917743Y-96090602D01*
X147917737Y-96090606D01*
X147771619Y-96196767D01*
X147771611Y-96196773D01*
X147767427Y-96199814D01*
X147763960Y-96203663D01*
X147763957Y-96203667D01*
X147643112Y-96337879D01*
X147643108Y-96337883D01*
X147639640Y-96341736D01*
X147637050Y-96346220D01*
X147637044Y-96346230D01*
X147546747Y-96502630D01*
X147546744Y-96502634D01*
X147544153Y-96507124D01*
X147542554Y-96512044D01*
X147542550Y-96512054D01*
X147486740Y-96683820D01*
X147486739Y-96683824D01*
X147485138Y-96688752D01*
X147484596Y-96693901D01*
X147484595Y-96693910D01*
X147470324Y-96829702D01*
X147465176Y-96878680D01*
X147465718Y-96883837D01*
X147465718Y-96889028D01*
X147464170Y-96889028D01*
X147460133Y-96923048D01*
X147436822Y-96959986D01*
X146455627Y-97941183D01*
X146423509Y-97962644D01*
X146385623Y-97970180D01*
X146283193Y-97970180D01*
X146278124Y-97971257D01*
X146278118Y-97971258D01*
X146101463Y-98008808D01*
X146101461Y-98008808D01*
X146096392Y-98009886D01*
X146091658Y-98011993D01*
X146091654Y-98011995D01*
X145926661Y-98085454D01*
X145926655Y-98085457D01*
X145921928Y-98087562D01*
X145917743Y-98090602D01*
X145917737Y-98090606D01*
X145771619Y-98196767D01*
X145771611Y-98196773D01*
X145767427Y-98199814D01*
X145763960Y-98203663D01*
X145763957Y-98203667D01*
X145643112Y-98337879D01*
X145643108Y-98337883D01*
X145639640Y-98341736D01*
X145637050Y-98346220D01*
X145637044Y-98346230D01*
X145546747Y-98502630D01*
X145546744Y-98502634D01*
X145544153Y-98507124D01*
X145542554Y-98512044D01*
X145542550Y-98512054D01*
X145486740Y-98683820D01*
X145486739Y-98683824D01*
X145485138Y-98688752D01*
X145484596Y-98693901D01*
X145484595Y-98693910D01*
X145466264Y-98868331D01*
X145465176Y-98878680D01*
X145465718Y-98883837D01*
X145473810Y-98960832D01*
X145464332Y-99014579D01*
X145427814Y-99055137D01*
X145375352Y-99070180D01*
X137221052Y-99070180D01*
X137166051Y-99053496D01*
X137129588Y-99009066D01*
X137123954Y-98951866D01*
X137151048Y-98901177D01*
X137776168Y-98276055D01*
X137785897Y-98267522D01*
X137812667Y-98246982D01*
X137837154Y-98215069D01*
X137837158Y-98215066D01*
X137910204Y-98119871D01*
X137971518Y-97971846D01*
X137992431Y-97812995D01*
X137988026Y-97779541D01*
X137987180Y-97766620D01*
X137987180Y-97598606D01*
X137993756Y-97563128D01*
X138012609Y-97532362D01*
X138049882Y-97490966D01*
X138117720Y-97415624D01*
X138213207Y-97250236D01*
X138272222Y-97068608D01*
X138292184Y-96878680D01*
X138272222Y-96688752D01*
X138226841Y-96549086D01*
X138214809Y-96512054D01*
X138214808Y-96512052D01*
X138213207Y-96507124D01*
X138136691Y-96374595D01*
X138120315Y-96346230D01*
X138120313Y-96346227D01*
X138117720Y-96341736D01*
X137989933Y-96199814D01*
X137985743Y-96196770D01*
X137985740Y-96196767D01*
X137839622Y-96090606D01*
X137839620Y-96090605D01*
X137835432Y-96087562D01*
X137830700Y-96085455D01*
X137830698Y-96085454D01*
X137665705Y-96011995D01*
X137665704Y-96011994D01*
X137660968Y-96009886D01*
X137628756Y-96003039D01*
X137479241Y-95971258D01*
X137479236Y-95971257D01*
X137474167Y-95970180D01*
X137283193Y-95970180D01*
X137278124Y-95971257D01*
X137278118Y-95971258D01*
X137101463Y-96008808D01*
X137101461Y-96008808D01*
X137096392Y-96009886D01*
X137091658Y-96011993D01*
X137091654Y-96011995D01*
X136926661Y-96085454D01*
X136926655Y-96085457D01*
X136921928Y-96087562D01*
X136917743Y-96090602D01*
X136917737Y-96090606D01*
X136771619Y-96196767D01*
X136771611Y-96196773D01*
X136767427Y-96199814D01*
X136763960Y-96203663D01*
X136763957Y-96203667D01*
X136643112Y-96337879D01*
X136643108Y-96337883D01*
X136639640Y-96341736D01*
X136637050Y-96346220D01*
X136637044Y-96346230D01*
X136546747Y-96502630D01*
X136546744Y-96502634D01*
X136544153Y-96507124D01*
X136542554Y-96512044D01*
X136542550Y-96512054D01*
X136486740Y-96683820D01*
X136486739Y-96683824D01*
X136485138Y-96688752D01*
X136484596Y-96693901D01*
X136484595Y-96693910D01*
X136470324Y-96829702D01*
X136465176Y-96878680D01*
X136465718Y-96883837D01*
X136484595Y-97063449D01*
X136484596Y-97063456D01*
X136485138Y-97068608D01*
X136486739Y-97073537D01*
X136486740Y-97073539D01*
X136542550Y-97245305D01*
X136542552Y-97245311D01*
X136544153Y-97250236D01*
X136546746Y-97254728D01*
X136546747Y-97254729D01*
X136637044Y-97411129D01*
X136637047Y-97411134D01*
X136639640Y-97415624D01*
X136657069Y-97434981D01*
X136707478Y-97490966D01*
X136730370Y-97534940D01*
X136729072Y-97584498D01*
X136703911Y-97627214D01*
X131481190Y-102849934D01*
X131471457Y-102858469D01*
X131449845Y-102875053D01*
X131449838Y-102875059D01*
X131444693Y-102879008D01*
X131440744Y-102884153D01*
X131440741Y-102884157D01*
X131420205Y-102910920D01*
X131420203Y-102910923D01*
X131351104Y-103000973D01*
X131351101Y-103000976D01*
X131347156Y-103006119D01*
X131344675Y-103012108D01*
X131344673Y-103012112D01*
X131336670Y-103031434D01*
X131291477Y-103140539D01*
X131285842Y-103154145D01*
X131284996Y-103160567D01*
X131284995Y-103160573D01*
X131271095Y-103266158D01*
X131270180Y-103273110D01*
X131270180Y-103273115D01*
X131264930Y-103312995D01*
X131265777Y-103319429D01*
X131269333Y-103346441D01*
X131270180Y-103359362D01*
X131270180Y-115085623D01*
X131262644Y-115123509D01*
X131241184Y-115155627D01*
X130156184Y-116240626D01*
X130105494Y-116267720D01*
X130048294Y-116262086D01*
X130003865Y-116225623D01*
X129987180Y-116170622D01*
X129987180Y-104864583D01*
X129997199Y-104821184D01*
X130025229Y-104786570D01*
X130065596Y-104767746D01*
X130160968Y-104747474D01*
X130335432Y-104669798D01*
X130489933Y-104557546D01*
X130617720Y-104415624D01*
X130713207Y-104250236D01*
X130772222Y-104068608D01*
X130792184Y-103878680D01*
X130772222Y-103688752D01*
X130713207Y-103507124D01*
X130646578Y-103391719D01*
X130620315Y-103346230D01*
X130620313Y-103346227D01*
X130617720Y-103341736D01*
X130489933Y-103199814D01*
X130485743Y-103196770D01*
X130485740Y-103196767D01*
X130339622Y-103090606D01*
X130339620Y-103090605D01*
X130335432Y-103087562D01*
X130330700Y-103085455D01*
X130330698Y-103085454D01*
X130165705Y-103011995D01*
X130165704Y-103011994D01*
X130160968Y-103009886D01*
X130119022Y-103000970D01*
X129979241Y-102971258D01*
X129979236Y-102971257D01*
X129974167Y-102970180D01*
X129783193Y-102970180D01*
X129778124Y-102971257D01*
X129778118Y-102971258D01*
X129601463Y-103008808D01*
X129601461Y-103008808D01*
X129596392Y-103009886D01*
X129591658Y-103011993D01*
X129591654Y-103011995D01*
X129426661Y-103085454D01*
X129426655Y-103085457D01*
X129421928Y-103087562D01*
X129417743Y-103090602D01*
X129417737Y-103090606D01*
X129271619Y-103196767D01*
X129271611Y-103196773D01*
X129267427Y-103199814D01*
X129263960Y-103203663D01*
X129263957Y-103203667D01*
X129143112Y-103337879D01*
X129143108Y-103337883D01*
X129139640Y-103341736D01*
X129137050Y-103346220D01*
X129137044Y-103346230D01*
X129046747Y-103502630D01*
X129046744Y-103502634D01*
X129044153Y-103507124D01*
X129042554Y-103512044D01*
X129042550Y-103512054D01*
X128986740Y-103683820D01*
X128986739Y-103683824D01*
X128985138Y-103688752D01*
X128984596Y-103693901D01*
X128984595Y-103693910D01*
X128966264Y-103868331D01*
X128965176Y-103878680D01*
X128965718Y-103883837D01*
X128965718Y-103883858D01*
X128958182Y-103921744D01*
X128943473Y-103943757D01*
X128944693Y-103944693D01*
X128920205Y-103976605D01*
X128920203Y-103976608D01*
X128851104Y-104066658D01*
X128851101Y-104066661D01*
X128847156Y-104071804D01*
X128844675Y-104077793D01*
X128844673Y-104077797D01*
X128794576Y-104198742D01*
X128788079Y-104214428D01*
X128785842Y-104219830D01*
X128784996Y-104226252D01*
X128784995Y-104226258D01*
X128781247Y-104254729D01*
X128770180Y-104338795D01*
X128770180Y-104338800D01*
X128764930Y-104378680D01*
X128765777Y-104385114D01*
X128769333Y-104412126D01*
X128770180Y-104425047D01*
X128770180Y-116085623D01*
X128762644Y-116123509D01*
X128741184Y-116155627D01*
X127155627Y-117741184D01*
X127123509Y-117762644D01*
X127085623Y-117770180D01*
X122637263Y-117770180D01*
X122584801Y-117755137D01*
X122548283Y-117714579D01*
X122538805Y-117660833D01*
X122541642Y-117633838D01*
X122541642Y-117633837D01*
X122542184Y-117628680D01*
X122522222Y-117438752D01*
X122504431Y-117383997D01*
X122501748Y-117332820D01*
X122525013Y-117287159D01*
X122567992Y-117259248D01*
X122619166Y-117256566D01*
X122763193Y-117287180D01*
X122948978Y-117287180D01*
X122954167Y-117287180D01*
X123140968Y-117247474D01*
X123315432Y-117169798D01*
X123469933Y-117057546D01*
X123597720Y-116915624D01*
X123693207Y-116750236D01*
X123750071Y-116575226D01*
X123774219Y-116535820D01*
X126242177Y-114067862D01*
X126253042Y-114058473D01*
X126256688Y-114055759D01*
X126299460Y-114037530D01*
X126345844Y-114040840D01*
X126385599Y-114064963D01*
X126409955Y-114104575D01*
X126413868Y-114116617D01*
X126415473Y-114121556D01*
X126418067Y-114126049D01*
X126418069Y-114126053D01*
X126508364Y-114282449D01*
X126508367Y-114282454D01*
X126510960Y-114286944D01*
X126638747Y-114428866D01*
X126642937Y-114431910D01*
X126642939Y-114431912D01*
X126729556Y-114494843D01*
X126793248Y-114541118D01*
X126967712Y-114618794D01*
X127154513Y-114658500D01*
X127340298Y-114658500D01*
X127345487Y-114658500D01*
X127532288Y-114618794D01*
X127706752Y-114541118D01*
X127861253Y-114428866D01*
X127989040Y-114286944D01*
X128084527Y-114121556D01*
X128143542Y-113939928D01*
X128163504Y-113750000D01*
X128143542Y-113560072D01*
X128098161Y-113420406D01*
X128086129Y-113383374D01*
X128086128Y-113383372D01*
X128084527Y-113378444D01*
X128021763Y-113269735D01*
X128008500Y-113220236D01*
X128008500Y-110312474D01*
X128009545Y-110298126D01*
X128009602Y-110297730D01*
X128013341Y-110272211D01*
X128008877Y-110221188D01*
X128008500Y-110212559D01*
X128008500Y-110208699D01*
X128008500Y-110205820D01*
X128004813Y-110174287D01*
X128004526Y-110171469D01*
X128004366Y-110169640D01*
X127997887Y-110095574D01*
X127996071Y-110090094D01*
X127994986Y-110084837D01*
X127993748Y-110079618D01*
X127993079Y-110073887D01*
X127967002Y-110002243D01*
X127966078Y-109999583D01*
X127961098Y-109984555D01*
X127942114Y-109927262D01*
X127939082Y-109922346D01*
X127936805Y-109917464D01*
X127934409Y-109912693D01*
X127932435Y-109907268D01*
X127890556Y-109843595D01*
X127889008Y-109841165D01*
X127852056Y-109781255D01*
X127852055Y-109781254D01*
X127849030Y-109776349D01*
X127844953Y-109772272D01*
X127841617Y-109768053D01*
X127838171Y-109763946D01*
X127835001Y-109759126D01*
X127815113Y-109740363D01*
X127779578Y-109706837D01*
X127777512Y-109704831D01*
X127330508Y-109257827D01*
X127321108Y-109246949D01*
X127305469Y-109225942D01*
X127271947Y-109197814D01*
X127266239Y-109193024D01*
X127259871Y-109187190D01*
X127257130Y-109184449D01*
X127257129Y-109184448D01*
X127255101Y-109182420D01*
X127230230Y-109162754D01*
X127228004Y-109160941D01*
X127174053Y-109115671D01*
X127169640Y-109111968D01*
X127164488Y-109109380D01*
X127160002Y-109106430D01*
X127155429Y-109103609D01*
X127150906Y-109100033D01*
X127081822Y-109067818D01*
X127079296Y-109066595D01*
X127011188Y-109032391D01*
X127005575Y-109031060D01*
X127000510Y-109029217D01*
X126995433Y-109027534D01*
X126990206Y-109025097D01*
X126984558Y-109023930D01*
X126984550Y-109023928D01*
X126915531Y-109009676D01*
X126912734Y-109009056D01*
X126874498Y-108999994D01*
X126844260Y-108992828D01*
X126844258Y-108992827D01*
X126838656Y-108991500D01*
X126832896Y-108991500D01*
X126827497Y-108990869D01*
X126822196Y-108990405D01*
X126816558Y-108989241D01*
X126810802Y-108989408D01*
X126810797Y-108989408D01*
X126740363Y-108991458D01*
X126737484Y-108991500D01*
X119605189Y-108991500D01*
X119567303Y-108983964D01*
X119535185Y-108962504D01*
X119071307Y-108498626D01*
X119046764Y-108457979D01*
X119043969Y-108410580D01*
X119063565Y-108367331D01*
X119101043Y-108338182D01*
X119206752Y-108291118D01*
X119361253Y-108178866D01*
X119489040Y-108036944D01*
X119584527Y-107871556D01*
X119643542Y-107689928D01*
X119663504Y-107500000D01*
X119643542Y-107310072D01*
X119584527Y-107128444D01*
X119521763Y-107019735D01*
X119508500Y-106970236D01*
X119508500Y-99490863D01*
X127118612Y-99490863D01*
X127119154Y-99496020D01*
X127138031Y-99675632D01*
X127138032Y-99675639D01*
X127138574Y-99680791D01*
X127140175Y-99685720D01*
X127140176Y-99685722D01*
X127195986Y-99857488D01*
X127195988Y-99857494D01*
X127197589Y-99862419D01*
X127200182Y-99866911D01*
X127200183Y-99866912D01*
X127290480Y-100023312D01*
X127290483Y-100023317D01*
X127293076Y-100027807D01*
X127420863Y-100169729D01*
X127575364Y-100281981D01*
X127749828Y-100359657D01*
X127936629Y-100399363D01*
X128122414Y-100399363D01*
X128127603Y-100399363D01*
X128314404Y-100359657D01*
X128488868Y-100281981D01*
X128643369Y-100169729D01*
X128771156Y-100027807D01*
X128866643Y-99862419D01*
X128925658Y-99680791D01*
X128945620Y-99490863D01*
X128925658Y-99300935D01*
X128924053Y-99295994D01*
X128897994Y-99215793D01*
X128895311Y-99164617D01*
X128918576Y-99118956D01*
X128961555Y-99091045D01*
X129012730Y-99088363D01*
X129154513Y-99118500D01*
X129340298Y-99118500D01*
X129345487Y-99118500D01*
X129486906Y-99088440D01*
X129538080Y-99091122D01*
X129581059Y-99119033D01*
X129604324Y-99164693D01*
X129601643Y-99215869D01*
X129579736Y-99283293D01*
X129579734Y-99283300D01*
X129578133Y-99288229D01*
X129577591Y-99293378D01*
X129577590Y-99293387D01*
X129576255Y-99306093D01*
X129558171Y-99478157D01*
X129558713Y-99483314D01*
X129577590Y-99662926D01*
X129577591Y-99662933D01*
X129578133Y-99668085D01*
X129579734Y-99673014D01*
X129579735Y-99673016D01*
X129635545Y-99844782D01*
X129635547Y-99844788D01*
X129637148Y-99849713D01*
X129639741Y-99854205D01*
X129639742Y-99854206D01*
X129730039Y-100010606D01*
X129730042Y-100010611D01*
X129732635Y-100015101D01*
X129860422Y-100157023D01*
X129864612Y-100160067D01*
X129864614Y-100160069D01*
X129991753Y-100252441D01*
X130014923Y-100269275D01*
X130189387Y-100346951D01*
X130376188Y-100386657D01*
X130561973Y-100386657D01*
X130567162Y-100386657D01*
X130753963Y-100346951D01*
X130928427Y-100269275D01*
X131082928Y-100157023D01*
X131210715Y-100015101D01*
X131306202Y-99849713D01*
X131365217Y-99668085D01*
X131385179Y-99478157D01*
X131365217Y-99288229D01*
X131311932Y-99124237D01*
X131307804Y-99111531D01*
X131307803Y-99111529D01*
X131306202Y-99106601D01*
X131222042Y-98960832D01*
X131213310Y-98945707D01*
X131213308Y-98945704D01*
X131210715Y-98941213D01*
X131082928Y-98799291D01*
X131078738Y-98796247D01*
X131078735Y-98796244D01*
X130932617Y-98690083D01*
X130932615Y-98690082D01*
X130928427Y-98687039D01*
X130923695Y-98684932D01*
X130923693Y-98684931D01*
X130758700Y-98611472D01*
X130758699Y-98611471D01*
X130753963Y-98609363D01*
X130708578Y-98599716D01*
X130572236Y-98570735D01*
X130572231Y-98570734D01*
X130567162Y-98569657D01*
X130376188Y-98569657D01*
X130371119Y-98570734D01*
X130371113Y-98570735D01*
X130234769Y-98599716D01*
X130183593Y-98597033D01*
X130140614Y-98569123D01*
X130117349Y-98523462D01*
X130120032Y-98472286D01*
X130141937Y-98404868D01*
X130141937Y-98404866D01*
X130143542Y-98399928D01*
X130163504Y-98210000D01*
X130143542Y-98020072D01*
X130140918Y-98011995D01*
X130107569Y-97909358D01*
X130104886Y-97858182D01*
X130128152Y-97812521D01*
X130171130Y-97784610D01*
X130222303Y-97781928D01*
X130401600Y-97820039D01*
X130587385Y-97820039D01*
X130592574Y-97820039D01*
X130779375Y-97780333D01*
X130953839Y-97702657D01*
X131108340Y-97590405D01*
X131236127Y-97448483D01*
X131331614Y-97283095D01*
X131390629Y-97101467D01*
X131410591Y-96911539D01*
X131390629Y-96721611D01*
X131331614Y-96539983D01*
X131236127Y-96374595D01*
X131108340Y-96232673D01*
X131104150Y-96229629D01*
X131104147Y-96229626D01*
X130958029Y-96123465D01*
X130958027Y-96123464D01*
X130953839Y-96120421D01*
X130949107Y-96118314D01*
X130949105Y-96118313D01*
X130784112Y-96044854D01*
X130784111Y-96044853D01*
X130779375Y-96042745D01*
X130747439Y-96035956D01*
X130597648Y-96004117D01*
X130597643Y-96004116D01*
X130592574Y-96003039D01*
X130401600Y-96003039D01*
X130396531Y-96004116D01*
X130396525Y-96004117D01*
X130219870Y-96041667D01*
X130219868Y-96041667D01*
X130214799Y-96042745D01*
X130210065Y-96044852D01*
X130210061Y-96044854D01*
X130045068Y-96118313D01*
X130045062Y-96118316D01*
X130040335Y-96120421D01*
X130036150Y-96123461D01*
X130036144Y-96123465D01*
X129890026Y-96229626D01*
X129890018Y-96229632D01*
X129885834Y-96232673D01*
X129882367Y-96236522D01*
X129882364Y-96236526D01*
X129761519Y-96370738D01*
X129761515Y-96370742D01*
X129758047Y-96374595D01*
X129755457Y-96379079D01*
X129755451Y-96379089D01*
X129665154Y-96535489D01*
X129665151Y-96535493D01*
X129662560Y-96539983D01*
X129660961Y-96544903D01*
X129660957Y-96544913D01*
X129605147Y-96716679D01*
X129605146Y-96716683D01*
X129603545Y-96721611D01*
X129603003Y-96726760D01*
X129603002Y-96726769D01*
X129586220Y-96886446D01*
X129583583Y-96911539D01*
X129584125Y-96916696D01*
X129603002Y-97096308D01*
X129603003Y-97096315D01*
X129603545Y-97101467D01*
X129605146Y-97106396D01*
X129605147Y-97106398D01*
X129639518Y-97212180D01*
X129642200Y-97263356D01*
X129618934Y-97309017D01*
X129575956Y-97336928D01*
X129524780Y-97339610D01*
X129350561Y-97302578D01*
X129350556Y-97302577D01*
X129345487Y-97301500D01*
X129154513Y-97301500D01*
X129149444Y-97302577D01*
X129149438Y-97302578D01*
X129038960Y-97326061D01*
X128987784Y-97323378D01*
X128944805Y-97295467D01*
X128921540Y-97249806D01*
X128924223Y-97198630D01*
X128962343Y-97081311D01*
X128962343Y-97081309D01*
X128963947Y-97076374D01*
X128983909Y-96886446D01*
X128963947Y-96696518D01*
X128904932Y-96514890D01*
X128826527Y-96379089D01*
X128812040Y-96353996D01*
X128812038Y-96353993D01*
X128809445Y-96349502D01*
X128681658Y-96207580D01*
X128677468Y-96204536D01*
X128677465Y-96204533D01*
X128531347Y-96098372D01*
X128531345Y-96098371D01*
X128527157Y-96095328D01*
X128522425Y-96093221D01*
X128522423Y-96093220D01*
X128357430Y-96019761D01*
X128357429Y-96019760D01*
X128352693Y-96017652D01*
X128316157Y-96009886D01*
X128170966Y-95979024D01*
X128170961Y-95979023D01*
X128165892Y-95977946D01*
X127974918Y-95977946D01*
X127969849Y-95979023D01*
X127969843Y-95979024D01*
X127793188Y-96016574D01*
X127793186Y-96016574D01*
X127788117Y-96017652D01*
X127783383Y-96019759D01*
X127783379Y-96019761D01*
X127618386Y-96093220D01*
X127618380Y-96093223D01*
X127613653Y-96095328D01*
X127609468Y-96098368D01*
X127609462Y-96098372D01*
X127463344Y-96204533D01*
X127463336Y-96204539D01*
X127459152Y-96207580D01*
X127455685Y-96211429D01*
X127455682Y-96211433D01*
X127334837Y-96345645D01*
X127334833Y-96345649D01*
X127331365Y-96349502D01*
X127328775Y-96353986D01*
X127328769Y-96353996D01*
X127238472Y-96510396D01*
X127238469Y-96510400D01*
X127235878Y-96514890D01*
X127234279Y-96519810D01*
X127234275Y-96519820D01*
X127178465Y-96691586D01*
X127178464Y-96691590D01*
X127176863Y-96696518D01*
X127176321Y-96701667D01*
X127176320Y-96701676D01*
X127163781Y-96820988D01*
X127156901Y-96886446D01*
X127157443Y-96891603D01*
X127176320Y-97071215D01*
X127176321Y-97071222D01*
X127176863Y-97076374D01*
X127178464Y-97081303D01*
X127178465Y-97081305D01*
X127234275Y-97253071D01*
X127234277Y-97253077D01*
X127235878Y-97258002D01*
X127238471Y-97262494D01*
X127238472Y-97262495D01*
X127328769Y-97418895D01*
X127328772Y-97418900D01*
X127331365Y-97423390D01*
X127459152Y-97565312D01*
X127613653Y-97677564D01*
X127788117Y-97755240D01*
X127974918Y-97794946D01*
X128160703Y-97794946D01*
X128165892Y-97794946D01*
X128202428Y-97787180D01*
X128281443Y-97770385D01*
X128332619Y-97773066D01*
X128375598Y-97800977D01*
X128398864Y-97846638D01*
X128396182Y-97897814D01*
X128358060Y-98015140D01*
X128358059Y-98015144D01*
X128356458Y-98020072D01*
X128355916Y-98025221D01*
X128355915Y-98025230D01*
X128345428Y-98125016D01*
X128336496Y-98210000D01*
X128337038Y-98215157D01*
X128355915Y-98394769D01*
X128355916Y-98394776D01*
X128356458Y-98399928D01*
X128358059Y-98404857D01*
X128358060Y-98404859D01*
X128384122Y-98485069D01*
X128386804Y-98536245D01*
X128363538Y-98581906D01*
X128320560Y-98609817D01*
X128269384Y-98612499D01*
X128132677Y-98583441D01*
X128132672Y-98583440D01*
X128127603Y-98582363D01*
X127936629Y-98582363D01*
X127931560Y-98583440D01*
X127931554Y-98583441D01*
X127754899Y-98620991D01*
X127754897Y-98620991D01*
X127749828Y-98622069D01*
X127745094Y-98624176D01*
X127745090Y-98624178D01*
X127580097Y-98697637D01*
X127580091Y-98697640D01*
X127575364Y-98699745D01*
X127571179Y-98702785D01*
X127571173Y-98702789D01*
X127425055Y-98808950D01*
X127425047Y-98808956D01*
X127420863Y-98811997D01*
X127417396Y-98815846D01*
X127417393Y-98815850D01*
X127296548Y-98950062D01*
X127296544Y-98950066D01*
X127293076Y-98953919D01*
X127290486Y-98958403D01*
X127290480Y-98958413D01*
X127200183Y-99114813D01*
X127200180Y-99114817D01*
X127197589Y-99119307D01*
X127195990Y-99124227D01*
X127195986Y-99124237D01*
X127140176Y-99296003D01*
X127140175Y-99296007D01*
X127138574Y-99300935D01*
X127138032Y-99306084D01*
X127138031Y-99306093D01*
X127120489Y-99473000D01*
X127118612Y-99490863D01*
X119508500Y-99490863D01*
X119508500Y-97053963D01*
X119519290Y-97009018D01*
X119549306Y-96973873D01*
X119611253Y-96928866D01*
X119739040Y-96786944D01*
X119834527Y-96621556D01*
X119893542Y-96439928D01*
X119913504Y-96250000D01*
X119893542Y-96060072D01*
X119834527Y-95878444D01*
X119739040Y-95713056D01*
X119611253Y-95571134D01*
X119607063Y-95568090D01*
X119607060Y-95568087D01*
X119460942Y-95461926D01*
X119460940Y-95461925D01*
X119456752Y-95458882D01*
X119452020Y-95456775D01*
X119452018Y-95456774D01*
X119287025Y-95383315D01*
X119287024Y-95383314D01*
X119282288Y-95381206D01*
X119250352Y-95374417D01*
X119100561Y-95342578D01*
X119100556Y-95342577D01*
X119095487Y-95341500D01*
X118904513Y-95341500D01*
X118899444Y-95342577D01*
X118899438Y-95342578D01*
X118722783Y-95380128D01*
X118722781Y-95380128D01*
X118717712Y-95381206D01*
X118712978Y-95383313D01*
X118712974Y-95383315D01*
X118547981Y-95456774D01*
X118547975Y-95456777D01*
X118543248Y-95458882D01*
X118539062Y-95461922D01*
X118539052Y-95461929D01*
X118524375Y-95472593D01*
X118466185Y-95491500D01*
X114312474Y-95491500D01*
X114298126Y-95490455D01*
X114277913Y-95487494D01*
X114277911Y-95487493D01*
X114272211Y-95486659D01*
X114266471Y-95487161D01*
X114266467Y-95487161D01*
X114221188Y-95491123D01*
X114212559Y-95491500D01*
X114205820Y-95491500D01*
X114202974Y-95491832D01*
X114202950Y-95491834D01*
X114174313Y-95495181D01*
X114171454Y-95495473D01*
X114101318Y-95501610D01*
X114101314Y-95501610D01*
X114095574Y-95502113D01*
X114090103Y-95503924D01*
X114084819Y-95505016D01*
X114079602Y-95506252D01*
X114073887Y-95506921D01*
X114068482Y-95508888D01*
X114068470Y-95508891D01*
X114002293Y-95532977D01*
X113999577Y-95533921D01*
X113932737Y-95556070D01*
X113932724Y-95556075D01*
X113927262Y-95557886D01*
X113922360Y-95560908D01*
X113917456Y-95563196D01*
X113912678Y-95565595D01*
X113907268Y-95567565D01*
X113902458Y-95570728D01*
X113902451Y-95570732D01*
X113843625Y-95609423D01*
X113841198Y-95610969D01*
X113781256Y-95647942D01*
X113781248Y-95647948D01*
X113776349Y-95650970D01*
X113772278Y-95655039D01*
X113768035Y-95658395D01*
X113763935Y-95661835D01*
X113759126Y-95664999D01*
X113755174Y-95669187D01*
X113755170Y-95669191D01*
X113706837Y-95720420D01*
X113704832Y-95722485D01*
X108257828Y-101169489D01*
X108246947Y-101178892D01*
X108230567Y-101191087D01*
X108230563Y-101191090D01*
X108225942Y-101194531D01*
X108222240Y-101198941D01*
X108222230Y-101198952D01*
X108193010Y-101233774D01*
X108187192Y-101240125D01*
X108184459Y-101242859D01*
X108184453Y-101242865D01*
X108182420Y-101244899D01*
X108180646Y-101247141D01*
X108180633Y-101247157D01*
X108162750Y-101269773D01*
X108160936Y-101272000D01*
X108115673Y-101325944D01*
X108111968Y-101330360D01*
X108109383Y-101335506D01*
X108106429Y-101339997D01*
X108103603Y-101344577D01*
X108100033Y-101349094D01*
X108097601Y-101354308D01*
X108097598Y-101354314D01*
X108067820Y-101418171D01*
X108066567Y-101420759D01*
X108049759Y-101454229D01*
X108032391Y-101488812D01*
X108031061Y-101494420D01*
X108029209Y-101499510D01*
X108027530Y-101504574D01*
X108025097Y-101509794D01*
X108023933Y-101515430D01*
X108023929Y-101515443D01*
X108009681Y-101584443D01*
X108009059Y-101587250D01*
X107992829Y-101655732D01*
X107992827Y-101655740D01*
X107991500Y-101661344D01*
X107991500Y-101667104D01*
X107990867Y-101672520D01*
X107990404Y-101677806D01*
X107989241Y-101683442D01*
X107989408Y-101689196D01*
X107989408Y-101689202D01*
X107991458Y-101759637D01*
X107991500Y-101762516D01*
X107991500Y-107423220D01*
X107990455Y-107437568D01*
X107986659Y-107463483D01*
X107379180Y-107463483D01*
X107379180Y-92752318D01*
X110155785Y-92752318D01*
X110156066Y-92754935D01*
X110156067Y-92754947D01*
X110161634Y-92806726D01*
X110162296Y-92812881D01*
X110213396Y-92949884D01*
X110217633Y-92955545D01*
X110217636Y-92955549D01*
X110252881Y-93002630D01*
X110301024Y-93066941D01*
X110306692Y-93071184D01*
X110412415Y-93150328D01*
X110412417Y-93150329D01*
X110418081Y-93154569D01*
X110555084Y-93205669D01*
X110615647Y-93212180D01*
X112410276Y-93212180D01*
X112412923Y-93212180D01*
X112473486Y-93205669D01*
X112610489Y-93154569D01*
X112727546Y-93066941D01*
X112815174Y-92949884D01*
X112866274Y-92812881D01*
X112872785Y-92752318D01*
X112872785Y-92481820D01*
X112886665Y-92431267D01*
X112924412Y-92394890D01*
X112975443Y-92382888D01*
X113025449Y-92398626D01*
X113060406Y-92437692D01*
X113070303Y-92457569D01*
X113075108Y-92465329D01*
X113198021Y-92628091D01*
X113204168Y-92634834D01*
X113354904Y-92772249D01*
X113362174Y-92777739D01*
X113535600Y-92885119D01*
X113543757Y-92889181D01*
X113733954Y-92962864D01*
X113742727Y-92965359D01*
X113889946Y-92992879D01*
X113901060Y-92991677D01*
X113904285Y-92980974D01*
X114204285Y-92980974D01*
X114207509Y-92991677D01*
X114218623Y-92992879D01*
X114365842Y-92965359D01*
X114374615Y-92962864D01*
X114564812Y-92889181D01*
X114572969Y-92885119D01*
X114746395Y-92777739D01*
X114753665Y-92772249D01*
X114904401Y-92634834D01*
X114910548Y-92628091D01*
X115033461Y-92465329D01*
X115038266Y-92457569D01*
X115129179Y-92274989D01*
X115132475Y-92266483D01*
X115188296Y-92070292D01*
X115189968Y-92061346D01*
X115194037Y-92017429D01*
X115192027Y-92006674D01*
X115181502Y-92003680D01*
X114217318Y-92003680D01*
X114207039Y-92006434D01*
X114204285Y-92016713D01*
X114204285Y-92980974D01*
X113904285Y-92980974D01*
X113904285Y-91690647D01*
X114204285Y-91690647D01*
X114207039Y-91700925D01*
X114217318Y-91703680D01*
X115181502Y-91703680D01*
X115192027Y-91700685D01*
X115194037Y-91689930D01*
X115189968Y-91646013D01*
X115188296Y-91637067D01*
X115132475Y-91440876D01*
X115129179Y-91432370D01*
X115038266Y-91249790D01*
X115033461Y-91242030D01*
X114910548Y-91079268D01*
X114904401Y-91072525D01*
X114753665Y-90935110D01*
X114746395Y-90929620D01*
X114572969Y-90822240D01*
X114564812Y-90818178D01*
X114374615Y-90744495D01*
X114365842Y-90742000D01*
X114218623Y-90714480D01*
X114207509Y-90715682D01*
X114204285Y-90726386D01*
X114204285Y-91690647D01*
X113904285Y-91690647D01*
X113904285Y-90726386D01*
X113901060Y-90715682D01*
X113889946Y-90714480D01*
X113742727Y-90742000D01*
X113733954Y-90744495D01*
X113543757Y-90818178D01*
X113535600Y-90822240D01*
X113362174Y-90929620D01*
X113354904Y-90935110D01*
X113204168Y-91072525D01*
X113198021Y-91079268D01*
X113075108Y-91242030D01*
X113070303Y-91249790D01*
X113060406Y-91269668D01*
X113025449Y-91308734D01*
X112975443Y-91324472D01*
X112924412Y-91312470D01*
X112886665Y-91276093D01*
X112872785Y-91225540D01*
X112872785Y-90957689D01*
X112872785Y-90955042D01*
X112866274Y-90894479D01*
X112815174Y-90757476D01*
X112810934Y-90751812D01*
X112810933Y-90751810D01*
X112731789Y-90646087D01*
X112727546Y-90640419D01*
X112657957Y-90588325D01*
X112616154Y-90557031D01*
X112616150Y-90557028D01*
X112610489Y-90552791D01*
X112473486Y-90501691D01*
X112467333Y-90501029D01*
X112467331Y-90501029D01*
X112415552Y-90495462D01*
X112415540Y-90495461D01*
X112412923Y-90495180D01*
X110615647Y-90495180D01*
X110613030Y-90495461D01*
X110613017Y-90495462D01*
X110561238Y-90501029D01*
X110561234Y-90501029D01*
X110555084Y-90501691D01*
X110549286Y-90503853D01*
X110549284Y-90503854D01*
X110424713Y-90550317D01*
X110424710Y-90550318D01*
X110418081Y-90552791D01*
X110412422Y-90557026D01*
X110412415Y-90557031D01*
X110306692Y-90636175D01*
X110306688Y-90636178D01*
X110301024Y-90640419D01*
X110296783Y-90646083D01*
X110296780Y-90646087D01*
X110217636Y-90751810D01*
X110217631Y-90751817D01*
X110213396Y-90757476D01*
X110210923Y-90764105D01*
X110210922Y-90764108D01*
X110190755Y-90818178D01*
X110162296Y-90894479D01*
X110161634Y-90900629D01*
X110161634Y-90900633D01*
X110156067Y-90952412D01*
X110156066Y-90952425D01*
X110155785Y-90955042D01*
X110155785Y-92752318D01*
X107379180Y-92752318D01*
X107379180Y-85381267D01*
X107379248Y-85378680D01*
X109023021Y-85378680D01*
X109023398Y-85382989D01*
X109043240Y-85609787D01*
X109043241Y-85609794D01*
X109043617Y-85614088D01*
X109044731Y-85618249D01*
X109044733Y-85618255D01*
X109103658Y-85838170D01*
X109103661Y-85838178D01*
X109104777Y-85842343D01*
X109106602Y-85846257D01*
X109106604Y-85846262D01*
X109202814Y-86052584D01*
X109202815Y-86052585D01*
X109204645Y-86056509D01*
X109207125Y-86060052D01*
X109207127Y-86060054D01*
X109337705Y-86246540D01*
X109337708Y-86246544D01*
X109340185Y-86250081D01*
X109507279Y-86417175D01*
X109700851Y-86552715D01*
X109915017Y-86652583D01*
X110143272Y-86713743D01*
X110319714Y-86729180D01*
X110435477Y-86729180D01*
X110437646Y-86729180D01*
X110614088Y-86713743D01*
X110842343Y-86652583D01*
X111056509Y-86552715D01*
X111250081Y-86417175D01*
X111417175Y-86250081D01*
X111552715Y-86056510D01*
X111652583Y-85842343D01*
X111713743Y-85614088D01*
X111734339Y-85378680D01*
X111713743Y-85143272D01*
X111652583Y-84915017D01*
X111577989Y-84755050D01*
X111554545Y-84704775D01*
X111554543Y-84704773D01*
X111552715Y-84700851D01*
X111417175Y-84507279D01*
X111250081Y-84340185D01*
X111246544Y-84337708D01*
X111246540Y-84337705D01*
X111060054Y-84207127D01*
X111060052Y-84207125D01*
X111056509Y-84204645D01*
X111052590Y-84202817D01*
X111052584Y-84202814D01*
X110846262Y-84106604D01*
X110846257Y-84106602D01*
X110842343Y-84104777D01*
X110838178Y-84103661D01*
X110838170Y-84103658D01*
X110618255Y-84044733D01*
X110618249Y-84044731D01*
X110614088Y-84043617D01*
X110609794Y-84043241D01*
X110609787Y-84043240D01*
X110439809Y-84028369D01*
X110439803Y-84028368D01*
X110437646Y-84028180D01*
X110319714Y-84028180D01*
X110317557Y-84028368D01*
X110317550Y-84028369D01*
X110147572Y-84043240D01*
X110147563Y-84043241D01*
X110143272Y-84043617D01*
X110139112Y-84044731D01*
X110139104Y-84044733D01*
X109919189Y-84103658D01*
X109919177Y-84103662D01*
X109915017Y-84104777D01*
X109911106Y-84106600D01*
X109911097Y-84106604D01*
X109704775Y-84202814D01*
X109704764Y-84202820D01*
X109700851Y-84204645D01*
X109697312Y-84207122D01*
X109697305Y-84207127D01*
X109510819Y-84337705D01*
X109510809Y-84337712D01*
X109507279Y-84340185D01*
X109504231Y-84343232D01*
X109504225Y-84343238D01*
X109343238Y-84504225D01*
X109343232Y-84504231D01*
X109340185Y-84507279D01*
X109337712Y-84510809D01*
X109337705Y-84510819D01*
X109207127Y-84697304D01*
X109207122Y-84697311D01*
X109204645Y-84700850D01*
X109202820Y-84704763D01*
X109202814Y-84704774D01*
X109106604Y-84911097D01*
X109106600Y-84911106D01*
X109104777Y-84915017D01*
X109103662Y-84919177D01*
X109103658Y-84919189D01*
X109044733Y-85139104D01*
X109044731Y-85139112D01*
X109043617Y-85143272D01*
X109043241Y-85147563D01*
X109043240Y-85147572D01*
X109023467Y-85373578D01*
X109023021Y-85378680D01*
X107379248Y-85378680D01*
X107379316Y-85376086D01*
X107379591Y-85370836D01*
X107386169Y-85245315D01*
X107396381Y-85063510D01*
X107397439Y-85053614D01*
X107421233Y-84903394D01*
X107421344Y-84902719D01*
X107448618Y-84742202D01*
X107450583Y-84733206D01*
X107490902Y-84582736D01*
X107491326Y-84581209D01*
X107535336Y-84428450D01*
X107538017Y-84420455D01*
X107594394Y-84273589D01*
X107595258Y-84271424D01*
X107655489Y-84126014D01*
X107658728Y-84118989D01*
X107730471Y-83978186D01*
X107731971Y-83975359D01*
X107807696Y-83838347D01*
X107811293Y-83832353D01*
X107897603Y-83699446D01*
X107899790Y-83696227D01*
X107990176Y-83568840D01*
X107993913Y-83563913D01*
X108093787Y-83440579D01*
X108096795Y-83437043D01*
X108200759Y-83320708D01*
X108204504Y-83316746D01*
X108316746Y-83204504D01*
X108320708Y-83200759D01*
X108437043Y-83096795D01*
X108440579Y-83093787D01*
X108563913Y-82993913D01*
X108568840Y-82990176D01*
X108696227Y-82899790D01*
X108699446Y-82897603D01*
X108832353Y-82811293D01*
X108838347Y-82807696D01*
X108975359Y-82731971D01*
X108978186Y-82730471D01*
X109118989Y-82658728D01*
X109126014Y-82655489D01*
X109271424Y-82595258D01*
X109273589Y-82594394D01*
X109420455Y-82538017D01*
X109428450Y-82535336D01*
X109581209Y-82491326D01*
X109582736Y-82490902D01*
X109733206Y-82450583D01*
X109742202Y-82448618D01*
X109902719Y-82421344D01*
X109903394Y-82421233D01*
X110053614Y-82397439D01*
X110063512Y-82396380D01*
X110245337Y-82386168D01*
X110376072Y-82379316D01*
X110381277Y-82379181D01*
X116526833Y-82382339D01*
X116576361Y-82395648D01*
X116612584Y-82431952D01*
X116625782Y-82481510D01*
X116613817Y-89408205D01*
X116613817Y-89408206D01*
X116613795Y-89421244D01*
X144786217Y-89450520D01*
X144778578Y-85378680D01*
X157023021Y-85378680D01*
X157023398Y-85382989D01*
X157043240Y-85609787D01*
X157043241Y-85609794D01*
X157043617Y-85614088D01*
X157044731Y-85618249D01*
X157044733Y-85618255D01*
X157103658Y-85838170D01*
X157103661Y-85838178D01*
X157104777Y-85842343D01*
X157106602Y-85846257D01*
X157106604Y-85846262D01*
X157202814Y-86052584D01*
X157202815Y-86052585D01*
X157204645Y-86056509D01*
X157207125Y-86060052D01*
X157207127Y-86060054D01*
X157337705Y-86246540D01*
X157337708Y-86246544D01*
X157340185Y-86250081D01*
X157507279Y-86417175D01*
X157700851Y-86552715D01*
X157915017Y-86652583D01*
X158143272Y-86713743D01*
X158319714Y-86729180D01*
X158435477Y-86729180D01*
X158437646Y-86729180D01*
X158614088Y-86713743D01*
X158842343Y-86652583D01*
X159056509Y-86552715D01*
X159250081Y-86417175D01*
X159417175Y-86250081D01*
X159552715Y-86056510D01*
X159652583Y-85842343D01*
X159713743Y-85614088D01*
X159734339Y-85378680D01*
X159713743Y-85143272D01*
X159652583Y-84915017D01*
X159577989Y-84755050D01*
X159554545Y-84704775D01*
X159554543Y-84704773D01*
X159552715Y-84700851D01*
X159417175Y-84507279D01*
X159250081Y-84340185D01*
X159246544Y-84337708D01*
X159246540Y-84337705D01*
X159060054Y-84207127D01*
X159060052Y-84207125D01*
X159056509Y-84204645D01*
X159052590Y-84202817D01*
X159052584Y-84202814D01*
X158846262Y-84106604D01*
X158846257Y-84106602D01*
X158842343Y-84104777D01*
X158838178Y-84103661D01*
X158838170Y-84103658D01*
X158618255Y-84044733D01*
X158618249Y-84044731D01*
X158614088Y-84043617D01*
X158609794Y-84043241D01*
X158609787Y-84043240D01*
X158439809Y-84028369D01*
X158439803Y-84028368D01*
X158437646Y-84028180D01*
X158319714Y-84028180D01*
X158317557Y-84028368D01*
X158317550Y-84028369D01*
X158147572Y-84043240D01*
X158147563Y-84043241D01*
X158143272Y-84043617D01*
X158139112Y-84044731D01*
X158139104Y-84044733D01*
X157919189Y-84103658D01*
X157919177Y-84103662D01*
X157915017Y-84104777D01*
X157911106Y-84106600D01*
X157911097Y-84106604D01*
X157704775Y-84202814D01*
X157704764Y-84202820D01*
X157700851Y-84204645D01*
X157697312Y-84207122D01*
X157697305Y-84207127D01*
X157510819Y-84337705D01*
X157510809Y-84337712D01*
X157507279Y-84340185D01*
X157504231Y-84343232D01*
X157504225Y-84343238D01*
X157343238Y-84504225D01*
X157343232Y-84504231D01*
X157340185Y-84507279D01*
X157337712Y-84510809D01*
X157337705Y-84510819D01*
X157207127Y-84697304D01*
X157207122Y-84697311D01*
X157204645Y-84700850D01*
X157202820Y-84704763D01*
X157202814Y-84704774D01*
X157106604Y-84911097D01*
X157106600Y-84911106D01*
X157104777Y-84915017D01*
X157103662Y-84919177D01*
X157103658Y-84919189D01*
X157044733Y-85139104D01*
X157044731Y-85139112D01*
X157043617Y-85143272D01*
X157043241Y-85147563D01*
X157043240Y-85147572D01*
X157023467Y-85373578D01*
X157023021Y-85378680D01*
X144778578Y-85378680D01*
X144773123Y-82470892D01*
X144786328Y-82421309D01*
X144822580Y-82384995D01*
X144872138Y-82371707D01*
X161485710Y-82374865D01*
G37*
G04 #@! TD.AperFunction*
M02*
